solid robo_hand
facet normal 1.0 0.0 0.0
  outer loop
    vertex 555.7246123746063 123.65223603068678 13.500000000000737
    vertex 555.7246123746063 121.6522360306868 17.000000000000583
    vertex 555.7246123746063 121.6522360306868 13.500000000000737
  endloop
endfacet
facet normal 1.0 0.0 0.0
  outer loop
    vertex 555.7246123746063 121.6522360306868 17.000000000000583
    vertex 555.7246123746063 123.65223603068678 13.500000000000737
    vertex 555.7246123746063 123.65223603068678 17.000000000000583
  endloop
endfacet
facet normal -1.0 0.0 -3.2228188371991142e-15
  outer loop
    vertex 562.7246123746064 123.65223603068678 17.000000000000682
    vertex 562.7246123746064 121.6522360306868 13.50000000000233
    vertex 562.7246123746064 121.6522360306868 17.000000000000682
  endloop
endfacet
facet normal -1.0 0.0 -3.2228188371991142e-15
  outer loop
    vertex 562.7246123746064 121.6522360306868 13.50000000000233
    vertex 562.7246123746064 123.65223603068678 17.000000000000682
    vertex 562.7246123746064 123.65223603068678 13.50000000000233
  endloop
endfacet
facet normal 1.3839527814350362e-14 3.076170754437912e-14 -1.0
  outer loop
    vertex 562.7246123746064 123.65223603068678 17.000000000000682
    vertex 555.7246123746063 121.6522360306868 17.000000000000583
    vertex 555.7246123746063 123.65223603068678 17.000000000000583
  endloop
endfacet
facet normal 1.3839527814350362e-14 3.076170754437912e-14 -1.0
  outer loop
    vertex 555.7246123746063 121.6522360306868 17.000000000000583
    vertex 562.7246123746064 123.65223603068678 17.000000000000682
    vertex 557.2246123746064 121.6522360306868 17.000000000000583
  endloop
endfacet
facet normal 1.3839527814350362e-14 3.076170754437912e-14 -1.0
  outer loop
    vertex 557.2246123746064 121.6522360306868 17.000000000000583
    vertex 562.7246123746064 123.65223603068678 17.000000000000682
    vertex 561.2246123746063 121.6522360306868 17.000000000000675
  endloop
endfacet
facet normal 1.3839527814350362e-14 3.076170754437912e-14 -1.0
  outer loop
    vertex 557.2246123746064 121.6522360306868 17.000000000000583
    vertex 561.2246123746063 121.6522360306868 17.000000000000675
    vertex 557.2246123746064 109.65223603068672 17.000000000000227
  endloop
endfacet
facet normal 1.3839527814350362e-14 3.076170754437912e-14 -1.0
  outer loop
    vertex 561.2246123746063 121.6522360306868 17.000000000000675
    vertex 562.7246123746064 123.65223603068678 17.000000000000682
    vertex 562.7246123746064 121.6522360306868 17.000000000000682
  endloop
endfacet
facet normal 1.3839527814350362e-14 3.076170754437912e-14 -1.0
  outer loop
    vertex 561.2246123746064 109.65223603068672 17.000000000000238
    vertex 557.2246123746064 109.65223603068672 17.000000000000227
    vertex 561.2246123746063 121.6522360306868 17.000000000000675
  endloop
endfacet
facet normal -3.1808843850775155e-29 -5.639932965095867e-15 1.0
  outer loop
    vertex 556.4746123746062 111.15223603068665 1.9999999999988436
    vertex 554.4746123746063 113.15223603068664 1.999999999998855
    vertex 554.4746123746063 111.15223603068665 1.9999999999988436
  endloop
endfacet
facet normal -3.1808843850775155e-29 -5.639932965095867e-15 1.0
  outer loop
    vertex 554.4746123746063 113.15223603068664 1.999999999998855
    vertex 556.4746123746062 111.15223603068665 1.9999999999988436
    vertex 556.4746123746062 113.15223603068664 1.999999999998855
  endloop
endfacet
facet normal 2.8199664825470834e-15 1.0 5.639932965095867e-15
  outer loop
    vertex 554.4746123746061 111.15223603068665 3.9999999999982845
    vertex 556.4746123746062 111.15223603068665 1.9999999999988436
    vertex 554.4746123746063 111.15223603068665 1.9999999999988436
  endloop
endfacet
facet normal 2.8199664825470834e-15 1.0 5.639932965095867e-15
  outer loop
    vertex 556.4746123746062 111.15223603068665 1.9999999999988436
    vertex 554.4746123746061 111.15223603068665 3.9999999999982845
    vertex 556.4746123746062 111.15223603068665 3.9999999999988427
  endloop
endfacet
facet normal 2.819966482545117e-15 1.0 1.9739765377838696e-14
  outer loop
    vertex 554.4746123746063 113.15223603068664 1.999999999998855
    vertex 556.4746123746063 113.1522360306867 -4.988242932776802e-13
    vertex 554.4746123746063 113.1522360306867 -1.0565556933079425e-12
  endloop
endfacet
facet normal 2.819966482545117e-15 1.0 1.9739765377838696e-14
  outer loop
    vertex 556.4746123746063 113.1522360306867 -4.988242932776802e-13
    vertex 554.4746123746063 113.15223603068664 1.999999999998855
    vertex 556.4746123746062 113.15223603068664 1.999999999998855
  endloop
endfacet
facet normal -1.0 -1.8365496579205462e-27 -5.4770006677346034e-14
  outer loop
    vertex 557.9746123746061 115.15223603068664 3.9999999999986087
    vertex 557.9746123746064 106.15223603068671 -4.423904450950595e-13
    vertex 557.9746123746061 106.15223603068665 3.9999999999989106
  endloop
endfacet
facet normal -1.0 -1.8365496579205462e-27 -5.4770006677346034e-14
  outer loop
    vertex 557.9746123746064 106.15223603068671 -4.423904450950595e-13
    vertex 557.9746123746061 115.15223603068664 3.9999999999986087
    vertex 557.9746123746064 115.15223603068674 -7.44178739894038e-13
  endloop
endfacet
facet normal 5.175937318719865e-29 -1.0 -1.2469810482676123e-14
  outer loop
    vertex 557.9746123746064 115.15223603068674 -7.44178739894038e-13
    vertex 552.9746123746062 115.15223603068664 3.999999999998589
    vertex 552.9746123746063 115.15223603068674 -7.649326131221461e-13
  endloop
endfacet
facet normal 5.175937318719865e-29 -1.0 -1.2469810482676123e-14
  outer loop
    vertex 552.9746123746062 115.15223603068664 3.999999999998589
    vertex 557.9746123746064 115.15223603068674 -7.44178739894038e-13
    vertex 557.9746123746061 115.15223603068664 3.9999999999986087
  endloop
endfacet
facet normal 1.0 2.506636873375907e-15 5.4770006677346065e-14
  outer loop
    vertex 552.9746123746063 106.15223603068671 -7.649326131221461e-13
    vertex 552.9746123746062 115.15223603068664 3.999999999998589
    vertex 552.9746123746062 106.15223603068665 3.999999999998589
  endloop
endfacet
facet normal 1.0 2.506636873375907e-15 5.4770006677346065e-14
  outer loop
    vertex 552.9746123746062 115.15223603068664 3.999999999998589
    vertex 552.9746123746063 106.15223603068671 -7.649326131221461e-13
    vertex 552.9746123746063 115.15223603068674 -7.649326131221461e-13
  endloop
endfacet
facet normal -1.0 -3.22281883719636e-15 -5.477000667734608e-14
  outer loop
    vertex 554.4746123746061 111.15223603068665 3.9999999999982845
    vertex 554.4746123746063 106.15223603068671 -1.2147317796976702e-12
    vertex 554.4746123746062 106.15223603068665 3.999999999998138
  endloop
endfacet
facet normal -1.0 -3.22281883719636e-15 -5.477000667734608e-14
  outer loop
    vertex 554.4746123746063 106.15223603068671 -1.2147317796976702e-12
    vertex 554.4746123746061 111.15223603068665 3.9999999999982845
    vertex 554.4746123746063 111.15223603068665 1.9999999999988436
  endloop
endfacet
facet normal -1.0 -3.22281883719636e-15 -5.477000667734608e-14
  outer loop
    vertex 554.4746123746063 106.15223603068671 -1.2147317796976702e-12
    vertex 554.4746123746063 111.15223603068665 1.9999999999988436
    vertex 554.4746123746063 113.1522360306867 -1.0565556933079425e-12
  endloop
endfacet
facet normal -1.0 -3.22281883719636e-15 -5.477000667734608e-14
  outer loop
    vertex 554.4746123746063 113.1522360306867 -1.0565556933079425e-12
    vertex 554.4746123746063 111.15223603068665 1.9999999999988436
    vertex 554.4746123746063 113.15223603068664 1.999999999998855
  endloop
endfacet
facet normal -4.3218193315490954e-15 -0.9238795325112827 -0.3826834323650994
  outer loop
    vertex 562.2246123746065 99.53787667674185 8.30000000000002
    vertex 559.7246123746063 99.69771735274924 7.914110472164075
    vertex 562.2246123746065 99.69771735274924 7.9141104721640545
  endloop
endfacet
facet normal -4.3218193315490954e-15 -0.9238795325112827 -0.3826834323650994
  outer loop
    vertex 559.7246123746063 99.69771735274924 7.914110472164075
    vertex 562.2246123746065 99.53787667674185 8.30000000000002
    vertex 559.7246123746064 99.5378766767418 8.30000000000004
  endloop
endfacet
facet normal -6.388028839076879e-15 0.13052619222004774 -0.9914448613738109
  outer loop
    vertex 562.2246123746065 98.15223603068672 9.10000000000002
    vertex 559.7246123746063 97.73812555852267 9.04548132206255
    vertex 559.7246123746063 98.15223603068672 9.10000000000004
  endloop
endfacet
facet normal -6.388028839076879e-15 0.13052619222004774 -0.9914448613738109
  outer loop
    vertex 559.7246123746063 97.73812555852267 9.04548132206255
    vertex 562.2246123746065 98.15223603068672 9.10000000000002
    vertex 562.2246123746065 97.73812555852271 9.04548132206253
  endloop
endfacet
facet normal 0.39704760238137804 3.035356336192041e-15 0.9177980177812541
  outer loop
    vertex 563.4746123746064 109.65223603068677 17.93750000000006
    vertex 562.1223866073244 123.65223603068674 18.522484918659526
    vertex 562.1223866073244 109.65223603068677 18.522484918659572
  endloop
endfacet
facet normal 0.39704760238137804 3.035356336192041e-15 0.9177980177812541
  outer loop
    vertex 562.1223866073244 123.65223603068674 18.522484918659526
    vertex 563.4746123746064 109.65223603068677 17.93750000000006
    vertex 563.4746123746064 123.65223603068674 17.93750000000001
  endloop
endfacet
facet normal -2.7626094413311624e-15 -0.9914448613738108 -0.13052619222004908
  outer loop
    vertex 562.2246123746065 99.69771735274924 7.9141104721640545
    vertex 559.7246123746063 99.75223603068672 7.500000000000041
    vertex 562.2246123746065 99.75223603068672 7.500000000000021
  endloop
endfacet
facet normal -2.7626094413311624e-15 -0.9914448613738108 -0.13052619222004908
  outer loop
    vertex 559.7246123746063 99.75223603068672 7.500000000000041
    vertex 562.2246123746065 99.69771735274924 7.9141104721640545
    vertex 559.7246123746063 99.69771735274924 7.914110472164075
  endloop
endfacet
facet normal -1.015132283114581e-15 -0.9914448613738108 0.13052619222004863
  outer loop
    vertex 562.2246123746065 99.75223603068672 7.500000000000021
    vertex 559.7246123746063 99.69771735274924 7.085889527836007
    vertex 562.2246123746065 99.69771735274924 7.085889527835986
  endloop
endfacet
facet normal -1.015132283114581e-15 -0.9914448613738108 0.13052619222004863
  outer loop
    vertex 559.7246123746063 99.69771735274924 7.085889527836007
    vertex 562.2246123746065 99.75223603068672 7.500000000000021
    vertex 559.7246123746063 99.75223603068672 7.500000000000041
  endloop
endfacet
facet normal -6.885377972340266e-15 -0.13052619222005107 -0.9914448613738106
  outer loop
    vertex 559.7246123746064 98.56634650285078 9.045481322062548
    vertex 562.2246123746065 98.15223603068672 9.10000000000002
    vertex 559.7246123746063 98.15223603068672 9.10000000000004
  endloop
endfacet
facet normal -6.885377972340266e-15 -0.13052619222005107 -0.9914448613738106
  outer loop
    vertex 562.2246123746065 98.15223603068672 9.10000000000002
    vertex 559.7246123746064 98.56634650285078 9.045481322062548
    vertex 562.2246123746065 98.56634650285078 9.045481322062528
  endloop
endfacet
facet normal -6.913499975413782e-15 -0.38268343236508 -0.923879532511291
  outer loop
    vertex 562.2246123746065 98.95223603068672 8.885640646055128
    vertex 559.7246123746064 98.56634650285078 9.045481322062548
    vertex 559.7246123746064 98.95223603068672 8.885640646055148
  endloop
endfacet
facet normal -6.913499975413782e-15 -0.38268343236508 -0.923879532511291
  outer loop
    vertex 559.7246123746064 98.56634650285078 9.045481322062548
    vertex 562.2246123746065 98.95223603068672 8.885640646055128
    vertex 562.2246123746065 98.56634650285078 9.045481322062528
  endloop
endfacet
facet normal -5.586504376465969e-15 -0.7933533402912355 -0.6087614290087203
  outer loop
    vertex 562.2246123746065 99.28360688058518 8.631370849898504
    vertex 559.7246123746064 99.5378766767418 8.30000000000004
    vertex 562.2246123746065 99.53787667674185 8.30000000000002
  endloop
endfacet
facet normal -5.586504376465969e-15 -0.7933533402912355 -0.6087614290087203
  outer loop
    vertex 559.7246123746064 99.5378766767418 8.30000000000004
    vertex 562.2246123746065 99.28360688058518 8.631370849898504
    vertex 559.7246123746063 99.28360688058518 8.631370849898524
  endloop
endfacet
facet normal 0.5409925961387199 2.759971444006569e-15 0.8410273544440086
  outer loop
    vertex 564.7137290839859 109.65223603068672 17.14043559777349
    vertex 563.4746123746064 123.65223603068674 17.93750000000001
    vertex 563.4746123746064 109.65223603068677 17.93750000000006
  endloop
endfacet
facet normal 0.5409925961387199 2.759971444006569e-15 0.8410273544440086
  outer loop
    vertex 563.4746123746064 123.65223603068674 17.93750000000001
    vertex 564.7137290839859 109.65223603068672 17.14043559777349
    vertex 564.7137290839859 123.65223603068674 17.140435597773443
  endloop
endfacet
facet normal -0.7822410692923847 5.145290010919888e-15 0.6229758498628233
  outer loop
    vertex 552.6424657369565 123.65223603068674 16.152504701067585
    vertex 551.7246123746063 109.65223603068672 15.000000000000158
    vertex 552.6424657369565 109.65223603068672 16.152504701067702
  endloop
endfacet
facet normal -0.7822410692923847 5.145290010919888e-15 0.6229758498628233
  outer loop
    vertex 551.7246123746063 109.65223603068672 15.000000000000158
    vertex 552.6424657369565 123.65223603068674 16.152504701067585
    vertex 551.7246123746063 123.6522360306867 15.000000000000043
  endloop
endfacet
facet normal 1.0 -4.252881597626003e-27 5.477000667734603e-14
  outer loop
    vertex 556.4746123746063 113.1522360306867 -4.988242932776802e-13
    vertex 556.4746123746062 111.15223603068665 1.9999999999988436
    vertex 556.4746123746063 106.15223603068671 -1.0423730892228804e-12
  endloop
endfacet
facet normal 1.0 -4.252881597626003e-27 5.477000667734603e-14
  outer loop
    vertex 556.4746123746062 111.15223603068665 1.9999999999988436
    vertex 556.4746123746063 113.1522360306867 -4.988242932776802e-13
    vertex 556.4746123746062 113.15223603068664 1.999999999998855
  endloop
endfacet
facet normal 1.0 -4.252881597626003e-27 5.477000667734603e-14
  outer loop
    vertex 556.4746123746063 106.15223603068671 -1.0423730892228804e-12
    vertex 556.4746123746062 111.15223603068665 3.9999999999988427
    vertex 556.4746123746062 106.15223603068665 3.999999999998311
  endloop
endfacet
facet normal 1.0 -4.252881597626003e-27 5.477000667734603e-14
  outer loop
    vertex 556.4746123746062 111.15223603068665 3.9999999999988427
    vertex 556.4746123746063 106.15223603068671 -1.0423730892228804e-12
    vertex 556.4746123746062 111.15223603068665 1.9999999999988436
  endloop
endfacet
facet normal 5.477000667734603e-14 1.2469810482676123e-14 -1.0
  outer loop
    vertex 552.9746123746062 115.15223603068664 3.999999999998589
    vertex 554.4746123746061 111.15223603068665 3.9999999999982845
    vertex 552.9746123746062 106.15223603068665 3.999999999998589
  endloop
endfacet
facet normal 5.477000667734603e-14 1.2469810482676123e-14 -1.0
  outer loop
    vertex 554.4746123746061 111.15223603068665 3.9999999999982845
    vertex 552.9746123746062 115.15223603068664 3.999999999998589
    vertex 557.9746123746061 115.15223603068664 3.9999999999986087
  endloop
endfacet
facet normal 5.477000667734603e-14 1.2469810482676123e-14 -1.0
  outer loop
    vertex 554.4746123746061 111.15223603068665 3.9999999999982845
    vertex 557.9746123746061 115.15223603068664 3.9999999999986087
    vertex 556.4746123746062 111.15223603068665 3.9999999999988427
  endloop
endfacet
facet normal 5.477000667734603e-14 1.2469810482676123e-14 -1.0
  outer loop
    vertex 556.4746123746062 111.15223603068665 3.9999999999988427
    vertex 557.9746123746061 115.15223603068664 3.9999999999986087
    vertex 556.4746123746062 106.15223603068665 3.999999999998311
  endloop
endfacet
facet normal 5.477000667734603e-14 1.2469810482676123e-14 -1.0
  outer loop
    vertex 556.4746123746062 106.15223603068665 3.999999999998311
    vertex 557.9746123746061 115.15223603068664 3.9999999999986087
    vertex 557.9746123746061 106.15223603068665 3.9999999999989106
  endloop
endfacet
facet normal 5.477000667734603e-14 1.2469810482676123e-14 -1.0
  outer loop
    vertex 554.4746123746062 106.15223603068665 3.999999999998138
    vertex 552.9746123746062 106.15223603068665 3.999999999998589
    vertex 554.4746123746061 111.15223603068665 3.9999999999982845
  endloop
endfacet
facet normal 1.8252252262626284e-13 5.012320588106661e-14 -1.0
  outer loop
    vertex 556.4746123746063 113.1522360306867 -4.988242932776802e-13
    vertex 554.4746123746063 106.15223603068671 -1.2147317796976702e-12
    vertex 554.4746123746063 113.1522360306867 -1.0565556933079425e-12
  endloop
endfacet
facet normal 1.8252252262626284e-13 5.012320588106661e-14 -1.0
  outer loop
    vertex 554.4746123746063 106.15223603068671 -1.2147317796976702e-12
    vertex 556.4746123746063 113.1522360306867 -4.988242932776802e-13
    vertex 556.4746123746063 106.15223603068671 -1.0423730892228804e-12
  endloop
endfacet
facet normal -0.39704760238137804 7.558272387779795e-15 0.9177980177812541
  outer loop
    vertex 556.3268381418884 109.65223603068672 18.522484918659565
    vertex 554.9746123746064 123.65223603068674 17.937499999999936
    vertex 554.9746123746064 109.65223603068672 17.937500000000053
  endloop
endfacet
facet normal -0.39704760238137804 7.558272387779795e-15 0.9177980177812541
  outer loop
    vertex 554.9746123746064 123.65223603068674 17.937499999999936
    vertex 556.3268381418884 109.65223603068672 18.522484918659565
    vertex 556.3268381418884 123.65223603068674 18.522484918659448
  endloop
endfacet
facet normal -1.0 -1.003755224384606e-15 4.527819556375128e-16
  outer loop
    vertex 551.7246123746063 109.65223603068672 15.000000000000158
    vertex 551.7246123746063 106.15223603068671 2.8698547585726693
    vertex 551.7246123746063 106.15223603068671 15.000000000000158
  endloop
endfacet
facet normal -1.0 -1.003755224384606e-15 4.527819556375128e-16
  outer loop
    vertex 551.7246123746063 106.15223603068671 2.8698547585726693
    vertex 551.7246123746063 109.65223603068672 15.000000000000158
    vertex 551.7246123746063 106.15223603068671 1.4698547585726693
  endloop
endfacet
facet normal -1.0 -1.003755224384606e-15 4.527819556375128e-16
  outer loop
    vertex 551.7246123746063 106.15223603068671 1.4698547585726693
    vertex 551.7246123746063 109.65223603068672 15.000000000000158
    vertex 551.7246123746063 106.15223603068671 5.1831687090477995e-15
  endloop
endfacet
facet normal -1.0 -1.003755224384606e-15 4.527819556375128e-16
  outer loop
    vertex 551.7246123746063 106.15223603068671 5.1831687090477995e-15
    vertex 551.7246123746063 109.65223603068672 15.000000000000158
    vertex 551.7246123746063 123.65223603068678 0.0
  endloop
endfacet
facet normal -1.0 -1.003755224384606e-15 4.527819556375128e-16
  outer loop
    vertex 551.7246123746063 123.65223603068678 0.0
    vertex 551.7246123746063 109.65223603068672 15.000000000000158
    vertex 551.7246123746063 123.6522360306867 15.000000000000043
  endloop
endfacet
facet normal -2.563558640791317e-15 0.7933533402912266 -0.6087614290087318
  outer loop
    vertex 559.7246123746064 96.76659538463159 8.300000000000002
    vertex 562.2246123746065 97.02086518078825 8.631370849898456
    vertex 562.2246123746065 96.76659538463163 8.299999999999981
  endloop
endfacet
facet normal -2.563558640791317e-15 0.7933533402912266 -0.6087614290087318
  outer loop
    vertex 562.2246123746065 97.02086518078825 8.631370849898456
    vertex 559.7246123746064 96.76659538463159 8.300000000000002
    vertex 559.7246123746064 97.02086518078825 8.631370849898476
  endloop
endfacet
facet normal -8.015244626108751e-16 0.9238795325112881 -0.3826834323650867
  outer loop
    vertex 559.7246123746064 96.6067547086242 7.914110472164035
    vertex 562.2246123746065 96.76659538463163 8.299999999999981
    vertex 562.2246123746065 96.60675470862424 7.914110472164015
  endloop
endfacet
facet normal -8.015244626108751e-16 0.9238795325112881 -0.3826834323650867
  outer loop
    vertex 562.2246123746065 96.76659538463163 8.299999999999981
    vertex 559.7246123746064 96.6067547086242 7.914110472164035
    vertex 559.7246123746064 96.76659538463159 8.300000000000002
  endloop
endfacet
facet normal 1.0151322831144765e-15 0.9914448613738088 -0.13052619222006365
  outer loop
    vertex 559.7246123746064 96.55223603068671 7.500000000000006
    vertex 562.2246123746065 96.60675470862424 7.914110472164015
    vertex 562.2246123746065 96.55223603068671 7.499999999999987
  endloop
endfacet
facet normal 1.0151322831144765e-15 0.9914448613738088 -0.13052619222006365
  outer loop
    vertex 562.2246123746065 96.60675470862424 7.914110472164015
    vertex 559.7246123746064 96.55223603068671 7.500000000000006
    vertex 559.7246123746064 96.6067547086242 7.914110472164035
  endloop
endfacet
facet normal 2.7626094413311478e-15 0.9914448613738112 0.13052619222004688
  outer loop
    vertex 559.7246123746064 96.6067547086242 7.085889527835966
    vertex 562.2246123746065 96.55223603068671 7.499999999999987
    vertex 562.2246123746065 96.6067547086242 7.0858895278359455
  endloop
endfacet
facet normal 2.7626094413311478e-15 0.9914448613738112 0.13052619222004688
  outer loop
    vertex 562.2246123746065 96.55223603068671 7.499999999999987
    vertex 559.7246123746064 96.6067547086242 7.085889527835966
    vertex 559.7246123746064 96.55223603068671 7.500000000000006
  endloop
endfacet
facet normal 4.321819331549172e-15 0.9238795325112776 0.3826834323651122
  outer loop
    vertex 559.7246123746063 96.76659538463159 6.700000000000002
    vertex 562.2246123746065 96.6067547086242 7.0858895278359455
    vertex 562.2246123746065 96.76659538463163 6.699999999999982
  endloop
endfacet
facet normal 4.321819331549172e-15 0.9238795325112776 0.3826834323651122
  outer loop
    vertex 562.2246123746065 96.6067547086242 7.0858895278359455
    vertex 559.7246123746063 96.76659538463159 6.700000000000002
    vertex 559.7246123746064 96.6067547086242 7.085889527835966
  endloop
endfacet
facet normal 5.586504376465969e-15 0.7933533402912355 0.6087614290087203
  outer loop
    vertex 559.7246123746064 97.02086518078825 6.368629150101518
    vertex 562.2246123746065 96.76659538463163 6.699999999999982
    vertex 562.2246123746065 97.02086518078825 6.368629150101498
  endloop
endfacet
facet normal 5.586504376465969e-15 0.7933533402912355 0.6087614290087203
  outer loop
    vertex 562.2246123746065 96.76659538463163 6.699999999999982
    vertex 559.7246123746064 97.02086518078825 6.368629150101518
    vertex 559.7246123746063 96.76659538463159 6.700000000000002
  endloop
endfacet
facet normal 6.470478380261743e-15 0.6087614290087191 0.7933533402912363
  outer loop
    vertex 559.7246123746064 97.02086518078825 6.368629150101518
    vertex 562.2246123746065 97.35223603068673 6.1143593539448675
    vertex 559.7246123746063 97.35223603068673 6.114359353944897
  endloop
endfacet
facet normal 6.470478380261743e-15 0.6087614290087191 0.7933533402912363
  outer loop
    vertex 562.2246123746065 97.35223603068673 6.1143593539448675
    vertex 559.7246123746064 97.02086518078825 6.368629150101518
    vertex 562.2246123746065 97.02086518078825 6.368629150101498
  endloop
endfacet
facet normal -4.150890534082539e-15 0.6087614290087286 -0.793353340291229
  outer loop
    vertex 562.2246123746065 97.35223603068673 8.885640646055084
    vertex 559.7246123746064 97.02086518078825 8.631370849898476
    vertex 559.7246123746064 97.35223603068673 8.885640646055103
  endloop
endfacet
facet normal -4.150890534082539e-15 0.6087614290087286 -0.793353340291229
  outer loop
    vertex 559.7246123746064 97.02086518078825 8.631370849898476
    vertex 562.2246123746065 97.35223603068673 8.885640646055084
    vertex 562.2246123746065 97.02086518078825 8.631370849898456
  endloop
endfacet
facet normal 6.913499975413841e-15 0.3826834323650108 0.9238795325113195
  outer loop
    vertex 562.2246123746065 97.35223603068673 6.1143593539448675
    vertex 559.7246123746063 97.73812555852267 5.95451867793753
    vertex 559.7246123746063 97.35223603068673 6.114359353944897
  endloop
endfacet
facet normal 6.913499975413841e-15 0.3826834323650108 0.9238795325113195
  outer loop
    vertex 559.7246123746063 97.73812555852267 5.95451867793753
    vertex 562.2246123746065 97.35223603068673 6.1143593539448675
    vertex 562.2246123746065 97.73812555852271 5.954518677937501
  endloop
endfacet
facet normal 6.8853779723402634e-15 0.1305261922200494 0.9914448613738107
  outer loop
    vertex 562.2246123746065 97.73812555852271 5.954518677937501
    vertex 559.7246123746063 98.15223603068672 5.90000000000004
    vertex 559.7246123746063 97.73812555852267 5.95451867793753
  endloop
endfacet
facet normal 6.8853779723402634e-15 0.1305261922200494 0.9914448613738107
  outer loop
    vertex 559.7246123746063 98.15223603068672 5.90000000000004
    vertex 562.2246123746065 97.73812555852271 5.954518677937501
    vertex 562.2246123746065 98.15223603068672 5.90000000000001
  endloop
endfacet
facet normal 6.38802883907688e-15 -0.13052619222004785 0.991444861373811
  outer loop
    vertex 562.2246123746065 98.15223603068672 5.90000000000001
    vertex 559.7246123746063 98.56634650285072 5.9545186779375285
    vertex 559.7246123746063 98.15223603068672 5.90000000000004
  endloop
endfacet
facet normal 6.38802883907688e-15 -0.13052619222004785 0.991444861373811
  outer loop
    vertex 559.7246123746063 98.56634650285072 5.9545186779375285
    vertex 562.2246123746065 98.15223603068672 5.90000000000001
    vertex 562.2246123746065 98.56634650285078 5.954518677937499
  endloop
endfacet
facet normal 5.4553460971471805e-15 -0.3826834323650891 0.923879532511287
  outer loop
    vertex 562.2246123746065 98.56634650285078 5.954518677937499
    vertex 559.7246123746063 98.95223603068672 6.114359353944939
    vertex 559.7246123746063 98.56634650285072 5.9545186779375285
  endloop
endfacet
facet normal 5.4553460971471805e-15 -0.3826834323650891 0.923879532511287
  outer loop
    vertex 559.7246123746063 98.95223603068672 6.114359353944939
    vertex 562.2246123746065 98.56634650285078 5.954518677937499
    vertex 562.2246123746065 98.95223603068672 6.114359353944908
  endloop
endfacet
facet normal 4.150890534082583e-15 -0.6087614290087223 0.793353340291234
  outer loop
    vertex 562.2246123746065 98.95223603068672 6.114359353944908
    vertex 559.7246123746063 99.28360688058518 6.368629150101562
    vertex 559.7246123746063 98.95223603068672 6.114359353944939
  endloop
endfacet
facet normal 4.150890534082583e-15 -0.6087614290087223 0.793353340291234
  outer loop
    vertex 559.7246123746063 99.28360688058518 6.368629150101562
    vertex 562.2246123746065 98.95223603068672 6.114359353944908
    vertex 562.2246123746065 99.28360688058518 6.368629150101542
  endloop
endfacet
facet normal 2.5635586407912504e-15 -0.7933533402912328 0.6087614290087237
  outer loop
    vertex 562.2246123746065 99.53787667674185 6.700000000000023
    vertex 559.7246123746063 99.28360688058518 6.368629150101562
    vertex 562.2246123746065 99.28360688058518 6.368629150101542
  endloop
endfacet
facet normal 2.5635586407912504e-15 -0.7933533402912328 0.6087614290087237
  outer loop
    vertex 559.7246123746063 99.28360688058518 6.368629150101562
    vertex 562.2246123746065 99.53787667674185 6.700000000000023
    vertex 559.7246123746063 99.5378766767418 6.700000000000043
  endloop
endfacet
facet normal 8.015244626108933e-16 -0.9238795325112872 0.3826834323650891
  outer loop
    vertex 562.2246123746065 99.69771735274924 7.085889527835986
    vertex 559.7246123746063 99.5378766767418 6.700000000000043
    vertex 562.2246123746065 99.53787667674185 6.700000000000023
  endloop
endfacet
facet normal 8.015244626108933e-16 -0.9238795325112872 0.3826834323650891
  outer loop
    vertex 559.7246123746063 99.5378766767418 6.700000000000043
    vertex 562.2246123746065 99.69771735274924 7.085889527835986
    vertex 559.7246123746063 99.69771735274924 7.085889527836007
  endloop
endfacet
facet normal -6.470478380261726e-15 -0.6087614290087244 -0.7933533402912323
  outer loop
    vertex 562.2246123746065 99.28360688058518 8.631370849898504
    vertex 559.7246123746064 98.95223603068672 8.885640646055148
    vertex 559.7246123746063 99.28360688058518 8.631370849898524
  endloop
endfacet
facet normal -6.470478380261726e-15 -0.6087614290087244 -0.7933533402912323
  outer loop
    vertex 559.7246123746064 98.95223603068672 8.885640646055148
    vertex 562.2246123746065 99.28360688058518 8.631370849898504
    vertex 562.2246123746065 98.95223603068672 8.885640646055128
  endloop
endfacet
facet normal -5.455346097146801e-15 0.3826834323651702 -0.9238795325112534
  outer loop
    vertex 562.2246123746065 97.73812555852271 9.04548132206253
    vertex 559.7246123746064 97.35223603068673 8.885640646055103
    vertex 559.7246123746063 97.73812555852267 9.04548132206255
  endloop
endfacet
facet normal -5.455346097146801e-15 0.3826834323651702 -0.9238795325112534
  outer loop
    vertex 559.7246123746064 97.35223603068673 8.885640646055103
    vertex 562.2246123746065 97.73812555852271 9.04548132206253
    vertex 562.2246123746065 97.35223603068673 8.885640646055084
  endloop
endfacet
facet normal -0.0815688297958495 5.821583166257593e-15 0.996667710927637
  outer loop
    vertex 559.2246123746064 109.65223603068677 19.00000000000001
    vertex 557.7561849711649 123.65223603068674 18.87982162597856
    vertex 557.7561849711649 109.65223603068677 18.879821625978675
  endloop
endfacet
facet normal -0.0815688297958495 5.821583166257593e-15 0.996667710927637
  outer loop
    vertex 557.7561849711649 123.65223603068674 18.87982162597856
    vertex 559.2246123746064 109.65223603068677 19.00000000000001
    vertex 559.2246123746064 123.65223603068674 18.99999999999996
  endloop
endfacet
facet normal -0.24253562503632756 7.987209639289217e-15 0.9701425001453332
  outer loop
    vertex 557.7561849711649 109.65223603068677 18.879821625978675
    vertex 556.3268381418884 123.65223603068674 18.522484918659448
    vertex 556.3268381418884 109.65223603068672 18.522484918659565
  endloop
endfacet
facet normal -0.24253562503632756 7.987209639289217e-15 0.9701425001453332
  outer loop
    vertex 556.3268381418884 123.65223603068674 18.522484918659448
    vertex 557.7561849711649 109.65223603068677 18.879821625978675
    vertex 557.7561849711649 123.65223603068674 18.87982162597856
  endloop
endfacet
facet normal -0.5409925961387226 6.92818006117583e-15 0.8410273544440068
  outer loop
    vertex 554.9746123746064 109.65223603068672 17.937500000000053
    vertex 553.7354956652268 123.65223603068674 17.14043559777336
    vertex 553.7354956652268 109.65223603068672 17.140435597773475
  endloop
endfacet
facet normal -0.5409925961387226 6.92818006117583e-15 0.8410273544440068
  outer loop
    vertex 553.7354956652268 123.65223603068674 17.14043559777336
    vertex 554.9746123746064 109.65223603068672 17.937500000000053
    vertex 554.9746123746064 123.65223603068674 17.937499999999936
  endloop
endfacet
facet normal -0.6705396692180785 6.1137018711135265e-15 0.7418736765817412
  outer loop
    vertex 553.7354956652268 109.65223603068672 17.140435597773475
    vertex 552.6424657369565 123.65223603068674 16.152504701067585
    vertex 552.6424657369565 109.65223603068672 16.152504701067702
  endloop
endfacet
facet normal -0.6705396692180785 6.1137018711135265e-15 0.7418736765817412
  outer loop
    vertex 552.6424657369565 123.65223603068674 16.152504701067585
    vertex 553.7354956652268 109.65223603068672 17.140435597773475
    vertex 553.7354956652268 123.65223603068674 17.14043559777336
  endloop
endfacet
facet normal 0.7822410692923812 2.1343423377392756e-15 0.6229758498628274
  outer loop
    vertex 566.7246123746064 123.65223603068674 15.000000000000133
    vertex 565.8067590122562 109.65223603068672 16.152504701067716
    vertex 566.7246123746064 109.65223603068672 15.000000000000181
  endloop
endfacet
facet normal 0.7822410692923812 2.1343423377392756e-15 0.6229758498628274
  outer loop
    vertex 565.8067590122562 109.65223603068672 16.152504701067716
    vertex 566.7246123746064 123.65223603068674 15.000000000000133
    vertex 565.8067590122562 123.65223603068674 16.15250470106767
  endloop
endfacet
facet normal 0.6705396692180755 2.4111329589107015e-15 0.7418736765817439
  outer loop
    vertex 565.8067590122562 109.65223603068672 16.152504701067716
    vertex 564.7137290839859 123.65223603068674 17.140435597773443
    vertex 564.7137290839859 109.65223603068672 17.14043559777349
  endloop
endfacet
facet normal 0.6705396692180755 2.4111329589107015e-15 0.7418736765817439
  outer loop
    vertex 564.7137290839859 123.65223603068674 17.140435597773443
    vertex 565.8067590122562 109.65223603068672 16.152504701067716
    vertex 565.8067590122562 123.65223603068674 16.15250470106767
  endloop
endfacet
facet normal 0.24253562503632398 3.2299585705928428e-15 0.9701425001453342
  outer loop
    vertex 562.1223866073244 109.65223603068677 18.522484918659572
    vertex 560.6930397780479 123.65223603068674 18.879821625978632
    vertex 560.6930397780479 109.65223603068677 18.87982162597868
  endloop
endfacet
facet normal 0.24253562503632398 3.2299585705928428e-15 0.9701425001453342
  outer loop
    vertex 560.6930397780479 123.65223603068674 18.879821625978632
    vertex 562.1223866073244 109.65223603068677 18.522484918659572
    vertex 562.1223866073244 123.65223603068674 18.522484918659526
  endloop
endfacet
facet normal 0.0815688297958248 3.412492753533052e-15 0.9966677109276392
  outer loop
    vertex 560.6930397780479 109.65223603068677 18.87982162597868
    vertex 559.2246123746064 123.65223603068674 18.99999999999996
    vertex 559.2246123746064 109.65223603068677 19.00000000000001
  endloop
endfacet
facet normal 0.0815688297958248 3.412492753533052e-15 0.9966677109276392
  outer loop
    vertex 559.2246123746064 123.65223603068674 18.99999999999996
    vertex 560.6930397780479 109.65223603068677 18.87982162597868
    vertex 560.6930397780479 123.65223603068674 18.879821625978632
  endloop
endfacet
facet normal 1.1603655459567113e-15 -1.0 6.943389120539188e-15
  outer loop
    vertex 566.7246123746064 109.65223603068672 15.000000000000181
    vertex 561.2246123746064 109.65223603068672 17.000000000000238
    vertex 561.2246123746064 109.65223603068672 15.000000000000172
  endloop
endfacet
facet normal 1.1603655459567113e-15 -1.0 6.943389120539188e-15
  outer loop
    vertex 561.2246123746064 109.65223603068672 17.000000000000238
    vertex 566.7246123746064 109.65223603068672 15.000000000000181
    vertex 565.8067590122562 109.65223603068672 16.152504701067716
  endloop
endfacet
facet normal 1.1603655459567113e-15 -1.0 6.943389120539188e-15
  outer loop
    vertex 561.2246123746064 109.65223603068672 17.000000000000238
    vertex 565.8067590122562 109.65223603068672 16.152504701067716
    vertex 564.7137290839859 109.65223603068672 17.14043559777349
  endloop
endfacet
facet normal 1.1603655459567113e-15 -1.0 6.943389120539188e-15
  outer loop
    vertex 561.2246123746064 109.65223603068672 17.000000000000238
    vertex 564.7137290839859 109.65223603068672 17.14043559777349
    vertex 553.7354956652268 109.65223603068672 17.140435597773475
  endloop
endfacet
facet normal 1.1603655459567113e-15 -1.0 6.943389120539188e-15
  outer loop
    vertex 553.7354956652268 109.65223603068672 17.140435597773475
    vertex 564.7137290839859 109.65223603068672 17.14043559777349
    vertex 554.9746123746064 109.65223603068672 17.937500000000053
  endloop
endfacet
facet normal 1.1603655459567113e-15 -1.0 6.943389120539188e-15
  outer loop
    vertex 554.9746123746064 109.65223603068672 17.937500000000053
    vertex 564.7137290839859 109.65223603068672 17.14043559777349
    vertex 563.4746123746064 109.65223603068677 17.93750000000006
  endloop
endfacet
facet normal 1.1603655459567113e-15 -1.0 6.943389120539188e-15
  outer loop
    vertex 554.9746123746064 109.65223603068672 17.937500000000053
    vertex 563.4746123746064 109.65223603068677 17.93750000000006
    vertex 556.3268381418884 109.65223603068672 18.522484918659565
  endloop
endfacet
facet normal 1.1603655459567113e-15 -1.0 6.943389120539188e-15
  outer loop
    vertex 556.3268381418884 109.65223603068672 18.522484918659565
    vertex 563.4746123746064 109.65223603068677 17.93750000000006
    vertex 562.1223866073244 109.65223603068677 18.522484918659572
  endloop
endfacet
facet normal 1.1603655459567113e-15 -1.0 6.943389120539188e-15
  outer loop
    vertex 556.3268381418884 109.65223603068672 18.522484918659565
    vertex 562.1223866073244 109.65223603068677 18.522484918659572
    vertex 557.7561849711649 109.65223603068677 18.879821625978675
  endloop
endfacet
facet normal 1.1603655459567113e-15 -1.0 6.943389120539188e-15
  outer loop
    vertex 557.7561849711649 109.65223603068677 18.879821625978675
    vertex 562.1223866073244 109.65223603068677 18.522484918659572
    vertex 560.6930397780479 109.65223603068677 18.87982162597868
  endloop
endfacet
facet normal 1.1603655459567113e-15 -1.0 6.943389120539188e-15
  outer loop
    vertex 557.7561849711649 109.65223603068677 18.879821625978675
    vertex 560.6930397780479 109.65223603068677 18.87982162597868
    vertex 559.2246123746064 109.65223603068677 19.00000000000001
  endloop
endfacet
facet normal 1.1603655459567113e-15 -1.0 6.943389120539188e-15
  outer loop
    vertex 557.2246123746064 109.65223603068672 15.000000000000167
    vertex 552.6424657369565 109.65223603068672 16.152504701067702
    vertex 551.7246123746063 109.65223603068672 15.000000000000158
  endloop
endfacet
facet normal 1.1603655459567113e-15 -1.0 6.943389120539188e-15
  outer loop
    vertex 552.6424657369565 109.65223603068672 16.152504701067702
    vertex 557.2246123746064 109.65223603068672 15.000000000000167
    vertex 557.2246123746064 109.65223603068672 17.000000000000227
  endloop
endfacet
facet normal 1.1603655459567113e-15 -1.0 6.943389120539188e-15
  outer loop
    vertex 552.6424657369565 109.65223603068672 16.152504701067702
    vertex 557.2246123746064 109.65223603068672 17.000000000000227
    vertex 553.7354956652268 109.65223603068672 17.140435597773475
  endloop
endfacet
facet normal 1.1603655459567113e-15 -1.0 6.943389120539188e-15
  outer loop
    vertex 553.7354956652268 109.65223603068672 17.140435597773475
    vertex 557.2246123746064 109.65223603068672 17.000000000000227
    vertex 561.2246123746064 109.65223603068672 17.000000000000238
  endloop
endfacet
facet normal 0.0 1.0 0.0
  outer loop
    vertex 555.7246123746063 121.6522360306868 13.500000000000737
    vertex 557.2246123746064 121.6522360306868 15.000000000001078
    vertex 562.7246123746064 121.6522360306868 13.50000000000233
  endloop
endfacet
facet normal 0.0 1.0 0.0
  outer loop
    vertex 557.2246123746064 121.6522360306868 15.000000000001078
    vertex 555.7246123746063 121.6522360306868 13.500000000000737
    vertex 555.7246123746063 121.6522360306868 17.000000000000583
  endloop
endfacet
facet normal 0.0 1.0 0.0
  outer loop
    vertex 557.2246123746064 121.6522360306868 15.000000000001078
    vertex 555.7246123746063 121.6522360306868 17.000000000000583
    vertex 557.2246123746064 121.6522360306868 17.000000000000583
  endloop
endfacet
facet normal 0.0 1.0 0.0
  outer loop
    vertex 562.7246123746064 121.6522360306868 13.50000000000233
    vertex 561.2246123746063 121.6522360306868 15.00000000000199
    vertex 562.7246123746064 121.6522360306868 17.000000000000682
  endloop
endfacet
facet normal 0.0 1.0 0.0
  outer loop
    vertex 561.2246123746063 121.6522360306868 15.00000000000199
    vertex 562.7246123746064 121.6522360306868 13.50000000000233
    vertex 557.2246123746064 121.6522360306868 15.000000000001078
  endloop
endfacet
facet normal 0.0 1.0 0.0
  outer loop
    vertex 562.7246123746064 121.6522360306868 17.000000000000682
    vertex 561.2246123746063 121.6522360306868 15.00000000000199
    vertex 561.2246123746063 121.6522360306868 17.000000000000675
  endloop
endfacet
facet normal -2.213741743366134e-17 1.0 6.892411205665242e-16
  outer loop
    vertex 551.7246123746063 123.6522360306867 15.000000000000043
    vertex 566.7246123746064 123.65223603068678 0.0
    vertex 551.7246123746063 123.65223603068678 0.0
  endloop
endfacet
facet normal -2.213741743366134e-17 1.0 6.892411205665242e-16
  outer loop
    vertex 566.7246123746064 123.65223603068678 0.0
    vertex 551.7246123746063 123.6522360306867 15.000000000000043
    vertex 555.7246123746063 123.65223603068678 13.500000000000737
  endloop
endfacet
facet normal -2.213741743366134e-17 1.0 6.892411205665242e-16
  outer loop
    vertex 555.7246123746063 123.65223603068678 13.500000000000737
    vertex 551.7246123746063 123.6522360306867 15.000000000000043
    vertex 555.7246123746063 123.65223603068678 17.000000000000583
  endloop
endfacet
facet normal -2.213741743366134e-17 1.0 6.892411205665242e-16
  outer loop
    vertex 555.7246123746063 123.65223603068678 17.000000000000583
    vertex 551.7246123746063 123.6522360306867 15.000000000000043
    vertex 552.6424657369565 123.65223603068674 16.152504701067585
  endloop
endfacet
facet normal -2.213741743366134e-17 1.0 6.892411205665242e-16
  outer loop
    vertex 555.7246123746063 123.65223603068678 17.000000000000583
    vertex 552.6424657369565 123.65223603068674 16.152504701067585
    vertex 553.7354956652268 123.65223603068674 17.14043559777336
  endloop
endfacet
facet normal -2.213741743366134e-17 1.0 6.892411205665242e-16
  outer loop
    vertex 555.7246123746063 123.65223603068678 17.000000000000583
    vertex 553.7354956652268 123.65223603068674 17.14043559777336
    vertex 562.7246123746064 123.65223603068678 17.000000000000682
  endloop
endfacet
facet normal -2.213741743366134e-17 1.0 6.892411205665242e-16
  outer loop
    vertex 566.7246123746064 123.65223603068678 0.0
    vertex 562.7246123746064 123.65223603068678 13.50000000000233
    vertex 566.7246123746064 123.65223603068674 15.000000000000133
  endloop
endfacet
facet normal -2.213741743366134e-17 1.0 6.892411205665242e-16
  outer loop
    vertex 562.7246123746064 123.65223603068678 13.50000000000233
    vertex 566.7246123746064 123.65223603068678 0.0
    vertex 555.7246123746063 123.65223603068678 13.500000000000737
  endloop
endfacet
facet normal -2.213741743366134e-17 1.0 6.892411205665242e-16
  outer loop
    vertex 566.7246123746064 123.65223603068674 15.000000000000133
    vertex 562.7246123746064 123.65223603068678 13.50000000000233
    vertex 562.7246123746064 123.65223603068678 17.000000000000682
  endloop
endfacet
facet normal -2.213741743366134e-17 1.0 6.892411205665242e-16
  outer loop
    vertex 566.7246123746064 123.65223603068674 15.000000000000133
    vertex 562.7246123746064 123.65223603068678 17.000000000000682
    vertex 565.8067590122562 123.65223603068674 16.15250470106767
  endloop
endfacet
facet normal -2.213741743366134e-17 1.0 6.892411205665242e-16
  outer loop
    vertex 565.8067590122562 123.65223603068674 16.15250470106767
    vertex 562.7246123746064 123.65223603068678 17.000000000000682
    vertex 564.7137290839859 123.65223603068674 17.140435597773443
  endloop
endfacet
facet normal -2.213741743366134e-17 1.0 6.892411205665242e-16
  outer loop
    vertex 564.7137290839859 123.65223603068674 17.140435597773443
    vertex 562.7246123746064 123.65223603068678 17.000000000000682
    vertex 553.7354956652268 123.65223603068674 17.14043559777336
  endloop
endfacet
facet normal -2.213741743366134e-17 1.0 6.892411205665242e-16
  outer loop
    vertex 564.7137290839859 123.65223603068674 17.140435597773443
    vertex 553.7354956652268 123.65223603068674 17.14043559777336
    vertex 554.9746123746064 123.65223603068674 17.937499999999936
  endloop
endfacet
facet normal -2.213741743366134e-17 1.0 6.892411205665242e-16
  outer loop
    vertex 564.7137290839859 123.65223603068674 17.140435597773443
    vertex 554.9746123746064 123.65223603068674 17.937499999999936
    vertex 563.4746123746064 123.65223603068674 17.93750000000001
  endloop
endfacet
facet normal -2.213741743366134e-17 1.0 6.892411205665242e-16
  outer loop
    vertex 563.4746123746064 123.65223603068674 17.93750000000001
    vertex 554.9746123746064 123.65223603068674 17.937499999999936
    vertex 556.3268381418884 123.65223603068674 18.522484918659448
  endloop
endfacet
facet normal -2.213741743366134e-17 1.0 6.892411205665242e-16
  outer loop
    vertex 563.4746123746064 123.65223603068674 17.93750000000001
    vertex 556.3268381418884 123.65223603068674 18.522484918659448
    vertex 562.1223866073244 123.65223603068674 18.522484918659526
  endloop
endfacet
facet normal -2.213741743366134e-17 1.0 6.892411205665242e-16
  outer loop
    vertex 562.1223866073244 123.65223603068674 18.522484918659526
    vertex 556.3268381418884 123.65223603068674 18.522484918659448
    vertex 557.7561849711649 123.65223603068674 18.87982162597856
  endloop
endfacet
facet normal -2.213741743366134e-17 1.0 6.892411205665242e-16
  outer loop
    vertex 562.1223866073244 123.65223603068674 18.522484918659526
    vertex 557.7561849711649 123.65223603068674 18.87982162597856
    vertex 560.6930397780479 123.65223603068674 18.879821625978632
  endloop
endfacet
facet normal -2.213741743366134e-17 1.0 6.892411205665242e-16
  outer loop
    vertex 560.6930397780479 123.65223603068674 18.879821625978632
    vertex 557.7561849711649 123.65223603068674 18.87982162597856
    vertex 559.2246123746064 123.65223603068674 18.99999999999996
  endloop
endfacet
facet normal -2.2761158037707886e-13 0.0 1.0
  outer loop
    vertex 562.7246123746064 121.6522360306868 13.50000000000233
    vertex 555.7246123746063 123.65223603068678 13.500000000000737
    vertex 555.7246123746063 121.6522360306868 13.500000000000737
  endloop
endfacet
facet normal -2.2761158037707886e-13 0.0 1.0
  outer loop
    vertex 555.7246123746063 123.65223603068678 13.500000000000737
    vertex 562.7246123746064 121.6522360306868 13.50000000000233
    vertex 562.7246123746064 123.65223603068678 13.50000000000233
  endloop
endfacet
facet normal 1.0 1.4099832412738807e-15 1.4099832412742972e-15
  outer loop
    vertex 557.2246123746064 121.6522360306868 15.000000000001078
    vertex 557.2246123746064 109.65223603068672 17.000000000000227
    vertex 557.2246123746064 109.65223603068672 15.000000000000167
  endloop
endfacet
facet normal 1.0 1.4099832412738807e-15 1.4099832412742972e-15
  outer loop
    vertex 557.2246123746064 109.65223603068672 17.000000000000227
    vertex 557.2246123746064 121.6522360306868 15.000000000001078
    vertex 557.2246123746064 121.6522360306868 17.000000000000583
  endloop
endfacet
facet normal -1.0 -1.6114094185985667e-15 -2.819966482548775e-15
  outer loop
    vertex 561.2246123746063 121.6522360306868 17.000000000000675
    vertex 561.2246123746064 109.65223603068672 15.000000000000172
    vertex 561.2246123746064 109.65223603068672 17.000000000000238
  endloop
endfacet
facet normal -1.0 -1.6114094185985667e-15 -2.819966482548775e-15
  outer loop
    vertex 561.2246123746064 109.65223603068672 15.000000000000172
    vertex 561.2246123746063 121.6522360306868 17.000000000000675
    vertex 561.2246123746063 121.6522360306868 15.00000000000199
  endloop
endfacet
facet normal 1.0 7.296948310636065e-16 -4.161963110510882e-16
  outer loop
    vertex 566.7246123746064 123.65223603068678 0.0
    vertex 566.7246123746064 106.15223603068675 15.000000000000181
    vertex 566.7246123746064 106.15223603068675 5.700162564181752e-15
  endloop
endfacet
facet normal 1.0 7.296948310636065e-16 -4.161963110510882e-16
  outer loop
    vertex 566.7246123746064 106.15223603068675 15.000000000000181
    vertex 566.7246123746064 123.65223603068678 0.0
    vertex 566.7246123746064 109.65223603068672 15.000000000000181
  endloop
endfacet
facet normal 1.0 7.296948310636065e-16 -4.161963110510882e-16
  outer loop
    vertex 566.7246123746064 109.65223603068672 15.000000000000181
    vertex 566.7246123746064 123.65223603068678 0.0
    vertex 566.7246123746064 123.65223603068674 15.000000000000133
  endloop
endfacet
facet normal 3.9546940313022276e-15 -1.0 -3.8066695282450315e-30
  outer loop
    vertex 566.7246123746064 106.15223603068675 15.000000000000181
    vertex 562.2246123746064 106.15223603068671 8.436965377457242e-14
    vertex 566.7246123746064 106.15223603068675 5.700162564181752e-15
  endloop
endfacet
facet normal 3.9546940313022276e-15 -1.0 -3.8066695282450315e-30
  outer loop
    vertex 562.2246123746064 106.15223603068671 8.436965377457242e-14
    vertex 566.7246123746064 106.15223603068675 15.000000000000181
    vertex 562.2246123746064 106.15223603068671 15.000000000000012
  endloop
endfacet
facet normal -1.9773470156511158e-15 -1.0 7.51991062012763e-16
  outer loop
    vertex 556.4746123746063 106.15223603068671 -1.0423730892228804e-12
    vertex 554.4746123746062 106.15223603068665 3.999999999998138
    vertex 554.4746123746063 106.15223603068671 -1.2147317796976702e-12
  endloop
endfacet
facet normal -1.9773470156511158e-15 -1.0 7.51991062012763e-16
  outer loop
    vertex 554.4746123746062 106.15223603068665 3.999999999998138
    vertex 556.4746123746063 106.15223603068671 -1.0423730892228804e-12
    vertex 556.4746123746062 106.15223603068665 3.999999999998311
  endloop
endfacet
facet normal -1.9773470156511158e-15 -1.0 7.51991062012763e-16
  outer loop
    vertex 554.4746123746062 106.15223603068665 3.999999999998138
    vertex 556.4746123746062 106.15223603068665 3.999999999998311
    vertex 552.9746123746062 106.15223603068665 3.999999999998589
  endloop
endfacet
facet normal -1.9773470156511158e-15 -1.0 7.51991062012763e-16
  outer loop
    vertex 552.9746123746062 106.15223603068665 3.999999999998589
    vertex 556.4746123746062 106.15223603068665 3.999999999998311
    vertex 557.9746123746061 106.15223603068665 3.9999999999989106
  endloop
endfacet
facet normal -1.9773470156511158e-15 -1.0 7.51991062012763e-16
  outer loop
    vertex 559.7246123746063 106.15223603068671 7.177909958647455e-14
    vertex 557.9746123746061 106.15223603068665 3.9999999999989106
    vertex 557.9746123746064 106.15223603068671 -4.423904450950595e-13
  endloop
endfacet
facet normal -1.9773470156511158e-15 -1.0 7.51991062012763e-16
  outer loop
    vertex 557.9746123746061 106.15223603068665 3.9999999999989106
    vertex 559.7246123746063 106.15223603068671 7.177909958647455e-14
    vertex 559.7246123746063 106.15223603068671 15.000000000000007
  endloop
endfacet
facet normal -1.9773470156511158e-15 -1.0 7.51991062012763e-16
  outer loop
    vertex 552.9746123746062 106.15223603068665 3.999999999998589
    vertex 551.7246123746063 106.15223603068671 5.1831687090477995e-15
    vertex 552.9746123746063 106.15223603068671 -7.649326131221461e-13
  endloop
endfacet
facet normal -1.9773470156511158e-15 -1.0 7.51991062012763e-16
  outer loop
    vertex 551.7246123746063 106.15223603068671 5.1831687090477995e-15
    vertex 552.9746123746062 106.15223603068665 3.999999999998589
    vertex 551.7246123746063 106.15223603068671 1.4698547585726693
  endloop
endfacet
facet normal -1.9773470156511158e-15 -1.0 7.51991062012763e-16
  outer loop
    vertex 551.7246123746063 106.15223603068671 1.4698547585726693
    vertex 552.9746123746062 106.15223603068665 3.999999999998589
    vertex 551.7246123746063 106.15223603068671 2.8698547585726693
  endloop
endfacet
facet normal -1.9773470156511158e-15 -1.0 7.51991062012763e-16
  outer loop
    vertex 551.7246123746063 106.15223603068671 2.8698547585726693
    vertex 552.9746123746062 106.15223603068665 3.999999999998589
    vertex 551.7246123746063 106.15223603068671 15.000000000000158
  endloop
endfacet
facet normal -1.9773470156511158e-15 -1.0 7.51991062012763e-16
  outer loop
    vertex 551.7246123746063 106.15223603068671 15.000000000000158
    vertex 552.9746123746062 106.15223603068665 3.999999999998589
    vertex 557.9746123746061 106.15223603068665 3.9999999999989106
  endloop
endfacet
facet normal -1.9773470156511158e-15 -1.0 7.51991062012763e-16
  outer loop
    vertex 551.7246123746063 106.15223603068671 15.000000000000158
    vertex 557.9746123746061 106.15223603068665 3.9999999999989106
    vertex 559.7246123746063 106.15223603068671 15.000000000000007
  endloop
endfacet
facet normal 2.8985630078928035e-14 -5.832387592443422e-15 -1.0
  outer loop
    vertex 551.7246123746063 123.65223603068678 0.0
    vertex 552.9746123746063 115.15223603068674 -7.649326131221461e-13
    vertex 551.7246123746063 106.15223603068671 5.1831687090477995e-15
  endloop
endfacet
facet normal 2.8985630078928035e-14 -5.832387592443422e-15 -1.0
  outer loop
    vertex 552.9746123746063 115.15223603068674 -7.649326131221461e-13
    vertex 551.7246123746063 123.65223603068678 0.0
    vertex 566.7246123746064 123.65223603068678 0.0
  endloop
endfacet
facet normal 2.8985630078928035e-14 -5.832387592443422e-15 -1.0
  outer loop
    vertex 552.9746123746063 115.15223603068674 -7.649326131221461e-13
    vertex 566.7246123746064 123.65223603068678 0.0
    vertex 557.9746123746064 115.15223603068674 -7.44178739894038e-13
  endloop
endfacet
facet normal 2.8985630078928035e-14 -5.832387592443422e-15 -1.0
  outer loop
    vertex 557.9746123746064 115.15223603068674 -7.44178739894038e-13
    vertex 566.7246123746064 123.65223603068678 0.0
    vertex 557.9746123746064 106.15223603068671 -4.423904450950595e-13
  endloop
endfacet
facet normal 2.8985630078928035e-14 -5.832387592443422e-15 -1.0
  outer loop
    vertex 557.9746123746064 106.15223603068671 -4.423904450950595e-13
    vertex 566.7246123746064 123.65223603068678 0.0
    vertex 559.7246123746063 106.15223603068671 7.177909958647455e-14
  endloop
endfacet
facet normal 2.8985630078928035e-14 -5.832387592443422e-15 -1.0
  outer loop
    vertex 559.7246123746063 106.15223603068671 7.177909958647455e-14
    vertex 566.7246123746064 123.65223603068678 0.0
    vertex 562.2246123746064 106.15223603068671 8.436965377457242e-14
  endloop
endfacet
facet normal 2.8985630078928035e-14 -5.832387592443422e-15 -1.0
  outer loop
    vertex 559.7246123746063 106.15223603068671 7.177909958647455e-14
    vertex 562.2246123746064 106.15223603068671 8.436965377457242e-14
    vertex 559.7246123746064 89.65223603068671 4.556668261373013e-15
  endloop
endfacet
facet normal 2.8985630078928035e-14 -5.832387592443422e-15 -1.0
  outer loop
    vertex 562.2246123746064 106.15223603068671 8.436965377457242e-14
    vertex 566.7246123746064 123.65223603068678 0.0
    vertex 566.7246123746064 106.15223603068675 5.700162564181752e-15
  endloop
endfacet
facet normal 2.8985630078928035e-14 -5.832387592443422e-15 -1.0
  outer loop
    vertex 562.2246123746065 89.65223603068671 7.302955824529487e-14
    vertex 559.7246123746064 89.65223603068671 4.556668261373013e-15
    vertex 562.2246123746064 106.15223603068671 8.436965377457242e-14
  endloop
endfacet
facet normal 2.8985630078928035e-14 -5.832387592443422e-15 -1.0
  outer loop
    vertex 552.9746123746063 106.15223603068671 -7.649326131221461e-13
    vertex 551.7246123746063 106.15223603068671 5.1831687090477995e-15
    vertex 552.9746123746063 115.15223603068674 -7.649326131221461e-13
  endloop
endfacet
facet normal -1.0 -2.058348630908725e-15 -5.703211203446882e-15
  outer loop
    vertex 559.7246123746063 96.13786988771444 14.800629915015884
    vertex 559.7246123746064 96.6067547086242 7.914110472164035
    vertex 559.7246123746064 96.55223603068671 7.500000000000006
  endloop
endfacet
facet normal -1.0 -2.058348630908725e-15 -5.703211203446882e-15
  outer loop
    vertex 559.7246123746064 96.6067547086242 7.914110472164035
    vertex 559.7246123746063 96.13786988771444 14.800629915015884
    vertex 559.7246123746063 98.15223603068672 15.000000000000018
  endloop
endfacet
facet normal -1.0 -2.058348630908725e-15 -5.703211203446882e-15
  outer loop
    vertex 559.7246123746064 96.6067547086242 7.914110472164035
    vertex 559.7246123746063 98.15223603068672 15.000000000000018
    vertex 559.7246123746064 96.76659538463159 8.300000000000002
  endloop
endfacet
facet normal -1.0 -2.058348630908725e-15 -5.703211203446882e-15
  outer loop
    vertex 559.7246123746064 96.76659538463159 8.300000000000002
    vertex 559.7246123746063 98.15223603068672 15.000000000000018
    vertex 559.7246123746064 97.02086518078825 8.631370849898476
  endloop
endfacet
facet normal -1.0 -2.058348630908725e-15 -5.703211203446882e-15
  outer loop
    vertex 559.7246123746064 97.02086518078825 8.631370849898476
    vertex 559.7246123746063 98.15223603068672 15.000000000000018
    vertex 559.7246123746064 97.35223603068673 8.885640646055103
  endloop
endfacet
facet normal -1.0 -2.058348630908725e-15 -5.703211203446882e-15
  outer loop
    vertex 559.7246123746064 97.35223603068673 8.885640646055103
    vertex 559.7246123746063 98.15223603068672 15.000000000000018
    vertex 559.7246123746063 97.73812555852267 9.04548132206255
  endloop
endfacet
facet normal -1.0 -2.058348630908725e-15 -5.703211203446882e-15
  outer loop
    vertex 559.7246123746063 97.73812555852267 9.04548132206255
    vertex 559.7246123746063 98.15223603068672 15.000000000000018
    vertex 559.7246123746063 98.15223603068672 9.10000000000004
  endloop
endfacet
facet normal -1.0 -2.058348630908725e-15 -5.703211203446882e-15
  outer loop
    vertex 559.7246123746063 98.15223603068672 9.10000000000004
    vertex 559.7246123746063 98.15223603068672 15.000000000000018
    vertex 559.7246123746064 98.56634650285078 9.045481322062548
  endloop
endfacet
facet normal -1.0 -2.058348630908725e-15 -5.703211203446882e-15
  outer loop
    vertex 559.7246123746064 98.56634650285078 9.045481322062548
    vertex 559.7246123746063 98.15223603068672 15.000000000000018
    vertex 559.7246123746063 106.15223603068671 15.000000000000007
  endloop
endfacet
facet normal -1.0 -2.058348630908725e-15 -5.703211203446882e-15
  outer loop
    vertex 559.7246123746064 98.56634650285078 9.045481322062548
    vertex 559.7246123746063 106.15223603068671 15.000000000000007
    vertex 559.7246123746064 98.95223603068672 8.885640646055148
  endloop
endfacet
facet normal -1.0 -2.058348630908725e-15 -5.703211203446882e-15
  outer loop
    vertex 559.7246123746064 98.95223603068672 8.885640646055148
    vertex 559.7246123746063 106.15223603068671 15.000000000000007
    vertex 559.7246123746063 99.28360688058518 8.631370849898524
  endloop
endfacet
facet normal -1.0 -2.058348630908725e-15 -5.703211203446882e-15
  outer loop
    vertex 559.7246123746063 99.28360688058518 8.631370849898524
    vertex 559.7246123746063 106.15223603068671 15.000000000000007
    vertex 559.7246123746064 99.5378766767418 8.30000000000004
  endloop
endfacet
facet normal -1.0 -2.058348630908725e-15 -5.703211203446882e-15
  outer loop
    vertex 559.7246123746064 99.5378766767418 8.30000000000004
    vertex 559.7246123746063 106.15223603068671 15.000000000000007
    vertex 559.7246123746063 99.69771735274924 7.914110472164075
  endloop
endfacet
facet normal -1.0 -2.058348630908725e-15 -5.703211203446882e-15
  outer loop
    vertex 559.7246123746063 99.69771735274924 7.914110472164075
    vertex 559.7246123746063 106.15223603068671 15.000000000000007
    vertex 559.7246123746063 99.75223603068672 7.500000000000041
  endloop
endfacet
facet normal -1.0 -2.058348630908725e-15 -5.703211203446882e-15
  outer loop
    vertex 559.7246123746063 90.15223603068672 7.499999999999999
    vertex 559.7246123746063 106.15223603068671 7.177909958647455e-14
    vertex 559.7246123746064 89.65223603068671 4.556668261373013e-15
  endloop
endfacet
facet normal -1.0 -2.058348630908725e-15 -5.703211203446882e-15
  outer loop
    vertex 559.7246123746063 106.15223603068671 7.177909958647455e-14
    vertex 559.7246123746063 90.15223603068672 7.499999999999999
    vertex 559.7246123746063 90.48101563822206 9.4973290561168
  endloop
endfacet
facet normal -1.0 -2.058348630908725e-15 -5.703211203446882e-15
  outer loop
    vertex 559.7246123746063 106.15223603068671 7.177909958647455e-14
    vertex 559.7246123746063 90.48101563822206 9.4973290561168
    vertex 559.7246123746063 97.35223603068673 6.114359353944897
  endloop
endfacet
facet normal -1.0 -2.058348630908725e-15 -5.703211203446882e-15
  outer loop
    vertex 559.7246123746063 97.35223603068673 6.114359353944897
    vertex 559.7246123746063 90.48101563822206 9.4973290561168
    vertex 559.7246123746064 97.02086518078825 6.368629150101518
  endloop
endfacet
facet normal -1.0 -2.058348630908725e-15 -5.703211203446882e-15
  outer loop
    vertex 559.7246123746064 97.02086518078825 6.368629150101518
    vertex 559.7246123746063 90.48101563822206 9.4973290561168
    vertex 559.7246123746063 91.31553915135736 11.341506350946101
  endloop
endfacet
facet normal -1.0 -2.058348630908725e-15 -5.703211203446882e-15
  outer loop
    vertex 559.7246123746064 97.02086518078825 6.368629150101518
    vertex 559.7246123746063 91.31553915135736 11.341506350946101
    vertex 559.7246123746063 96.76659538463159 6.700000000000002
  endloop
endfacet
facet normal -1.0 -2.058348630908725e-15 -5.703211203446882e-15
  outer loop
    vertex 559.7246123746063 96.76659538463159 6.700000000000002
    vertex 559.7246123746063 91.31553915135736 11.341506350946101
    vertex 559.7246123746063 92.59893517178763 12.906854249492367
  endloop
endfacet
facet normal -1.0 -2.058348630908725e-15 -5.703211203446882e-15
  outer loop
    vertex 559.7246123746063 96.76659538463159 6.700000000000002
    vertex 559.7246123746063 92.59893517178763 12.906854249492367
    vertex 559.7246123746064 96.6067547086242 7.085889527835966
  endloop
endfacet
facet normal -1.0 -2.058348630908725e-15 -5.703211203446882e-15
  outer loop
    vertex 559.7246123746064 96.6067547086242 7.085889527835966
    vertex 559.7246123746063 92.59893517178763 12.906854249492367
    vertex 559.7246123746063 94.24374238163284 14.086696879329383
  endloop
endfacet
facet normal -1.0 -2.058348630908725e-15 -5.703211203446882e-15
  outer loop
    vertex 559.7246123746064 96.6067547086242 7.085889527835966
    vertex 559.7246123746063 94.24374238163284 14.086696879329383
    vertex 559.7246123746064 96.55223603068671 7.500000000000006
  endloop
endfacet
facet normal -1.0 -2.058348630908725e-15 -5.703211203446882e-15
  outer loop
    vertex 559.7246123746064 96.55223603068671 7.500000000000006
    vertex 559.7246123746063 94.24374238163284 14.086696879329383
    vertex 559.7246123746063 96.13786988771444 14.800629915015884
  endloop
endfacet
facet normal -1.0 -2.058348630908725e-15 -5.703211203446882e-15
  outer loop
    vertex 559.7246123746063 106.15223603068671 7.177909958647455e-14
    vertex 559.7246123746063 97.35223603068673 6.114359353944897
    vertex 559.7246123746063 97.73812555852267 5.95451867793753
  endloop
endfacet
facet normal -1.0 -2.058348630908725e-15 -5.703211203446882e-15
  outer loop
    vertex 559.7246123746063 106.15223603068671 7.177909958647455e-14
    vertex 559.7246123746063 97.73812555852267 5.95451867793753
    vertex 559.7246123746063 98.15223603068672 5.90000000000004
  endloop
endfacet
facet normal -1.0 -2.058348630908725e-15 -5.703211203446882e-15
  outer loop
    vertex 559.7246123746063 106.15223603068671 7.177909958647455e-14
    vertex 559.7246123746063 98.15223603068672 5.90000000000004
    vertex 559.7246123746063 98.56634650285072 5.9545186779375285
  endloop
endfacet
facet normal -1.0 -2.058348630908725e-15 -5.703211203446882e-15
  outer loop
    vertex 559.7246123746063 106.15223603068671 7.177909958647455e-14
    vertex 559.7246123746063 98.56634650285072 5.9545186779375285
    vertex 559.7246123746063 98.95223603068672 6.114359353944939
  endloop
endfacet
facet normal -1.0 -2.058348630908725e-15 -5.703211203446882e-15
  outer loop
    vertex 559.7246123746063 106.15223603068671 7.177909958647455e-14
    vertex 559.7246123746063 98.95223603068672 6.114359353944939
    vertex 559.7246123746063 99.28360688058518 6.368629150101562
  endloop
endfacet
facet normal -1.0 -2.058348630908725e-15 -5.703211203446882e-15
  outer loop
    vertex 559.7246123746063 106.15223603068671 7.177909958647455e-14
    vertex 559.7246123746063 99.28360688058518 6.368629150101562
    vertex 559.7246123746063 99.5378766767418 6.700000000000043
  endloop
endfacet
facet normal -1.0 -2.058348630908725e-15 -5.703211203446882e-15
  outer loop
    vertex 559.7246123746063 106.15223603068671 7.177909958647455e-14
    vertex 559.7246123746063 99.5378766767418 6.700000000000043
    vertex 559.7246123746063 99.69771735274924 7.085889527836007
  endloop
endfacet
facet normal -1.0 -2.058348630908725e-15 -5.703211203446882e-15
  outer loop
    vertex 559.7246123746063 106.15223603068671 7.177909958647455e-14
    vertex 559.7246123746063 99.69771735274924 7.085889527836007
    vertex 559.7246123746063 99.75223603068672 7.500000000000041
  endloop
endfacet
facet normal -1.0 -2.058348630908725e-15 -5.703211203446882e-15
  outer loop
    vertex 559.7246123746063 106.15223603068671 7.177909958647455e-14
    vertex 559.7246123746063 99.75223603068672 7.500000000000041
    vertex 559.7246123746063 106.15223603068671 15.000000000000007
  endloop
endfacet
facet normal -5.4751575637630425e-15 -0.997785157856609 0.06651901052377415
  outer loop
    vertex 562.2246123746065 89.65223603068671 7.302955824529487e-14
    vertex 559.7246123746063 90.15223603068672 7.499999999999999
    vertex 559.7246123746064 89.65223603068671 4.556668261373013e-15
  endloop
endfacet
facet normal -5.4751575637630425e-15 -0.997785157856609 0.06651901052377415
  outer loop
    vertex 559.7246123746063 90.15223603068672 7.499999999999999
    vertex 562.2246123746065 89.65223603068671 7.302955824529487e-14
    vertex 562.2246123746065 90.1522360306867 7.5000000000000036
  endloop
endfacet
facet normal 1.0 5.587451927225329e-15 -1.8126513658706667e-15
  outer loop
    vertex 562.2246123746064 106.15223603068671 8.436965377457242e-14
    vertex 562.2246123746065 90.1522360306867 7.5000000000000036
    vertex 562.2246123746065 89.65223603068671 7.302955824529487e-14
  endloop
endfacet
facet normal 1.0 5.587451927225329e-15 -1.8126513658706667e-15
  outer loop
    vertex 562.2246123746065 90.1522360306867 7.5000000000000036
    vertex 562.2246123746064 106.15223603068671 8.436965377457242e-14
    vertex 562.2246123746065 90.48101563822205 9.497329056116794
  endloop
endfacet
facet normal 1.0 5.587451927225329e-15 -1.8126513658706667e-15
  outer loop
    vertex 562.2246123746065 90.48101563822205 9.497329056116794
    vertex 562.2246123746064 106.15223603068671 8.436965377457242e-14
    vertex 562.2246123746065 97.35223603068673 6.1143593539448675
  endloop
endfacet
facet normal 1.0 5.587451927225329e-15 -1.8126513658706667e-15
  outer loop
    vertex 562.2246123746065 90.48101563822205 9.497329056116794
    vertex 562.2246123746065 97.35223603068673 6.1143593539448675
    vertex 562.2246123746065 97.02086518078825 6.368629150101498
  endloop
endfacet
facet normal 1.0 5.587451927225329e-15 -1.8126513658706667e-15
  outer loop
    vertex 562.2246123746065 90.48101563822205 9.497329056116794
    vertex 562.2246123746065 97.02086518078825 6.368629150101498
    vertex 562.2246123746065 91.31553915135731 11.341506350946094
  endloop
endfacet
facet normal 1.0 5.587451927225329e-15 -1.8126513658706667e-15
  outer loop
    vertex 562.2246123746065 91.31553915135731 11.341506350946094
    vertex 562.2246123746065 97.02086518078825 6.368629150101498
    vertex 562.2246123746065 96.76659538463163 6.699999999999982
  endloop
endfacet
facet normal 1.0 5.587451927225329e-15 -1.8126513658706667e-15
  outer loop
    vertex 562.2246123746065 91.31553915135731 11.341506350946094
    vertex 562.2246123746065 96.76659538463163 6.699999999999982
    vertex 562.2246123746065 92.59893517178762 12.906854249492362
  endloop
endfacet
facet normal 1.0 5.587451927225329e-15 -1.8126513658706667e-15
  outer loop
    vertex 562.2246123746065 92.59893517178762 12.906854249492362
    vertex 562.2246123746065 96.76659538463163 6.699999999999982
    vertex 562.2246123746065 96.6067547086242 7.0858895278359455
  endloop
endfacet
facet normal 1.0 5.587451927225329e-15 -1.8126513658706667e-15
  outer loop
    vertex 562.2246123746065 92.59893517178762 12.906854249492362
    vertex 562.2246123746065 96.6067547086242 7.0858895278359455
    vertex 562.2246123746065 94.24374238163281 14.086696879329377
  endloop
endfacet
facet normal 1.0 5.587451927225329e-15 -1.8126513658706667e-15
  outer loop
    vertex 562.2246123746065 94.24374238163281 14.086696879329377
    vertex 562.2246123746065 96.6067547086242 7.0858895278359455
    vertex 562.2246123746065 96.55223603068671 7.499999999999987
  endloop
endfacet
facet normal 1.0 5.587451927225329e-15 -1.8126513658706667e-15
  outer loop
    vertex 562.2246123746065 94.24374238163281 14.086696879329377
    vertex 562.2246123746065 96.55223603068671 7.499999999999987
    vertex 562.2246123746065 96.13786988771442 14.800629915015884
  endloop
endfacet
facet normal 1.0 5.587451927225329e-15 -1.8126513658706667e-15
  outer loop
    vertex 562.2246123746065 97.35223603068673 6.1143593539448675
    vertex 562.2246123746064 106.15223603068671 8.436965377457242e-14
    vertex 562.2246123746065 97.73812555852271 5.954518677937501
  endloop
endfacet
facet normal 1.0 5.587451927225329e-15 -1.8126513658706667e-15
  outer loop
    vertex 562.2246123746065 97.73812555852271 5.954518677937501
    vertex 562.2246123746064 106.15223603068671 8.436965377457242e-14
    vertex 562.2246123746065 98.15223603068672 5.90000000000001
  endloop
endfacet
facet normal 1.0 5.587451927225329e-15 -1.8126513658706667e-15
  outer loop
    vertex 562.2246123746065 98.15223603068672 5.90000000000001
    vertex 562.2246123746064 106.15223603068671 8.436965377457242e-14
    vertex 562.2246123746065 98.56634650285078 5.954518677937499
  endloop
endfacet
facet normal 1.0 5.587451927225329e-15 -1.8126513658706667e-15
  outer loop
    vertex 562.2246123746065 98.56634650285078 5.954518677937499
    vertex 562.2246123746064 106.15223603068671 8.436965377457242e-14
    vertex 562.2246123746065 98.95223603068672 6.114359353944908
  endloop
endfacet
facet normal 1.0 5.587451927225329e-15 -1.8126513658706667e-15
  outer loop
    vertex 562.2246123746065 98.95223603068672 6.114359353944908
    vertex 562.2246123746064 106.15223603068671 8.436965377457242e-14
    vertex 562.2246123746065 99.28360688058518 6.368629150101542
  endloop
endfacet
facet normal 1.0 5.587451927225329e-15 -1.8126513658706667e-15
  outer loop
    vertex 562.2246123746065 99.28360688058518 6.368629150101542
    vertex 562.2246123746064 106.15223603068671 8.436965377457242e-14
    vertex 562.2246123746065 99.53787667674185 6.700000000000023
  endloop
endfacet
facet normal 1.0 5.587451927225329e-15 -1.8126513658706667e-15
  outer loop
    vertex 562.2246123746065 99.53787667674185 6.700000000000023
    vertex 562.2246123746064 106.15223603068671 8.436965377457242e-14
    vertex 562.2246123746065 99.69771735274924 7.085889527835986
  endloop
endfacet
facet normal 1.0 5.587451927225329e-15 -1.8126513658706667e-15
  outer loop
    vertex 562.2246123746065 99.69771735274924 7.085889527835986
    vertex 562.2246123746064 106.15223603068671 8.436965377457242e-14
    vertex 562.2246123746065 99.75223603068672 7.500000000000021
  endloop
endfacet
facet normal 1.0 5.587451927225329e-15 -1.8126513658706667e-15
  outer loop
    vertex 562.2246123746065 96.13786988771442 14.800629915015884
    vertex 562.2246123746065 96.60675470862424 7.914110472164015
    vertex 562.2246123746065 98.15223603068671 15.000000000000018
  endloop
endfacet
facet normal 1.0 5.587451927225329e-15 -1.8126513658706667e-15
  outer loop
    vertex 562.2246123746065 96.60675470862424 7.914110472164015
    vertex 562.2246123746065 96.13786988771442 14.800629915015884
    vertex 562.2246123746065 96.55223603068671 7.499999999999987
  endloop
endfacet
facet normal 1.0 5.587451927225329e-15 -1.8126513658706667e-15
  outer loop
    vertex 562.2246123746065 98.15223603068671 15.000000000000018
    vertex 562.2246123746065 96.60675470862424 7.914110472164015
    vertex 562.2246123746065 96.76659538463163 8.299999999999981
  endloop
endfacet
facet normal 1.0 5.587451927225329e-15 -1.8126513658706667e-15
  outer loop
    vertex 562.2246123746065 98.15223603068671 15.000000000000018
    vertex 562.2246123746065 96.76659538463163 8.299999999999981
    vertex 562.2246123746065 97.02086518078825 8.631370849898456
  endloop
endfacet
facet normal 1.0 5.587451927225329e-15 -1.8126513658706667e-15
  outer loop
    vertex 562.2246123746065 98.15223603068671 15.000000000000018
    vertex 562.2246123746065 97.02086518078825 8.631370849898456
    vertex 562.2246123746065 97.35223603068673 8.885640646055084
  endloop
endfacet
facet normal 1.0 5.587451927225329e-15 -1.8126513658706667e-15
  outer loop
    vertex 562.2246123746065 98.15223603068671 15.000000000000018
    vertex 562.2246123746065 97.35223603068673 8.885640646055084
    vertex 562.2246123746065 97.73812555852271 9.04548132206253
  endloop
endfacet
facet normal 1.0 5.587451927225329e-15 -1.8126513658706667e-15
  outer loop
    vertex 562.2246123746065 98.15223603068671 15.000000000000018
    vertex 562.2246123746065 97.73812555852271 9.04548132206253
    vertex 562.2246123746065 98.15223603068672 9.10000000000002
  endloop
endfacet
facet normal 1.0 5.587451927225329e-15 -1.8126513658706667e-15
  outer loop
    vertex 562.2246123746065 98.15223603068671 15.000000000000018
    vertex 562.2246123746065 98.15223603068672 9.10000000000002
    vertex 562.2246123746064 106.15223603068671 15.000000000000012
  endloop
endfacet
facet normal 1.0 5.587451927225329e-15 -1.8126513658706667e-15
  outer loop
    vertex 562.2246123746064 106.15223603068671 15.000000000000012
    vertex 562.2246123746065 98.15223603068672 9.10000000000002
    vertex 562.2246123746065 98.56634650285078 9.045481322062528
  endloop
endfacet
facet normal 1.0 5.587451927225329e-15 -1.8126513658706667e-15
  outer loop
    vertex 562.2246123746064 106.15223603068671 15.000000000000012
    vertex 562.2246123746065 98.56634650285078 9.045481322062528
    vertex 562.2246123746065 98.95223603068672 8.885640646055128
  endloop
endfacet
facet normal 1.0 5.587451927225329e-15 -1.8126513658706667e-15
  outer loop
    vertex 562.2246123746064 106.15223603068671 15.000000000000012
    vertex 562.2246123746065 98.95223603068672 8.885640646055128
    vertex 562.2246123746065 99.28360688058518 8.631370849898504
  endloop
endfacet
facet normal 1.0 5.587451927225329e-15 -1.8126513658706667e-15
  outer loop
    vertex 562.2246123746064 106.15223603068671 15.000000000000012
    vertex 562.2246123746065 99.28360688058518 8.631370849898504
    vertex 562.2246123746065 99.53787667674185 8.30000000000002
  endloop
endfacet
facet normal 1.0 5.587451927225329e-15 -1.8126513658706667e-15
  outer loop
    vertex 562.2246123746064 106.15223603068671 15.000000000000012
    vertex 562.2246123746065 99.53787667674185 8.30000000000002
    vertex 562.2246123746065 99.69771735274924 7.9141104721640545
  endloop
endfacet
facet normal 1.0 5.587451927225329e-15 -1.8126513658706667e-15
  outer loop
    vertex 562.2246123746064 106.15223603068671 15.000000000000012
    vertex 562.2246123746065 99.69771735274924 7.9141104721640545
    vertex 562.2246123746065 99.75223603068672 7.500000000000021
  endloop
endfacet
facet normal 1.0 5.587451927225329e-15 -1.8126513658706667e-15
  outer loop
    vertex 562.2246123746064 106.15223603068671 15.000000000000012
    vertex 562.2246123746065 99.75223603068672 7.500000000000021
    vertex 562.2246123746064 106.15223603068671 8.436965377457242e-14
  endloop
endfacet
facet normal -8.912435863601784e-16 -0.09849286825323654 0.9951377567468991
  outer loop
    vertex 562.2246123746065 96.13786988771442 14.800629915015884
    vertex 559.7246123746063 98.15223603068672 15.000000000000018
    vertex 559.7246123746063 96.13786988771444 14.800629915015884
  endloop
endfacet
facet normal -8.912435863601784e-16 -0.09849286825323654 0.9951377567468991
  outer loop
    vertex 559.7246123746063 98.15223603068672 15.000000000000018
    vertex 562.2246123746065 96.13786988771442 14.800629915015884
    vertex 562.2246123746065 98.15223603068671 15.000000000000018
  endloop
endfacet
facet normal -8.806235169337289e-15 -0.9867210900679063 0.16242379879562827
  outer loop
    vertex 562.2246123746065 90.1522360306867 7.5000000000000036
    vertex 559.7246123746063 90.48101563822206 9.4973290561168
    vertex 559.7246123746063 90.15223603068672 7.499999999999999
  endloop
endfacet
facet normal -8.806235169337289e-15 -0.9867210900679063 0.16242379879562827
  outer loop
    vertex 559.7246123746063 90.48101563822206 9.4973290561168
    vertex 562.2246123746065 90.1522360306867 7.5000000000000036
    vertex 562.2246123746065 90.48101563822205 9.497329056116794
  endloop
endfacet
facet normal -7.290606891589612e-15 -0.7733136310508663 0.6340236809701393
  outer loop
    vertex 562.2246123746065 92.59893517178762 12.906854249492362
    vertex 559.7246123746063 91.31553915135736 11.341506350946101
    vertex 562.2246123746065 91.31553915135731 11.341506350946094
  endloop
endfacet
facet normal -7.290606891589612e-15 -0.7733136310508663 0.6340236809701393
  outer loop
    vertex 559.7246123746063 91.31553915135736 11.341506350946101
    vertex 562.2246123746065 92.59893517178762 12.906854249492362
    vertex 559.7246123746063 92.59893517178763 12.906854249492367
  endloop
endfacet
facet normal -9.224961961989405e-15 -0.9110610117344778 0.4122715523745844
  outer loop
    vertex 562.2246123746065 91.31553915135731 11.341506350946094
    vertex 559.7246123746063 90.48101563822206 9.4973290561168
    vertex 562.2246123746065 90.48101563822205 9.497329056116794
  endloop
endfacet
facet normal -9.224961961989405e-15 -0.9110610117344778 0.4122715523745844
  outer loop
    vertex 559.7246123746063 90.48101563822206 9.4973290561168
    vertex 562.2246123746065 91.31553915135731 11.341506350946094
    vertex 559.7246123746063 91.31553915135736 11.341506350946101
  endloop
endfacet
facet normal -1.145866851520812e-14 -6.833495112063206e-14 1.0
  outer loop
    vertex 559.7246123746063 106.15223603068671 15.000000000000007
    vertex 551.7246123746063 109.65223603068672 15.000000000000158
    vertex 551.7246123746063 106.15223603068671 15.000000000000158
  endloop
endfacet
facet normal -1.145866851520812e-14 -6.833495112063206e-14 1.0
  outer loop
    vertex 551.7246123746063 109.65223603068672 15.000000000000158
    vertex 559.7246123746063 106.15223603068671 15.000000000000007
    vertex 557.2246123746064 109.65223603068672 15.000000000000167
  endloop
endfacet
facet normal -1.145866851520812e-14 -6.833495112063206e-14 1.0
  outer loop
    vertex 557.2246123746064 109.65223603068672 15.000000000000167
    vertex 559.7246123746063 106.15223603068671 15.000000000000007
    vertex 557.2246123746064 121.6522360306868 15.000000000001078
  endloop
endfacet
facet normal -1.145866851520812e-14 -6.833495112063206e-14 1.0
  outer loop
    vertex 557.2246123746064 121.6522360306868 15.000000000001078
    vertex 559.7246123746063 106.15223603068671 15.000000000000007
    vertex 561.2246123746063 121.6522360306868 15.00000000000199
  endloop
endfacet
facet normal -1.145866851520812e-14 -6.833495112063206e-14 1.0
  outer loop
    vertex 562.2246123746065 98.15223603068671 15.000000000000018
    vertex 559.7246123746063 106.15223603068671 15.000000000000007
    vertex 559.7246123746063 98.15223603068672 15.000000000000018
  endloop
endfacet
facet normal -1.145866851520812e-14 -6.833495112063206e-14 1.0
  outer loop
    vertex 559.7246123746063 106.15223603068671 15.000000000000007
    vertex 562.2246123746065 98.15223603068671 15.000000000000018
    vertex 561.2246123746064 109.65223603068672 15.000000000000172
  endloop
endfacet
facet normal -1.145866851520812e-14 -6.833495112063206e-14 1.0
  outer loop
    vertex 559.7246123746063 106.15223603068671 15.000000000000007
    vertex 561.2246123746064 109.65223603068672 15.000000000000172
    vertex 561.2246123746063 121.6522360306868 15.00000000000199
  endloop
endfacet
facet normal -1.145866851520812e-14 -6.833495112063206e-14 1.0
  outer loop
    vertex 561.2246123746064 109.65223603068672 15.000000000000172
    vertex 562.2246123746065 98.15223603068671 15.000000000000018
    vertex 562.2246123746064 106.15223603068671 15.000000000000012
  endloop
endfacet
facet normal -1.145866851520812e-14 -6.833495112063206e-14 1.0
  outer loop
    vertex 562.2246123746064 106.15223603068671 15.000000000000012
    vertex 566.7246123746064 109.65223603068672 15.000000000000181
    vertex 561.2246123746064 109.65223603068672 15.000000000000172
  endloop
endfacet
facet normal -1.145866851520812e-14 -6.833495112063206e-14 1.0
  outer loop
    vertex 566.7246123746064 109.65223603068672 15.000000000000181
    vertex 562.2246123746064 106.15223603068671 15.000000000000012
    vertex 566.7246123746064 106.15223603068675 15.000000000000181
  endloop
endfacet
facet normal -2.1221361748476182e-15 -0.35269740909776626 0.9357374298464944
  outer loop
    vertex 559.7246123746063 94.24374238163284 14.086696879329383
    vertex 562.2246123746065 96.13786988771442 14.800629915015884
    vertex 559.7246123746063 96.13786988771444 14.800629915015884
  endloop
endfacet
facet normal -2.1221361748476182e-15 -0.35269740909776626 0.9357374298464944
  outer loop
    vertex 562.2246123746065 96.13786988771442 14.800629915015884
    vertex 559.7246123746063 94.24374238163284 14.086696879329383
    vertex 562.2246123746065 94.24374238163281 14.086696879329377
  endloop
endfacet
facet normal -3.4259130858970334e-15 -0.5828662043723307 0.8125681434812668
  outer loop
    vertex 562.2246123746065 92.59893517178762 12.906854249492362
    vertex 559.7246123746063 94.24374238163284 14.086696879329383
    vertex 559.7246123746063 92.59893517178763 12.906854249492367
  endloop
endfacet
facet normal -3.4259130858970334e-15 -0.5828662043723307 0.8125681434812668
  outer loop
    vertex 559.7246123746063 94.24374238163284 14.086696879329383
    vertex 562.2246123746065 92.59893517178762 12.906854249492362
    vertex 562.2246123746065 94.24374238163281 14.086696879329377
  endloop
endfacet
endsolid robo_hand
