solid robo_hand_rotating_holes
facet normal -1.0 1.7353639892602133e-15 1.30497820926261e-29
  outer loop
    vertex 138.67041397799767 90.03830645431414 -8.050000000002614
    vertex 138.67041397799767 88.28830645431418 -10.550000000002383
    vertex 138.67041397799767 88.28830645431415 -8.050000000002614
  endloop
endfacet
facet normal -1.0 1.7353639892602133e-15 1.30497820926261e-29
  outer loop
    vertex 138.67041397799767 88.28830645431418 -10.550000000002383
    vertex 138.67041397799767 90.03830645431414 -8.050000000002614
    vertex 138.67041397799767 90.03830645431417 -10.550000000002383
  endloop
endfacet
facet normal 1.0 -1.7353639892602133e-15 0.0
  outer loop
    vertex 145.17041397799778 90.03830645431414 -10.550000000002383
    vertex 145.17041397799778 88.28830645431415 -8.050000000002614
    vertex 145.17041397799778 88.28830645431415 -10.550000000002383
  endloop
endfacet
facet normal 1.0 -1.7353639892602133e-15 0.0
  outer loop
    vertex 145.17041397799778 88.28830645431415 -8.050000000002614
    vertex 145.17041397799778 90.03830645431414 -10.550000000002383
    vertex 145.17041397799778 90.03830645431414 -8.050000000002614
  endloop
endfacet
facet normal 0.0 -3.759955310064153e-15 1.0
  outer loop
    vertex 145.17041397799778 88.28830645431415 -8.050000000002614
    vertex 138.67041397799767 90.03830645431414 -8.050000000002614
    vertex 138.67041397799767 88.28830645431415 -8.050000000002614
  endloop
endfacet
facet normal 0.0 -3.759955310064153e-15 1.0
  outer loop
    vertex 138.67041397799767 90.03830645431414 -8.050000000002614
    vertex 145.17041397799778 88.28830645431415 -8.050000000002614
    vertex 145.17041397799778 90.03830645431414 -8.050000000002614
  endloop
endfacet
facet normal 1.7353639892602133e-15 1.0 3.759955310064153e-15
  outer loop
    vertex 138.67041397799767 90.03830645431414 -8.050000000002614
    vertex 145.17041397799778 90.03830645431414 -10.550000000002383
    vertex 138.67041397799767 90.03830645431417 -10.550000000002383
  endloop
endfacet
facet normal 1.7353639892602133e-15 1.0 3.759955310064153e-15
  outer loop
    vertex 145.17041397799778 90.03830645431414 -10.550000000002383
    vertex 138.67041397799767 90.03830645431414 -8.050000000002614
    vertex 145.17041397799778 90.03830645431414 -8.050000000002614
  endloop
endfacet
facet normal 1.30497820926261e-29 3.759955310064153e-15 -1.0
  outer loop
    vertex 138.67041397799767 90.03830645431417 -10.550000000002383
    vertex 140.17041397799773 88.28830645431418 -10.550000000002383
    vertex 138.67041397799767 88.28830645431418 -10.550000000002383
  endloop
endfacet
facet normal 1.30497820926261e-29 3.759955310064153e-15 -1.0
  outer loop
    vertex 140.17041397799773 88.28830645431418 -10.550000000002383
    vertex 138.67041397799767 90.03830645431417 -10.550000000002383
    vertex 145.17041397799778 90.03830645431414 -10.550000000002383
  endloop
endfacet
facet normal 1.30497820926261e-29 3.759955310064153e-15 -1.0
  outer loop
    vertex 140.17041397799773 88.28830645431418 -10.550000000002383
    vertex 145.17041397799778 90.03830645431414 -10.550000000002383
    vertex 141.42041397799773 87.03830645431415 -10.550000000002395
  endloop
endfacet
facet normal 1.30497820926261e-29 3.759955310064153e-15 -1.0
  outer loop
    vertex 140.17041397799773 88.28830645431418 -10.550000000002383
    vertex 141.42041397799773 87.03830645431415 -10.550000000002395
    vertex 141.42041397799773 84.53830645431418 -10.550000000002406
  endloop
endfacet
facet normal 1.30497820926261e-29 3.759955310064153e-15 -1.0
  outer loop
    vertex 141.42041397799773 87.03830645431415 -10.550000000002395
    vertex 145.17041397799778 90.03830645431414 -10.550000000002383
    vertex 142.42041397799773 87.03830645431415 -10.550000000002395
  endloop
endfacet
facet normal 1.30497820926261e-29 3.759955310064153e-15 -1.0
  outer loop
    vertex 142.42041397799773 87.03830645431415 -10.550000000002395
    vertex 145.17041397799778 90.03830645431414 -10.550000000002383
    vertex 143.67041397799773 88.28830645431415 -10.550000000002383
  endloop
endfacet
facet normal 1.30497820926261e-29 3.759955310064153e-15 -1.0
  outer loop
    vertex 142.42041397799773 87.03830645431415 -10.550000000002395
    vertex 143.67041397799773 88.28830645431415 -10.550000000002383
    vertex 143.6704139779977 83.28830645431417 -10.550000000002417
  endloop
endfacet
facet normal 1.30497820926261e-29 3.759955310064153e-15 -1.0
  outer loop
    vertex 143.67041397799773 88.28830645431415 -10.550000000002383
    vertex 145.17041397799778 90.03830645431414 -10.550000000002383
    vertex 145.17041397799778 88.28830645431415 -10.550000000002383
  endloop
endfacet
facet normal 1.30497820926261e-29 3.759955310064153e-15 -1.0
  outer loop
    vertex 140.1704139779977 83.2883064543142 -10.550000000002417
    vertex 141.42041397799773 84.53830645431418 -10.550000000002406
    vertex 143.6704139779977 83.28830645431417 -10.550000000002417
  endloop
endfacet
facet normal 1.30497820926261e-29 3.759955310064153e-15 -1.0
  outer loop
    vertex 141.42041397799773 84.53830645431418 -10.550000000002406
    vertex 140.1704139779977 83.2883064543142 -10.550000000002417
    vertex 140.17041397799773 88.28830645431418 -10.550000000002383
  endloop
endfacet
facet normal 1.30497820926261e-29 3.759955310064153e-15 -1.0
  outer loop
    vertex 143.6704139779977 83.28830645431417 -10.550000000002417
    vertex 141.42041397799773 84.53830645431418 -10.550000000002406
    vertex 142.42041397799773 84.53830645431418 -10.550000000002406
  endloop
endfacet
facet normal 1.30497820926261e-29 3.759955310064153e-15 -1.0
  outer loop
    vertex 143.6704139779977 83.28830645431417 -10.550000000002417
    vertex 142.42041397799773 84.53830645431418 -10.550000000002406
    vertex 142.42041397799773 87.03830645431415 -10.550000000002395
  endloop
endfacet
facet normal -2.0697001706773223e-15 -1.0 -4.171629249122096e-15
  outer loop
    vertex 145.17041397799778 88.28830645431415 -8.050000000002614
    vertex 143.67041397799773 88.28830645431415 -10.550000000002383
    vertex 145.17041397799778 88.28830645431415 -10.550000000002383
  endloop
endfacet
facet normal -2.0697001706773223e-15 -1.0 -4.171629249122096e-15
  outer loop
    vertex 143.67041397799773 88.28830645431415 -10.550000000002383
    vertex 145.17041397799778 88.28830645431415 -8.050000000002614
    vertex 143.67041397799773 88.28830645431415 -9.300000000003717
  endloop
endfacet
facet normal -2.0697001706773223e-15 -1.0 -4.171629249122096e-15
  outer loop
    vertex 143.67041397799773 88.28830645431415 -9.300000000003717
    vertex 145.17041397799778 88.28830645431415 -8.050000000002614
    vertex 140.17041397799773 88.28830645431415 -9.300000000003717
  endloop
endfacet
facet normal -2.0697001706773223e-15 -1.0 -4.171629249122096e-15
  outer loop
    vertex 140.17041397799773 88.28830645431415 -9.300000000003717
    vertex 138.67041397799767 88.28830645431418 -10.550000000002383
    vertex 140.17041397799773 88.28830645431418 -10.550000000002383
  endloop
endfacet
facet normal -2.0697001706773223e-15 -1.0 -4.171629249122096e-15
  outer loop
    vertex 138.67041397799767 88.28830645431418 -10.550000000002383
    vertex 140.17041397799773 88.28830645431415 -9.300000000003717
    vertex 138.67041397799767 88.28830645431415 -8.050000000002614
  endloop
endfacet
facet normal -2.0697001706773223e-15 -1.0 -4.171629249122096e-15
  outer loop
    vertex 138.67041397799767 88.28830645431415 -8.050000000002614
    vertex 140.17041397799773 88.28830645431415 -9.300000000003717
    vertex 145.17041397799778 88.28830645431415 -8.050000000002614
  endloop
endfacet
facet normal -1.0 3.2228188371975925e-15 4.1546245029614306e-29
  outer loop
    vertex 140.17041397799773 88.28830645431415 -9.300000000003717
    vertex 140.1704139779977 83.2883064543142 -10.550000000002417
    vertex 140.1704139779977 83.28830645431417 -9.30000000000375
  endloop
endfacet
facet normal -1.0 3.2228188371975925e-15 4.1546245029614306e-29
  outer loop
    vertex 140.1704139779977 83.2883064543142 -10.550000000002417
    vertex 140.17041397799773 88.28830645431415 -9.300000000003717
    vertex 140.17041397799773 88.28830645431418 -10.550000000002383
  endloop
endfacet
facet normal 1.0 -3.2228188371975925e-15 0.0
  outer loop
    vertex 143.67041397799773 88.28830645431415 -10.550000000002383
    vertex 143.6704139779977 83.28830645431417 -9.30000000000375
    vertex 143.6704139779977 83.28830645431417 -10.550000000002417
  endloop
endfacet
facet normal 1.0 -3.2228188371975925e-15 0.0
  outer loop
    vertex 143.6704139779977 83.28830645431417 -9.30000000000375
    vertex 143.67041397799773 88.28830645431415 -10.550000000002383
    vertex 143.67041397799773 88.28830645431415 -9.300000000003717
  endloop
endfacet
facet normal -3.2228188371975925e-15 -1.0 -6.445637674400109e-15
  outer loop
    vertex 143.6704139779977 83.28830645431417 -9.30000000000375
    vertex 140.1704139779977 83.2883064543142 -10.550000000002417
    vertex 143.6704139779977 83.28830645431417 -10.550000000002417
  endloop
endfacet
facet normal -3.2228188371975925e-15 -1.0 -6.445637674400109e-15
  outer loop
    vertex 140.1704139779977 83.2883064543142 -10.550000000002417
    vertex 143.6704139779977 83.28830645431417 -9.30000000000375
    vertex 140.1704139779977 83.28830645431417 -9.30000000000375
  endloop
endfacet
facet normal 0.0 -6.445637674400108e-15 1.0
  outer loop
    vertex 140.1704139779977 83.28830645431417 -9.30000000000375
    vertex 141.42041397799773 84.53830645431418 -9.30000000000374
    vertex 140.17041397799773 88.28830645431415 -9.300000000003717
  endloop
endfacet
facet normal 0.0 -6.445637674400108e-15 1.0
  outer loop
    vertex 141.42041397799773 84.53830645431418 -9.30000000000374
    vertex 140.1704139779977 83.28830645431417 -9.30000000000375
    vertex 143.6704139779977 83.28830645431417 -9.30000000000375
  endloop
endfacet
facet normal 0.0 -6.445637674400108e-15 1.0
  outer loop
    vertex 141.42041397799773 84.53830645431418 -9.30000000000374
    vertex 143.6704139779977 83.28830645431417 -9.30000000000375
    vertex 142.42041397799773 84.53830645431418 -9.30000000000374
  endloop
endfacet
facet normal 0.0 -6.445637674400108e-15 1.0
  outer loop
    vertex 142.42041397799773 84.53830645431418 -9.30000000000374
    vertex 143.6704139779977 83.28830645431417 -9.30000000000375
    vertex 142.42041397799773 87.03830645431415 -9.300000000003728
  endloop
endfacet
facet normal 0.0 -6.445637674400108e-15 1.0
  outer loop
    vertex 140.17041397799773 88.28830645431415 -9.300000000003717
    vertex 141.42041397799773 87.03830645431415 -9.300000000003728
    vertex 143.67041397799773 88.28830645431415 -9.300000000003717
  endloop
endfacet
facet normal 0.0 -6.445637674400108e-15 1.0
  outer loop
    vertex 141.42041397799773 87.03830645431415 -9.300000000003728
    vertex 140.17041397799773 88.28830645431415 -9.300000000003717
    vertex 141.42041397799773 84.53830645431418 -9.30000000000374
  endloop
endfacet
facet normal 0.0 -6.445637674400108e-15 1.0
  outer loop
    vertex 143.67041397799773 88.28830645431415 -9.300000000003717
    vertex 141.42041397799773 87.03830645431415 -9.300000000003728
    vertex 142.42041397799773 87.03830645431415 -9.300000000003728
  endloop
endfacet
facet normal 0.0 -6.445637674400108e-15 1.0
  outer loop
    vertex 143.67041397799773 88.28830645431415 -9.300000000003717
    vertex 142.42041397799773 87.03830645431415 -9.300000000003728
    vertex 143.6704139779977 83.28830645431417 -9.30000000000375
  endloop
endfacet
facet normal 1.0 -2.2559731860383426e-15 -9.997420219662224e-30
  outer loop
    vertex 141.42041397799773 87.03830645431415 -10.550000000002395
    vertex 141.42041397799773 84.53830645431418 -9.30000000000374
    vertex 141.42041397799773 84.53830645431418 -10.550000000002406
  endloop
endfacet
facet normal 1.0 -2.2559731860383426e-15 -9.997420219662224e-30
  outer loop
    vertex 141.42041397799773 84.53830645431418 -9.30000000000374
    vertex 141.42041397799773 87.03830645431415 -10.550000000002395
    vertex 141.42041397799773 87.03830645431415 -9.300000000003728
  endloop
endfacet
facet normal -0.0 -1.0 -4.511946372076685e-15
  outer loop
    vertex 142.42041397799773 87.03830645431415 -9.300000000003728
    vertex 141.42041397799773 87.03830645431415 -10.550000000002395
    vertex 142.42041397799773 87.03830645431415 -10.550000000002395
  endloop
endfacet
facet normal -0.0 -1.0 -4.511946372076685e-15
  outer loop
    vertex 141.42041397799773 87.03830645431415 -10.550000000002395
    vertex 142.42041397799773 87.03830645431415 -9.300000000003728
    vertex 141.42041397799773 87.03830645431415 -9.300000000003728
  endloop
endfacet
facet normal -1.0 2.2559731860383426e-15 9.997420219662224e-30
  outer loop
    vertex 142.42041397799773 87.03830645431415 -9.300000000003728
    vertex 142.42041397799773 84.53830645431418 -10.550000000002406
    vertex 142.42041397799773 84.53830645431418 -9.30000000000374
  endloop
endfacet
facet normal -1.0 2.2559731860383426e-15 9.997420219662224e-30
  outer loop
    vertex 142.42041397799773 84.53830645431418 -10.550000000002406
    vertex 142.42041397799773 87.03830645431415 -9.300000000003728
    vertex 142.42041397799773 87.03830645431415 -10.550000000002395
  endloop
endfacet
facet normal 0.0 1.0 4.511946372076685e-15
  outer loop
    vertex 141.42041397799773 84.53830645431418 -9.30000000000374
    vertex 142.42041397799773 84.53830645431418 -10.550000000002406
    vertex 141.42041397799773 84.53830645431418 -10.550000000002406
  endloop
endfacet
facet normal 0.0 1.0 4.511946372076685e-15
  outer loop
    vertex 142.42041397799773 84.53830645431418 -10.550000000002406
    vertex 141.42041397799773 84.53830645431418 -9.30000000000374
    vertex 142.42041397799773 84.53830645431418 -9.30000000000374
  endloop
endfacet
endsolid robo_hand_rotating_holes
