solid robo_hand
facet normal 2.6862719494237133e-15 -1.0 -9.548549333805001e-15
  outer loop
    vertex 555.8565783898939 -164.69722756452356 17.140435597774452
    vertex 552.3674616805147 -164.69722756452356 16.199999999999996
    vertex 556.8970603278577 -164.69722756452353 16.199999999999996
  endloop
endfacet
facet normal 2.6862719494237133e-15 -1.0 -9.548549333805001e-15
  outer loop
    vertex 552.3674616805147 -164.69722756452356 16.199999999999996
    vertex 555.8565783898939 -164.69722756452356 17.140435597774452
    vertex 552.3674616805147 -164.6972275645236 17.000000000000266
  endloop
endfacet
facet normal 2.6862719494237133e-15 -1.0 -9.548549333805001e-15
  outer loop
    vertex 552.3674616805147 -164.6972275645236 17.000000000000266
    vertex 555.8565783898939 -164.69722756452356 17.140435597774452
    vertex 548.3674616805147 -164.6972275645236 17.000000000000266
  endloop
endfacet
facet normal 2.6862719494237133e-15 -1.0 -9.548549333805001e-15
  outer loop
    vertex 548.3674616805147 -164.6972275645236 17.000000000000266
    vertex 543.8378630331717 -164.6972275645236 16.199999999999996
    vertex 548.3674616805147 -164.6972275645236 16.199999999999996
  endloop
endfacet
facet normal 2.6862719494237133e-15 -1.0 -9.548549333805001e-15
  outer loop
    vertex 543.8378630331717 -164.6972275645236 16.199999999999996
    vertex 548.3674616805147 -164.6972275645236 17.000000000000266
    vertex 544.8783449711354 -164.6972275645236 17.140435597774452
  endloop
endfacet
facet normal 2.6862719494237133e-15 -1.0 -9.548549333805001e-15
  outer loop
    vertex 544.8783449711354 -164.6972275645236 17.140435597774452
    vertex 548.3674616805147 -164.6972275645236 17.000000000000266
    vertex 555.8565783898939 -164.69722756452356 17.140435597774452
  endloop
endfacet
facet normal 2.6862719494237133e-15 -1.0 -9.548549333805001e-15
  outer loop
    vertex 544.8783449711354 -164.6972275645236 17.140435597774452
    vertex 555.8565783898939 -164.69722756452356 17.140435597774452
    vertex 554.6174616805143 -164.6972275645236 17.937500000000732
  endloop
endfacet
facet normal 2.6862719494237133e-15 -1.0 -9.548549333805001e-15
  outer loop
    vertex 544.8783449711354 -164.6972275645236 17.140435597774452
    vertex 554.6174616805143 -164.6972275645236 17.937500000000732
    vertex 546.117461680515 -164.6972275645236 17.937500000000732
  endloop
endfacet
facet normal 2.6862719494237133e-15 -1.0 -9.548549333805001e-15
  outer loop
    vertex 546.117461680515 -164.6972275645236 17.937500000000732
    vertex 554.6174616805143 -164.6972275645236 17.937500000000732
    vertex 553.2652359132325 -164.6972275645236 18.52248491866001
  endloop
endfacet
facet normal 2.6862719494237133e-15 -1.0 -9.548549333805001e-15
  outer loop
    vertex 546.117461680515 -164.6972275645236 17.937500000000732
    vertex 553.2652359132325 -164.6972275645236 18.52248491866001
    vertex 547.469687447797 -164.6972275645236 18.52248491866001
  endloop
endfacet
facet normal 2.6862719494237133e-15 -1.0 -9.548549333805001e-15
  outer loop
    vertex 547.469687447797 -164.6972275645236 18.52248491866001
    vertex 553.2652359132325 -164.6972275645236 18.52248491866001
    vertex 551.8358890839561 -164.6972275645236 18.879821625978973
  endloop
endfacet
facet normal 2.6862719494237133e-15 -1.0 -9.548549333805001e-15
  outer loop
    vertex 547.469687447797 -164.6972275645236 18.52248491866001
    vertex 551.8358890839561 -164.6972275645236 18.879821625978973
    vertex 548.8990342770733 -164.6972275645236 18.879821625978973
  endloop
endfacet
facet normal 2.6862719494237133e-15 -1.0 -9.548549333805001e-15
  outer loop
    vertex 548.8990342770733 -164.6972275645236 18.879821625978973
    vertex 551.8358890839561 -164.6972275645236 18.879821625978973
    vertex 550.3674616805147 -164.6972275645236 19.000000000000256
  endloop
endfacet
facet normal -3.205497790836227e-15 1.0 5.641369454431593e-14
  outer loop
    vertex 544.8783449711354 -162.19722756452373 17.1404355977745
    vertex 548.3674616805147 -162.1972275645236 16.199999999999996
    vertex 543.8378630331717 -162.19722756452362 16.199999999999996
  endloop
endfacet
facet normal -3.205497790836227e-15 1.0 5.641369454431593e-14
  outer loop
    vertex 548.3674616805147 -162.1972275645236 16.199999999999996
    vertex 544.8783449711354 -162.19722756452373 17.1404355977745
    vertex 548.3674616805147 -162.19722756452353 17.00000000000025
  endloop
endfacet
facet normal -3.205497790836227e-15 1.0 5.641369454431593e-14
  outer loop
    vertex 548.3674616805147 -162.19722756452353 17.00000000000025
    vertex 544.8783449711354 -162.19722756452373 17.1404355977745
    vertex 552.3674616805147 -162.1972275645235 17.00000000000025
  endloop
endfacet
facet normal -3.205497790836227e-15 1.0 5.641369454431593e-14
  outer loop
    vertex 552.3674616805147 -162.1972275645235 17.00000000000025
    vertex 544.8783449711354 -162.19722756452373 17.1404355977745
    vertex 555.8565783898939 -162.19722756452367 17.140435597774413
  endloop
endfacet
facet normal -3.205497790836227e-15 1.0 5.641369454431593e-14
  outer loop
    vertex 555.8565783898939 -162.19722756452367 17.140435597774413
    vertex 544.8783449711354 -162.19722756452373 17.1404355977745
    vertex 554.6174616805143 -162.19722756452373 17.93750000000069
  endloop
endfacet
facet normal -3.205497790836227e-15 1.0 5.641369454431593e-14
  outer loop
    vertex 554.6174616805143 -162.19722756452373 17.93750000000069
    vertex 544.8783449711354 -162.19722756452373 17.1404355977745
    vertex 546.117461680515 -162.19722756452373 17.93750000000077
  endloop
endfacet
facet normal -3.205497790836227e-15 1.0 5.641369454431593e-14
  outer loop
    vertex 554.6174616805143 -162.19722756452373 17.93750000000069
    vertex 546.117461680515 -162.19722756452373 17.93750000000077
    vertex 553.2652359132325 -162.19722756452373 18.52248491865997
  endloop
endfacet
facet normal -3.205497790836227e-15 1.0 5.641369454431593e-14
  outer loop
    vertex 553.2652359132325 -162.19722756452373 18.52248491865997
    vertex 546.117461680515 -162.19722756452373 17.93750000000077
    vertex 547.469687447797 -162.19722756452373 18.522484918660055
  endloop
endfacet
facet normal -3.205497790836227e-15 1.0 5.641369454431593e-14
  outer loop
    vertex 553.2652359132325 -162.19722756452373 18.52248491865997
    vertex 547.469687447797 -162.19722756452373 18.522484918660055
    vertex 551.8358890839561 -162.19722756452373 18.879821625978934
  endloop
endfacet
facet normal -3.205497790836227e-15 1.0 5.641369454431593e-14
  outer loop
    vertex 551.8358890839561 -162.19722756452373 18.879821625978934
    vertex 547.469687447797 -162.19722756452373 18.522484918660055
    vertex 548.8990342770733 -162.19722756452373 18.87982162597902
  endloop
endfacet
facet normal -3.205497790836227e-15 1.0 5.641369454431593e-14
  outer loop
    vertex 551.8358890839561 -162.19722756452373 18.879821625978934
    vertex 548.8990342770733 -162.19722756452373 18.87982162597902
    vertex 550.3674616805147 -162.19722756452373 19.00000000000022
  endloop
endfacet
facet normal -3.205497790836227e-15 1.0 5.641369454431593e-14
  outer loop
    vertex 552.3674616805147 -162.1972275645235 17.00000000000025
    vertex 556.8970603278576 -162.19722756452356 16.199999999999996
    vertex 552.3674616805147 -162.1972275645236 16.199999999999996
  endloop
endfacet
facet normal -3.205497790836227e-15 1.0 5.641369454431593e-14
  outer loop
    vertex 556.8970603278576 -162.19722756452356 16.199999999999996
    vertex 552.3674616805147 -162.1972275645235 17.00000000000025
    vertex 555.8565783898939 -162.19722756452367 17.140435597774413
  endloop
endfacet
facet normal -0.08156882979577329 -4.299504162005381e-15 0.9966677109276433
  outer loop
    vertex 550.3674616805147 -164.6972275645236 19.000000000000256
    vertex 548.8990342770733 -162.19722756452373 18.87982162597902
    vertex 548.8990342770733 -164.6972275645236 18.879821625978973
  endloop
endfacet
facet normal -0.08156882979577329 -4.299504162005381e-15 0.9966677109276433
  outer loop
    vertex 548.8990342770733 -162.19722756452373 18.87982162597902
    vertex 550.3674616805147 -164.6972275645236 19.000000000000256
    vertex 550.3674616805147 -162.19722756452373 19.00000000000022
  endloop
endfacet
facet normal -0.24253562503625287 -7.848114943300532e-15 0.970142500145352
  outer loop
    vertex 548.8990342770733 -164.6972275645236 18.879821625978973
    vertex 547.469687447797 -162.19722756452373 18.522484918660055
    vertex 547.469687447797 -164.6972275645236 18.52248491866001
  endloop
endfacet
facet normal -0.24253562503625287 -7.848114943300532e-15 0.970142500145352
  outer loop
    vertex 547.469687447797 -162.19722756452373 18.522484918660055
    vertex 548.8990342770733 -164.6972275645236 18.879821625978973
    vertex 548.8990342770733 -162.19722756452373 18.87982162597902
  endloop
endfacet
facet normal -0.3970476023812625 -7.958621217342484e-15 0.9177980177813041
  outer loop
    vertex 547.469687447797 -164.6972275645236 18.52248491866001
    vertex 546.117461680515 -162.19722756452373 17.93750000000077
    vertex 546.117461680515 -164.6972275645236 17.937500000000732
  endloop
endfacet
facet normal -0.3970476023812625 -7.958621217342484e-15 0.9177980177813041
  outer loop
    vertex 546.117461680515 -162.19722756452373 17.93750000000077
    vertex 547.469687447797 -164.6972275645236 18.52248491866001
    vertex 547.469687447797 -162.19722756452373 18.522484918660055
  endloop
endfacet
facet normal -0.5409925961385742 -7.857317574185537e-15 0.8410273544441024
  outer loop
    vertex 546.117461680515 -164.6972275645236 17.937500000000732
    vertex 544.8783449711354 -162.19722756452373 17.1404355977745
    vertex 544.8783449711354 -164.6972275645236 17.140435597774452
  endloop
endfacet
facet normal -0.5409925961385742 -7.857317574185537e-15 0.8410273544441024
  outer loop
    vertex 544.8783449711354 -162.19722756452373 17.1404355977745
    vertex 546.117461680515 -164.6972275645236 17.937500000000732
    vertex 546.117461680515 -162.19722756452373 17.93750000000077
  endloop
endfacet
facet normal -0.6705396692179054 -1.3007344571394195e-14 0.7418736765818977
  outer loop
    vertex 543.8378630331717 -164.6972275645236 16.199999999999996
    vertex 544.8783449711354 -162.19722756452373 17.1404355977745
    vertex 543.8378630331717 -162.19722756452362 16.199999999999996
  endloop
endfacet
facet normal -0.6705396692179054 -1.3007344571394195e-14 0.7418736765818977
  outer loop
    vertex 544.8783449711354 -162.19722756452373 17.1404355977745
    vertex 543.8378630331717 -164.6972275645236 16.199999999999996
    vertex 544.8783449711354 -164.6972275645236 17.140435597774452
  endloop
endfacet
facet normal 0.6705396692179054 1.2172132415386574e-14 0.7418736765818975
  outer loop
    vertex 556.8970603278577 -164.69722756452353 16.199999999999996
    vertex 555.8565783898939 -162.19722756452367 17.140435597774413
    vertex 555.8565783898939 -164.69722756452356 17.140435597774452
  endloop
endfacet
facet normal 0.6705396692179054 1.2172132415386574e-14 0.7418736765818975
  outer loop
    vertex 555.8565783898939 -162.19722756452367 17.140435597774413
    vertex 556.8970603278577 -164.69722756452353 16.199999999999996
    vertex 556.8970603278576 -162.19722756452356 16.199999999999996
  endloop
endfacet
facet normal 0.5409925961385742 4.3956329633326125e-16 0.8410273544441024
  outer loop
    vertex 555.8565783898939 -164.69722756452356 17.140435597774452
    vertex 554.6174616805143 -162.19722756452373 17.93750000000069
    vertex 554.6174616805143 -164.6972275645236 17.937500000000732
  endloop
endfacet
facet normal 0.5409925961385742 4.3956329633326125e-16 0.8410273544441024
  outer loop
    vertex 554.6174616805143 -162.19722756452373 17.93750000000069
    vertex 555.8565783898939 -164.69722756452356 17.140435597774452
    vertex 555.8565783898939 -162.19722756452367 17.140435597774413
  endloop
endfacet
facet normal 0.3970476023812625 -9.714730894801661e-17 0.9177980177813041
  outer loop
    vertex 554.6174616805143 -164.6972275645236 17.937500000000732
    vertex 553.2652359132325 -162.19722756452373 18.52248491865997
    vertex 553.2652359132325 -164.6972275645236 18.52248491866001
  endloop
endfacet
facet normal 0.3970476023812625 -9.714730894801661e-17 0.9177980177813041
  outer loop
    vertex 553.2652359132325 -162.19722756452373 18.52248491865997
    vertex 554.6174616805143 -164.6972275645236 17.937500000000732
    vertex 554.6174616805143 -162.19722756452373 17.93750000000069
  endloop
endfacet
facet normal 0.24253562503625364 -6.312724458544854e-16 0.9701425001453517
  outer loop
    vertex 553.2652359132325 -164.6972275645236 18.52248491866001
    vertex 551.8358890839561 -162.19722756452373 18.879821625978934
    vertex 551.8358890839561 -164.6972275645236 18.879821625978973
  endloop
endfacet
facet normal 0.24253562503625364 -6.312724458544854e-16 0.9701425001453517
  outer loop
    vertex 551.8358890839561 -162.19722756452373 18.879821625978934
    vertex 553.2652359132325 -164.6972275645236 18.52248491866001
    vertex 553.2652359132325 -162.19722756452373 18.52248491865997
  endloop
endfacet
facet normal 0.08156882979580052 -4.269650236516191e-16 0.9966677109276411
  outer loop
    vertex 551.8358890839561 -164.6972275645236 18.879821625978973
    vertex 550.3674616805147 -162.19722756452373 19.00000000000022
    vertex 550.3674616805147 -164.6972275645236 19.000000000000256
  endloop
endfacet
facet normal 0.08156882979580052 -4.269650236516191e-16 0.9966677109276411
  outer loop
    vertex 550.3674616805147 -162.19722756452373 19.00000000000022
    vertex 551.8358890839561 -164.6972275645236 18.879821625978973
    vertex 551.8358890839561 -162.19722756452373 18.879821625978934
  endloop
endfacet
facet normal 1.0 0.0 0.0
  outer loop
    vertex 548.3674616805147 -164.6972275645236 16.199999999999996
    vertex 548.3674616805147 -162.19722756452353 17.00000000000025
    vertex 548.3674616805147 -164.6972275645236 17.000000000000266
  endloop
endfacet
facet normal 1.0 0.0 0.0
  outer loop
    vertex 548.3674616805147 -162.19722756452353 17.00000000000025
    vertex 548.3674616805147 -164.6972275645236 16.199999999999996
    vertex 548.3674616805147 -162.1972275645236 16.199999999999996
  endloop
endfacet
facet normal -1.1928316444049718e-29 4.229949723825226e-15 -1.0
  outer loop
    vertex 552.3674616805147 -162.1972275645235 17.00000000000025
    vertex 548.3674616805147 -164.6972275645236 17.000000000000266
    vertex 548.3674616805147 -162.19722756452353 17.00000000000025
  endloop
endfacet
facet normal -1.1928316444049718e-29 4.229949723825226e-15 -1.0
  outer loop
    vertex 548.3674616805147 -164.6972275645236 17.000000000000266
    vertex 552.3674616805147 -162.1972275645235 17.00000000000025
    vertex 552.3674616805147 -164.6972275645236 17.000000000000266
  endloop
endfacet
facet normal -1.0 -7.275957614185483e-15 -2.273736754432291e-14
  outer loop
    vertex 552.3674616805147 -162.1972275645235 17.00000000000025
    vertex 552.3674616805147 -164.69722756452356 16.199999999999996
    vertex 552.3674616805147 -164.6972275645236 17.000000000000266
  endloop
endfacet
facet normal -1.0 -7.275957614185483e-15 -2.273736754432291e-14
  outer loop
    vertex 552.3674616805147 -164.69722756452356 16.199999999999996
    vertex 552.3674616805147 -162.1972275645235 17.00000000000025
    vertex 552.3674616805147 -162.1972275645236 16.199999999999996
  endloop
endfacet
facet normal 0.0 0.0 -1.0
  outer loop
    vertex 548.3674616805147 -162.1972275645236 16.199999999999996
    vertex 543.8378630331717 -164.6972275645236 16.199999999999996
    vertex 543.8378630331717 -162.19722756452362 16.199999999999996
  endloop
endfacet
facet normal 0.0 0.0 -1.0
  outer loop
    vertex 543.8378630331717 -164.6972275645236 16.199999999999996
    vertex 548.3674616805147 -162.1972275645236 16.199999999999996
    vertex 548.3674616805147 -164.6972275645236 16.199999999999996
  endloop
endfacet
facet normal 0.0 0.0 -1.0
  outer loop
    vertex 556.8970603278576 -162.19722756452356 16.199999999999996
    vertex 552.3674616805147 -164.69722756452356 16.199999999999996
    vertex 552.3674616805147 -162.1972275645236 16.199999999999996
  endloop
endfacet
facet normal 0.0 0.0 -1.0
  outer loop
    vertex 552.3674616805147 -164.69722756452356 16.199999999999996
    vertex 556.8970603278576 -162.19722756452356 16.199999999999996
    vertex 556.8970603278577 -164.69722756452353 16.199999999999996
  endloop
endfacet
facet normal 1.6441286406178956e-15 -1.0 -1.4810855168798125e-15
  outer loop
    vertex 537.1999337284357 -167.0884828655881 17.140435597774477
    vertex 533.7108170190564 -167.08848286558813 16.199999999999996
    vertex 538.2404156663994 -167.0884828655881 16.199999999999996
  endloop
endfacet
facet normal 1.6441286406178956e-15 -1.0 -1.4810855168798125e-15
  outer loop
    vertex 533.7108170190564 -167.08848286558813 16.199999999999996
    vertex 537.1999337284357 -167.0884828655881 17.140435597774477
    vertex 533.7108170190564 -167.08848286558813 17.00000000000028
  endloop
endfacet
facet normal 1.6441286406178956e-15 -1.0 -1.4810855168798125e-15
  outer loop
    vertex 533.7108170190564 -167.08848286558813 17.00000000000028
    vertex 537.1999337284357 -167.0884828655881 17.140435597774477
    vertex 529.7108170190564 -167.08848286558816 17.00000000000028
  endloop
endfacet
facet normal 1.6441286406178956e-15 -1.0 -1.4810855168798125e-15
  outer loop
    vertex 529.7108170190564 -167.08848286558816 17.00000000000028
    vertex 525.1812183717136 -167.08848286558813 16.199999999999996
    vertex 529.7108170190564 -167.08848286558816 16.199999999999996
  endloop
endfacet
facet normal 1.6441286406178956e-15 -1.0 -1.4810855168798125e-15
  outer loop
    vertex 525.1812183717136 -167.08848286558813 16.199999999999996
    vertex 529.7108170190564 -167.08848286558816 17.00000000000028
    vertex 526.2217003096773 -167.08848286558813 17.140435597774477
  endloop
endfacet
facet normal 1.6441286406178956e-15 -1.0 -1.4810855168798125e-15
  outer loop
    vertex 526.2217003096773 -167.08848286558813 17.140435597774477
    vertex 529.7108170190564 -167.08848286558816 17.00000000000028
    vertex 537.1999337284357 -167.0884828655881 17.140435597774477
  endloop
endfacet
facet normal 1.6441286406178956e-15 -1.0 -1.4810855168798125e-15
  outer loop
    vertex 526.2217003096773 -167.08848286558813 17.140435597774477
    vertex 537.1999337284357 -167.0884828655881 17.140435597774477
    vertex 535.9608170190561 -167.08848286558813 17.937500000000753
  endloop
endfacet
facet normal 1.6441286406178956e-15 -1.0 -1.4810855168798125e-15
  outer loop
    vertex 526.2217003096773 -167.08848286558813 17.140435597774477
    vertex 535.9608170190561 -167.08848286558813 17.937500000000753
    vertex 527.4608170190568 -167.08848286558813 17.937500000000753
  endloop
endfacet
facet normal 1.6441286406178956e-15 -1.0 -1.4810855168798125e-15
  outer loop
    vertex 527.4608170190568 -167.08848286558813 17.937500000000753
    vertex 535.9608170190561 -167.08848286558813 17.937500000000753
    vertex 534.6085912517742 -167.08848286558813 18.52248491866003
  endloop
endfacet
facet normal 1.6441286406178956e-15 -1.0 -1.4810855168798125e-15
  outer loop
    vertex 527.4608170190568 -167.08848286558813 17.937500000000753
    vertex 534.6085912517742 -167.08848286558813 18.52248491866003
    vertex 528.8130427863388 -167.08848286558813 18.52248491866003
  endloop
endfacet
facet normal 1.6441286406178956e-15 -1.0 -1.4810855168798125e-15
  outer loop
    vertex 528.8130427863388 -167.08848286558813 18.52248491866003
    vertex 534.6085912517742 -167.08848286558813 18.52248491866003
    vertex 533.1792444224978 -167.08848286558813 18.879821625978998
  endloop
endfacet
facet normal 1.6441286406178956e-15 -1.0 -1.4810855168798125e-15
  outer loop
    vertex 528.8130427863388 -167.08848286558813 18.52248491866003
    vertex 533.1792444224978 -167.08848286558813 18.879821625978998
    vertex 530.2423896156151 -167.08848286558813 18.879821625978998
  endloop
endfacet
facet normal 1.6441286406178956e-15 -1.0 -1.4810855168798125e-15
  outer loop
    vertex 530.2423896156151 -167.08848286558813 18.879821625978998
    vertex 533.1792444224978 -167.08848286558813 18.879821625978998
    vertex 531.7108170190564 -167.08848286558813 19.00000000000028
  endloop
endfacet
facet normal -0.08156882979577232 -5.439389310625592e-16 0.9966677109276434
  outer loop
    vertex 531.7108170190564 -167.08848286558813 19.00000000000028
    vertex 530.2423896156151 -140.5884828655882 18.87982162597902
    vertex 530.2423896156151 -167.08848286558813 18.879821625978998
  endloop
endfacet
facet normal -0.08156882979577232 -5.439389310625592e-16 0.9966677109276434
  outer loop
    vertex 530.2423896156151 -140.5884828655882 18.87982162597902
    vertex 531.7108170190564 -167.08848286558813 19.00000000000028
    vertex 531.7108170190564 -140.5884828655882 19.00000000000022
  endloop
endfacet
facet normal -0.24253562503625287 -1.8534721584833294e-15 0.970142500145352
  outer loop
    vertex 530.2423896156151 -167.08848286558813 18.879821625978998
    vertex 528.8130427863388 -140.5884828655882 18.522484918660055
    vertex 528.8130427863388 -167.08848286558813 18.52248491866003
  endloop
endfacet
facet normal -0.24253562503625287 -1.8534721584833294e-15 0.970142500145352
  outer loop
    vertex 528.8130427863388 -140.5884828655882 18.522484918660055
    vertex 530.2423896156151 -167.08848286558813 18.879821625978998
    vertex 530.2423896156151 -140.5884828655882 18.87982162597902
  endloop
endfacet
facet normal -0.3970476023812625 -1.6695615959643757e-15 0.9177980177813041
  outer loop
    vertex 528.8130427863388 -167.08848286558813 18.52248491866003
    vertex 527.4608170190568 -140.5884828655882 17.93750000000077
    vertex 527.4608170190568 -167.08848286558813 17.937500000000753
  endloop
endfacet
facet normal -0.3970476023812625 -1.6695615959643757e-15 0.9177980177813041
  outer loop
    vertex 527.4608170190568 -140.5884828655882 17.93750000000077
    vertex 528.8130427863388 -167.08848286558813 18.52248491866003
    vertex 528.8130427863388 -140.5884828655882 18.522484918660055
  endloop
endfacet
facet normal -0.5409925961385743 -1.5299084819662109e-15 0.8410273544441021
  outer loop
    vertex 527.4608170190568 -167.08848286558813 17.937500000000753
    vertex 526.2217003096773 -140.5884828655882 17.1404355977745
    vertex 526.2217003096773 -167.08848286558813 17.140435597774477
  endloop
endfacet
facet normal -0.5409925961385743 -1.5299084819662109e-15 0.8410273544441021
  outer loop
    vertex 526.2217003096773 -140.5884828655882 17.1404355977745
    vertex 527.4608170190568 -167.08848286558813 17.937500000000753
    vertex 527.4608170190568 -140.5884828655882 17.93750000000077
  endloop
endfacet
facet normal -0.6705396692179191 -9.657194622675427e-16 0.7418736765818854
  outer loop
    vertex 525.1812183717136 -167.08848286558813 16.199999999999996
    vertex 526.2217003096773 -140.5884828655882 17.1404355977745
    vertex 525.1812183717135 -140.5884828655882 16.199999999999996
  endloop
endfacet
facet normal -0.6705396692179191 -9.657194622675427e-16 0.7418736765818854
  outer loop
    vertex 526.2217003096773 -140.5884828655882 17.1404355977745
    vertex 525.1812183717136 -167.08848286558813 16.199999999999996
    vertex 526.2217003096773 -167.08848286558813 17.140435597774477
  endloop
endfacet
facet normal 0.6705396692179261 1.1784875688599406e-15 0.741873676581879
  outer loop
    vertex 538.2404156663994 -167.0884828655881 16.199999999999996
    vertex 537.1999337284357 -140.58848286558813 17.140435597774413
    vertex 537.1999337284357 -167.0884828655881 17.140435597774477
  endloop
endfacet
facet normal 0.6705396692179261 1.1784875688599406e-15 0.741873676581879
  outer loop
    vertex 537.1999337284357 -140.58848286558813 17.140435597774413
    vertex 538.2404156663994 -167.0884828655881 16.199999999999996
    vertex 538.2404156663994 -140.58848286558813 16.199999999999996
  endloop
endfacet
facet normal 0.5409925961385756 6.8749767584691195e-16 0.8410273544441014
  outer loop
    vertex 537.1999337284357 -167.0884828655881 17.140435597774477
    vertex 535.9608170190561 -140.5884828655882 17.93750000000069
    vertex 535.9608170190561 -167.08848286558813 17.937500000000753
  endloop
endfacet
facet normal 0.5409925961385756 6.8749767584691195e-16 0.8410273544441014
  outer loop
    vertex 535.9608170190561 -140.5884828655882 17.93750000000069
    vertex 537.1999337284357 -167.0884828655881 17.140435597774477
    vertex 537.1999337284357 -140.58848286558813 17.140435597774413
  endloop
endfacet
facet normal 0.3970476023812609 7.514096043296778e-16 0.9177980177813048
  outer loop
    vertex 535.9608170190561 -167.08848286558813 17.937500000000753
    vertex 534.6085912517742 -140.5884828655882 18.52248491865997
    vertex 534.6085912517742 -167.08848286558813 18.52248491866003
  endloop
endfacet
facet normal 0.3970476023812609 7.514096043296778e-16 0.9177980177813048
  outer loop
    vertex 534.6085912517742 -140.5884828655882 18.52248491865997
    vertex 535.9608170190561 -167.08848286558813 17.937500000000753
    vertex 535.9608170190561 -140.5884828655882 17.93750000000069
  endloop
endfacet
facet normal 0.24253562503625364 7.942645092433892e-16 0.9701425001453517
  outer loop
    vertex 534.6085912517742 -167.08848286558813 18.52248491866003
    vertex 533.1792444224978 -140.5884828655882 18.879821625978934
    vertex 533.1792444224978 -167.08848286558813 18.879821625978998
  endloop
endfacet
facet normal 0.24253562503625364 7.942645092433892e-16 0.9701425001453517
  outer loop
    vertex 533.1792444224978 -140.5884828655882 18.879821625978934
    vertex 534.6085912517742 -167.08848286558813 18.52248491866003
    vertex 534.6085912517742 -140.5884828655882 18.52248491865997
  endloop
endfacet
facet normal 0.08156882979580052 8.159809411298549e-16 0.9966677109276411
  outer loop
    vertex 533.1792444224978 -167.08848286558813 18.879821625978998
    vertex 531.7108170190564 -140.5884828655882 19.00000000000022
    vertex 531.7108170190564 -167.08848286558813 19.00000000000028
  endloop
endfacet
facet normal 0.08156882979580052 8.159809411298549e-16 0.9966677109276411
  outer loop
    vertex 531.7108170190564 -140.5884828655882 19.00000000000022
    vertex 533.1792444224978 -167.08848286558813 18.879821625978998
    vertex 533.1792444224978 -140.5884828655882 18.879821625978934
  endloop
endfacet
facet normal 1.0 0.0 0.0
  outer loop
    vertex 529.7108170190564 -167.08848286558816 16.199999999999996
    vertex 529.7108170190564 -140.588482865588 17.00000000000025
    vertex 529.7108170190564 -167.08848286558816 17.00000000000028
  endloop
endfacet
facet normal 1.0 0.0 0.0
  outer loop
    vertex 529.7108170190564 -140.588482865588 17.00000000000025
    vertex 529.7108170190564 -167.08848286558816 16.199999999999996
    vertex 529.7108170190564 -140.588482865588 16.199999999999996
  endloop
endfacet
facet normal -5.146491369001303e-31 9.096666072735113e-17 -1.0
  outer loop
    vertex 533.7108170190564 -140.588482865588 17.00000000000025
    vertex 529.7108170190564 -167.08848286558816 17.00000000000028
    vertex 529.7108170190564 -140.588482865588 17.00000000000025
  endloop
endfacet
facet normal -5.146491369001303e-31 9.096666072735113e-17 -1.0
  outer loop
    vertex 529.7108170190564 -167.08848286558816 17.00000000000028
    vertex 533.7108170190564 -140.588482865588 17.00000000000025
    vertex 533.7108170190564 -167.08848286558813 17.00000000000028
  endloop
endfacet
facet normal -1.0 0.0 0.0
  outer loop
    vertex 533.7108170190564 -140.588482865588 17.00000000000025
    vertex 533.7108170190564 -167.08848286558813 16.199999999999996
    vertex 533.7108170190564 -167.08848286558813 17.00000000000028
  endloop
endfacet
facet normal -1.0 0.0 0.0
  outer loop
    vertex 533.7108170190564 -167.08848286558813 16.199999999999996
    vertex 533.7108170190564 -140.588482865588 17.00000000000025
    vertex 533.7108170190564 -140.588482865588 16.199999999999996
  endloop
endfacet
facet normal -1.6649157728663143e-15 1.0 4.5559158881949885e-14
  outer loop
    vertex 526.2217003096773 -140.5884828655882 17.1404355977745
    vertex 529.7108170190564 -140.588482865588 16.199999999999996
    vertex 525.1812183717135 -140.5884828655882 16.199999999999996
  endloop
endfacet
facet normal -1.6649157728663143e-15 1.0 4.5559158881949885e-14
  outer loop
    vertex 529.7108170190564 -140.588482865588 16.199999999999996
    vertex 526.2217003096773 -140.5884828655882 17.1404355977745
    vertex 529.7108170190564 -140.588482865588 17.00000000000025
  endloop
endfacet
facet normal -1.6649157728663143e-15 1.0 4.5559158881949885e-14
  outer loop
    vertex 529.7108170190564 -140.588482865588 17.00000000000025
    vertex 526.2217003096773 -140.5884828655882 17.1404355977745
    vertex 533.7108170190564 -140.588482865588 17.00000000000025
  endloop
endfacet
facet normal -1.6649157728663143e-15 1.0 4.5559158881949885e-14
  outer loop
    vertex 533.7108170190564 -140.588482865588 17.00000000000025
    vertex 526.2217003096773 -140.5884828655882 17.1404355977745
    vertex 537.1999337284357 -140.58848286558813 17.140435597774413
  endloop
endfacet
facet normal -1.6649157728663143e-15 1.0 4.5559158881949885e-14
  outer loop
    vertex 537.1999337284357 -140.58848286558813 17.140435597774413
    vertex 526.2217003096773 -140.5884828655882 17.1404355977745
    vertex 535.9608170190561 -140.5884828655882 17.93750000000069
  endloop
endfacet
facet normal -1.6649157728663143e-15 1.0 4.5559158881949885e-14
  outer loop
    vertex 535.9608170190561 -140.5884828655882 17.93750000000069
    vertex 526.2217003096773 -140.5884828655882 17.1404355977745
    vertex 527.4608170190568 -140.5884828655882 17.93750000000077
  endloop
endfacet
facet normal -1.6649157728663143e-15 1.0 4.5559158881949885e-14
  outer loop
    vertex 535.9608170190561 -140.5884828655882 17.93750000000069
    vertex 527.4608170190568 -140.5884828655882 17.93750000000077
    vertex 534.6085912517742 -140.5884828655882 18.52248491865997
  endloop
endfacet
facet normal -1.6649157728663143e-15 1.0 4.5559158881949885e-14
  outer loop
    vertex 534.6085912517742 -140.5884828655882 18.52248491865997
    vertex 527.4608170190568 -140.5884828655882 17.93750000000077
    vertex 528.8130427863388 -140.5884828655882 18.522484918660055
  endloop
endfacet
facet normal -1.6649157728663143e-15 1.0 4.5559158881949885e-14
  outer loop
    vertex 534.6085912517742 -140.5884828655882 18.52248491865997
    vertex 528.8130427863388 -140.5884828655882 18.522484918660055
    vertex 533.1792444224978 -140.5884828655882 18.879821625978934
  endloop
endfacet
facet normal -1.6649157728663143e-15 1.0 4.5559158881949885e-14
  outer loop
    vertex 533.1792444224978 -140.5884828655882 18.879821625978934
    vertex 528.8130427863388 -140.5884828655882 18.522484918660055
    vertex 530.2423896156151 -140.5884828655882 18.87982162597902
  endloop
endfacet
facet normal -1.6649157728663143e-15 1.0 4.5559158881949885e-14
  outer loop
    vertex 533.1792444224978 -140.5884828655882 18.879821625978934
    vertex 530.2423896156151 -140.5884828655882 18.87982162597902
    vertex 531.7108170190564 -140.5884828655882 19.00000000000022
  endloop
endfacet
facet normal -1.6649157728663143e-15 1.0 4.5559158881949885e-14
  outer loop
    vertex 533.7108170190564 -140.588482865588 17.00000000000025
    vertex 538.2404156663994 -140.58848286558813 16.199999999999996
    vertex 533.7108170190564 -140.588482865588 16.199999999999996
  endloop
endfacet
facet normal -1.6649157728663143e-15 1.0 4.5559158881949885e-14
  outer loop
    vertex 538.2404156663994 -140.58848286558813 16.199999999999996
    vertex 533.7108170190564 -140.588482865588 17.00000000000025
    vertex 537.1999337284357 -140.58848286558813 17.140435597774413
  endloop
endfacet
facet normal 0.0 0.0 -1.0
  outer loop
    vertex 538.2404156663994 -140.58848286558813 16.199999999999996
    vertex 533.7108170190564 -167.08848286558813 16.199999999999996
    vertex 533.7108170190564 -140.588482865588 16.199999999999996
  endloop
endfacet
facet normal 0.0 0.0 -1.0
  outer loop
    vertex 533.7108170190564 -167.08848286558813 16.199999999999996
    vertex 538.2404156663994 -140.58848286558813 16.199999999999996
    vertex 538.2404156663994 -167.0884828655881 16.199999999999996
  endloop
endfacet
facet normal 0.0 0.0 -1.0
  outer loop
    vertex 529.7108170190564 -140.588482865588 16.199999999999996
    vertex 525.1812183717136 -167.08848286558813 16.199999999999996
    vertex 525.1812183717135 -140.5884828655882 16.199999999999996
  endloop
endfacet
facet normal 0.0 0.0 -1.0
  outer loop
    vertex 525.1812183717136 -167.08848286558813 16.199999999999996
    vertex 529.7108170190564 -140.588482865588 16.199999999999996
    vertex 529.7108170190564 -167.08848286558816 16.199999999999996
  endloop
endfacet
facet normal 1.0 0.0 0.0
  outer loop
    vertex 547.307066891957 -142.86994334803464 16.200000000000003
    vertex 547.307066891957 -144.86994334803464 17.000000000002345
    vertex 547.307066891957 -144.86994334803464 16.200000000000003
  endloop
endfacet
facet normal 1.0 0.0 0.0
  outer loop
    vertex 547.307066891957 -144.86994334803464 17.000000000002345
    vertex 547.307066891957 -142.86994334803464 16.200000000000003
    vertex 547.307066891957 -142.86994334803464 17.000000000002345
  endloop
endfacet
facet normal -1.0 0.0 0.0
  outer loop
    vertex 554.307066891957 -142.86994334803464 17.00000000000244
    vertex 554.307066891957 -144.86994334803464 16.200000000000003
    vertex 554.307066891957 -144.86994334803464 17.00000000000244
  endloop
endfacet
facet normal -1.0 0.0 0.0
  outer loop
    vertex 554.307066891957 -144.86994334803464 16.200000000000003
    vertex 554.307066891957 -142.86994334803464 17.00000000000244
    vertex 554.307066891957 -142.86994334803464 16.200000000000003
  endloop
endfacet
facet normal 1.3839527814350367e-14 3.076170754437912e-14 -1.0
  outer loop
    vertex 554.307066891957 -142.86994334803464 17.00000000000244
    vertex 547.307066891957 -144.86994334803464 17.000000000002345
    vertex 547.307066891957 -142.86994334803464 17.000000000002345
  endloop
endfacet
facet normal 1.3839527814350367e-14 3.076170754437912e-14 -1.0
  outer loop
    vertex 547.307066891957 -144.86994334803464 17.000000000002345
    vertex 554.307066891957 -142.86994334803464 17.00000000000244
    vertex 548.807066891957 -144.86994334803464 17.000000000002345
  endloop
endfacet
facet normal 1.3839527814350367e-14 3.076170754437912e-14 -1.0
  outer loop
    vertex 548.807066891957 -144.86994334803464 17.000000000002345
    vertex 554.307066891957 -142.86994334803464 17.00000000000244
    vertex 552.807066891957 -144.86994334803464 17.00000000000244
  endloop
endfacet
facet normal 1.3839527814350367e-14 3.076170754437912e-14 -1.0
  outer loop
    vertex 548.807066891957 -144.86994334803464 17.000000000002345
    vertex 552.807066891957 -144.86994334803464 17.00000000000244
    vertex 548.807066891957 -156.8699433480347 17.00000000000199
  endloop
endfacet
facet normal 1.3839527814350367e-14 3.076170754437912e-14 -1.0
  outer loop
    vertex 552.807066891957 -144.86994334803464 17.00000000000244
    vertex 554.307066891957 -142.86994334803464 17.00000000000244
    vertex 554.307066891957 -144.86994334803464 17.00000000000244
  endloop
endfacet
facet normal 1.3839527814350367e-14 3.076170754437912e-14 -1.0
  outer loop
    vertex 552.8070668919571 -156.8699433480347 17.000000000002
    vertex 548.807066891957 -156.8699433480347 17.00000000000199
    vertex 552.807066891957 -144.86994334803464 17.00000000000244
  endloop
endfacet
facet normal 0.39704760238137804 3.0353563361920406e-15 0.9177980177812541
  outer loop
    vertex 555.057066891957 -156.86994334803464 17.93750000000182
    vertex 553.704841124675 -142.86994334803467 18.522484918661284
    vertex 553.704841124675 -156.86994334803464 18.52248491866133
  endloop
endfacet
facet normal 0.39704760238137804 3.0353563361920406e-15 0.9177980177812541
  outer loop
    vertex 553.704841124675 -142.86994334803467 18.522484918661284
    vertex 555.057066891957 -156.86994334803464 17.93750000000182
    vertex 555.057066891957 -142.86994334803467 17.93750000000177
  endloop
endfacet
facet normal 0.54099259613872 2.7599714440065684e-15 0.8410273544440084
  outer loop
    vertex 556.2961836013366 -156.8699433480347 17.140435597775248
    vertex 555.057066891957 -142.86994334803467 17.93750000000177
    vertex 555.057066891957 -156.86994334803464 17.93750000000182
  endloop
endfacet
facet normal 0.54099259613872 2.7599714440065684e-15 0.8410273544440084
  outer loop
    vertex 555.057066891957 -142.86994334803467 17.93750000000177
    vertex 556.2961836013366 -156.8699433480347 17.140435597775248
    vertex 556.2961836013366 -142.86994334803467 17.1404355977752
  endloop
endfacet
facet normal -0.39704760238137804 7.558272387779797e-15 0.9177980177812541
  outer loop
    vertex 547.909292659239 -156.8699433480347 18.52248491866132
    vertex 546.5570668919571 -142.86994334803467 17.937500000001695
    vertex 546.5570668919571 -156.8699433480347 17.937500000001812
  endloop
endfacet
facet normal -0.39704760238137804 7.558272387779797e-15 0.9177980177812541
  outer loop
    vertex 546.5570668919571 -142.86994334803467 17.937500000001695
    vertex 547.909292659239 -156.8699433480347 18.52248491866132
    vertex 547.909292659239 -142.86994334803467 18.522484918661206
  endloop
endfacet
facet normal -0.08156882979584949 5.821583166257595e-15 0.996667710927637
  outer loop
    vertex 550.807066891957 -156.86994334803464 19.00000000000177
    vertex 549.3386394885155 -142.86994334803467 18.879821625980323
    vertex 549.3386394885155 -156.86994334803464 18.879821625980437
  endloop
endfacet
facet normal -0.08156882979584949 5.821583166257595e-15 0.996667710927637
  outer loop
    vertex 549.3386394885155 -142.86994334803467 18.879821625980323
    vertex 550.807066891957 -156.86994334803464 19.00000000000177
    vertex 550.807066891957 -142.86994334803467 19.00000000000172
  endloop
endfacet
facet normal -0.24253562503632764 7.987209639289217e-15 0.9701425001453333
  outer loop
    vertex 549.3386394885155 -156.86994334803464 18.879821625980437
    vertex 547.909292659239 -142.86994334803467 18.522484918661206
    vertex 547.909292659239 -156.8699433480347 18.52248491866132
  endloop
endfacet
facet normal -0.24253562503632764 7.987209639289217e-15 0.9701425001453333
  outer loop
    vertex 547.909292659239 -142.86994334803467 18.522484918661206
    vertex 549.3386394885155 -156.86994334803464 18.879821625980437
    vertex 549.3386394885155 -142.86994334803467 18.879821625980323
  endloop
endfacet
facet normal -0.5409925961387227 6.9281800611758316e-15 0.8410273544440069
  outer loop
    vertex 546.5570668919571 -156.8699433480347 17.937500000001812
    vertex 545.3179501825775 -142.86994334803467 17.14043559777512
    vertex 545.3179501825775 -156.8699433480347 17.140435597775234
  endloop
endfacet
facet normal -0.5409925961387227 6.9281800611758316e-15 0.8410273544440069
  outer loop
    vertex 545.3179501825775 -142.86994334803467 17.14043559777512
    vertex 546.5570668919571 -156.8699433480347 17.937500000001812
    vertex 546.5570668919571 -142.86994334803467 17.937500000001695
  endloop
endfacet
facet normal -0.6705396692180654 6.056365369102656e-15 0.741873676581753
  outer loop
    vertex 545.3179501825775 -156.8699433480347 17.140435597775234
    vertex 544.2774682446135 -142.86994334803464 16.200000000000003
    vertex 544.2774682446134 -156.86994334803467 16.200000000000003
  endloop
endfacet
facet normal -0.6705396692180654 6.056365369102656e-15 0.741873676581753
  outer loop
    vertex 544.2774682446135 -142.86994334803464 16.200000000000003
    vertex 545.3179501825775 -156.8699433480347 17.140435597775234
    vertex 545.3179501825775 -142.86994334803467 17.14043559777512
  endloop
endfacet
facet normal 0.6705396692180947 2.5266897443828087e-15 0.7418736765817265
  outer loop
    vertex 557.3366655393007 -156.86994334803467 16.200000000000003
    vertex 556.2961836013366 -142.86994334803467 17.1404355977752
    vertex 556.2961836013366 -156.8699433480347 17.140435597775248
  endloop
endfacet
facet normal 0.6705396692180947 2.5266897443828087e-15 0.7418736765817265
  outer loop
    vertex 556.2961836013366 -142.86994334803467 17.1404355977752
    vertex 557.3366655393007 -156.86994334803467 16.200000000000003
    vertex 557.3366655393006 -142.86994334803464 16.200000000000003
  endloop
endfacet
facet normal 0.24253562503632406 3.229958570592843e-15 0.9701425001453342
  outer loop
    vertex 553.704841124675 -156.86994334803464 18.52248491866133
    vertex 552.2754942953985 -142.86994334803467 18.87982162598039
    vertex 552.2754942953985 -156.86994334803464 18.87982162598044
  endloop
endfacet
facet normal 0.24253562503632406 3.229958570592843e-15 0.9701425001453342
  outer loop
    vertex 552.2754942953985 -142.86994334803467 18.87982162598039
    vertex 553.704841124675 -156.86994334803464 18.52248491866133
    vertex 553.704841124675 -142.86994334803467 18.522484918661284
  endloop
endfacet
facet normal 0.08156882979582478 3.4124927535330507e-15 0.9966677109276392
  outer loop
    vertex 552.2754942953985 -156.86994334803464 18.87982162598044
    vertex 550.807066891957 -142.86994334803467 19.00000000000172
    vertex 550.807066891957 -156.86994334803464 19.00000000000177
  endloop
endfacet
facet normal 0.08156882979582478 3.4124927535330507e-15 0.9966677109276392
  outer loop
    vertex 550.807066891957 -142.86994334803467 19.00000000000172
    vertex 552.2754942953985 -156.86994334803464 18.87982162598044
    vertex 552.2754942953985 -142.86994334803467 18.87982162598039
  endloop
endfacet
facet normal 3.1595721917093742e-15 -1.0 1.576423156341252e-14
  outer loop
    vertex 556.2961836013366 -156.8699433480347 17.140435597775248
    vertex 552.8070668919571 -156.8699433480347 16.200000000000003
    vertex 557.3366655393007 -156.86994334803467 16.200000000000003
  endloop
endfacet
facet normal 3.1595721917093742e-15 -1.0 1.576423156341252e-14
  outer loop
    vertex 552.8070668919571 -156.8699433480347 16.200000000000003
    vertex 556.2961836013366 -156.8699433480347 17.140435597775248
    vertex 552.8070668919571 -156.8699433480347 17.000000000002
  endloop
endfacet
facet normal 3.1595721917093742e-15 -1.0 1.576423156341252e-14
  outer loop
    vertex 552.8070668919571 -156.8699433480347 17.000000000002
    vertex 556.2961836013366 -156.8699433480347 17.140435597775248
    vertex 545.3179501825775 -156.8699433480347 17.140435597775234
  endloop
endfacet
facet normal 3.1595721917093742e-15 -1.0 1.576423156341252e-14
  outer loop
    vertex 545.3179501825775 -156.8699433480347 17.140435597775234
    vertex 556.2961836013366 -156.8699433480347 17.140435597775248
    vertex 546.5570668919571 -156.8699433480347 17.937500000001812
  endloop
endfacet
facet normal 3.1595721917093742e-15 -1.0 1.576423156341252e-14
  outer loop
    vertex 546.5570668919571 -156.8699433480347 17.937500000001812
    vertex 556.2961836013366 -156.8699433480347 17.140435597775248
    vertex 555.057066891957 -156.86994334803464 17.93750000000182
  endloop
endfacet
facet normal 3.1595721917093742e-15 -1.0 1.576423156341252e-14
  outer loop
    vertex 546.5570668919571 -156.8699433480347 17.937500000001812
    vertex 555.057066891957 -156.86994334803464 17.93750000000182
    vertex 547.909292659239 -156.8699433480347 18.52248491866132
  endloop
endfacet
facet normal 3.1595721917093742e-15 -1.0 1.576423156341252e-14
  outer loop
    vertex 547.909292659239 -156.8699433480347 18.52248491866132
    vertex 555.057066891957 -156.86994334803464 17.93750000000182
    vertex 553.704841124675 -156.86994334803464 18.52248491866133
  endloop
endfacet
facet normal 3.1595721917093742e-15 -1.0 1.576423156341252e-14
  outer loop
    vertex 547.909292659239 -156.8699433480347 18.52248491866132
    vertex 553.704841124675 -156.86994334803464 18.52248491866133
    vertex 549.3386394885155 -156.86994334803464 18.879821625980437
  endloop
endfacet
facet normal 3.1595721917093742e-15 -1.0 1.576423156341252e-14
  outer loop
    vertex 549.3386394885155 -156.86994334803464 18.879821625980437
    vertex 553.704841124675 -156.86994334803464 18.52248491866133
    vertex 552.2754942953985 -156.86994334803464 18.87982162598044
  endloop
endfacet
facet normal 3.1595721917093742e-15 -1.0 1.576423156341252e-14
  outer loop
    vertex 549.3386394885155 -156.86994334803464 18.879821625980437
    vertex 552.2754942953985 -156.86994334803464 18.87982162598044
    vertex 550.807066891957 -156.86994334803464 19.00000000000177
  endloop
endfacet
facet normal 3.1595721917093742e-15 -1.0 1.576423156341252e-14
  outer loop
    vertex 548.807066891957 -156.8699433480347 17.00000000000199
    vertex 544.2774682446134 -156.86994334803467 16.200000000000003
    vertex 548.807066891957 -156.8699433480347 16.200000000000003
  endloop
endfacet
facet normal 3.1595721917093742e-15 -1.0 1.576423156341252e-14
  outer loop
    vertex 544.2774682446134 -156.86994334803467 16.200000000000003
    vertex 548.807066891957 -156.8699433480347 17.00000000000199
    vertex 545.3179501825775 -156.8699433480347 17.140435597775234
  endloop
endfacet
facet normal 3.1595721917093742e-15 -1.0 1.576423156341252e-14
  outer loop
    vertex 545.3179501825775 -156.8699433480347 17.140435597775234
    vertex 548.807066891957 -156.8699433480347 17.00000000000199
    vertex 552.8070668919571 -156.8699433480347 17.000000000002
  endloop
endfacet
facet normal 0.0 1.0 0.0
  outer loop
    vertex 552.807066891957 -144.86994334803464 17.00000000000244
    vertex 554.307066891957 -144.86994334803464 16.200000000000003
    vertex 552.8070668919571 -144.86994334803464 16.200000000000003
  endloop
endfacet
facet normal 0.0 1.0 0.0
  outer loop
    vertex 554.307066891957 -144.86994334803464 16.200000000000003
    vertex 552.807066891957 -144.86994334803464 17.00000000000244
    vertex 554.307066891957 -144.86994334803464 17.00000000000244
  endloop
endfacet
facet normal -3.058362762187883e-29 1.0 6.826253446223245e-15
  outer loop
    vertex 545.3179501825775 -142.86994334803467 17.14043559777512
    vertex 547.307066891957 -142.86994334803464 16.200000000000003
    vertex 544.2774682446135 -142.86994334803464 16.200000000000003
  endloop
endfacet
facet normal -3.058362762187883e-29 1.0 6.826253446223245e-15
  outer loop
    vertex 547.307066891957 -142.86994334803464 16.200000000000003
    vertex 545.3179501825775 -142.86994334803467 17.14043559777512
    vertex 547.307066891957 -142.86994334803464 17.000000000002345
  endloop
endfacet
facet normal -3.058362762187883e-29 1.0 6.826253446223245e-15
  outer loop
    vertex 547.307066891957 -142.86994334803464 17.000000000002345
    vertex 545.3179501825775 -142.86994334803467 17.14043559777512
    vertex 554.307066891957 -142.86994334803464 17.00000000000244
  endloop
endfacet
facet normal -3.058362762187883e-29 1.0 6.826253446223245e-15
  outer loop
    vertex 554.307066891957 -142.86994334803464 17.00000000000244
    vertex 557.3366655393006 -142.86994334803464 16.200000000000003
    vertex 554.307066891957 -142.86994334803464 16.200000000000003
  endloop
endfacet
facet normal -3.058362762187883e-29 1.0 6.826253446223245e-15
  outer loop
    vertex 557.3366655393006 -142.86994334803464 16.200000000000003
    vertex 554.307066891957 -142.86994334803464 17.00000000000244
    vertex 556.2961836013366 -142.86994334803467 17.1404355977752
  endloop
endfacet
facet normal -3.058362762187883e-29 1.0 6.826253446223245e-15
  outer loop
    vertex 556.2961836013366 -142.86994334803467 17.1404355977752
    vertex 554.307066891957 -142.86994334803464 17.00000000000244
    vertex 545.3179501825775 -142.86994334803467 17.14043559777512
  endloop
endfacet
facet normal -3.058362762187883e-29 1.0 6.826253446223245e-15
  outer loop
    vertex 556.2961836013366 -142.86994334803467 17.1404355977752
    vertex 545.3179501825775 -142.86994334803467 17.14043559777512
    vertex 546.5570668919571 -142.86994334803467 17.937500000001695
  endloop
endfacet
facet normal -3.058362762187883e-29 1.0 6.826253446223245e-15
  outer loop
    vertex 556.2961836013366 -142.86994334803467 17.1404355977752
    vertex 546.5570668919571 -142.86994334803467 17.937500000001695
    vertex 555.057066891957 -142.86994334803467 17.93750000000177
  endloop
endfacet
facet normal -3.058362762187883e-29 1.0 6.826253446223245e-15
  outer loop
    vertex 555.057066891957 -142.86994334803467 17.93750000000177
    vertex 546.5570668919571 -142.86994334803467 17.937500000001695
    vertex 547.909292659239 -142.86994334803467 18.522484918661206
  endloop
endfacet
facet normal -3.058362762187883e-29 1.0 6.826253446223245e-15
  outer loop
    vertex 555.057066891957 -142.86994334803467 17.93750000000177
    vertex 547.909292659239 -142.86994334803467 18.522484918661206
    vertex 553.704841124675 -142.86994334803467 18.522484918661284
  endloop
endfacet
facet normal -3.058362762187883e-29 1.0 6.826253446223245e-15
  outer loop
    vertex 553.704841124675 -142.86994334803467 18.522484918661284
    vertex 547.909292659239 -142.86994334803467 18.522484918661206
    vertex 549.3386394885155 -142.86994334803467 18.879821625980323
  endloop
endfacet
facet normal -3.058362762187883e-29 1.0 6.826253446223245e-15
  outer loop
    vertex 553.704841124675 -142.86994334803467 18.522484918661284
    vertex 549.3386394885155 -142.86994334803467 18.879821625980323
    vertex 552.2754942953985 -142.86994334803467 18.87982162598039
  endloop
endfacet
facet normal -3.058362762187883e-29 1.0 6.826253446223245e-15
  outer loop
    vertex 552.2754942953985 -142.86994334803467 18.87982162598039
    vertex 549.3386394885155 -142.86994334803467 18.879821625980323
    vertex 550.807066891957 -142.86994334803467 19.00000000000172
  endloop
endfacet
facet normal 1.0 6.631732200438544e-16 3.694822225951481e-14
  outer loop
    vertex 548.807066891957 -144.86994334803464 16.200000000000003
    vertex 548.807066891957 -156.8699433480347 17.00000000000199
    vertex 548.807066891957 -156.8699433480347 16.200000000000003
  endloop
endfacet
facet normal 1.0 6.631732200438544e-16 3.694822225951481e-14
  outer loop
    vertex 548.807066891957 -156.8699433480347 17.00000000000199
    vertex 548.807066891957 -144.86994334803464 16.200000000000003
    vertex 548.807066891957 -144.86994334803464 17.000000000002345
  endloop
endfacet
facet normal -1.0 -4.6422125403097325e-15 -5.826450433232387e-14
  outer loop
    vertex 552.807066891957 -144.86994334803464 17.00000000000244
    vertex 552.8070668919571 -156.8699433480347 16.200000000000003
    vertex 552.8070668919571 -156.8699433480347 17.000000000002
  endloop
endfacet
facet normal -1.0 -4.6422125403097325e-15 -5.826450433232387e-14
  outer loop
    vertex 552.8070668919571 -156.8699433480347 16.200000000000003
    vertex 552.807066891957 -144.86994334803464 17.00000000000244
    vertex 552.8070668919571 -144.86994334803464 16.200000000000003
  endloop
endfacet
facet normal 0.0 1.0 0.0
  outer loop
    vertex 547.307066891957 -144.86994334803464 17.000000000002345
    vertex 548.807066891957 -144.86994334803464 16.200000000000003
    vertex 547.307066891957 -144.86994334803464 16.200000000000003
  endloop
endfacet
facet normal 0.0 1.0 0.0
  outer loop
    vertex 548.807066891957 -144.86994334803464 16.200000000000003
    vertex 547.307066891957 -144.86994334803464 17.000000000002345
    vertex 548.807066891957 -144.86994334803464 17.000000000002345
  endloop
endfacet
facet normal 0.0 0.0 -1.0
  outer loop
    vertex 557.3366655393006 -142.86994334803464 16.200000000000003
    vertex 554.307066891957 -144.86994334803464 16.200000000000003
    vertex 554.307066891957 -142.86994334803464 16.200000000000003
  endloop
endfacet
facet normal 0.0 0.0 -1.0
  outer loop
    vertex 554.307066891957 -144.86994334803464 16.200000000000003
    vertex 552.8070668919571 -156.8699433480347 16.200000000000003
    vertex 552.8070668919571 -144.86994334803464 16.200000000000003
  endloop
endfacet
facet normal 0.0 0.0 -1.0
  outer loop
    vertex 552.8070668919571 -156.8699433480347 16.200000000000003
    vertex 554.307066891957 -144.86994334803464 16.200000000000003
    vertex 557.3366655393007 -156.86994334803467 16.200000000000003
  endloop
endfacet
facet normal 0.0 0.0 -1.0
  outer loop
    vertex 557.3366655393007 -156.86994334803467 16.200000000000003
    vertex 554.307066891957 -144.86994334803464 16.200000000000003
    vertex 557.3366655393006 -142.86994334803464 16.200000000000003
  endloop
endfacet
facet normal 0.0 0.0 -1.0
  outer loop
    vertex 544.2774682446135 -142.86994334803464 16.200000000000003
    vertex 548.807066891957 -156.8699433480347 16.200000000000003
    vertex 544.2774682446134 -156.86994334803467 16.200000000000003
  endloop
endfacet
facet normal 0.0 0.0 -1.0
  outer loop
    vertex 548.807066891957 -156.8699433480347 16.200000000000003
    vertex 544.2774682446135 -142.86994334803464 16.200000000000003
    vertex 547.307066891957 -144.86994334803464 16.200000000000003
  endloop
endfacet
facet normal 0.0 0.0 -1.0
  outer loop
    vertex 547.307066891957 -144.86994334803464 16.200000000000003
    vertex 544.2774682446135 -142.86994334803464 16.200000000000003
    vertex 547.307066891957 -142.86994334803464 16.200000000000003
  endloop
endfacet
facet normal 0.0 0.0 -1.0
  outer loop
    vertex 548.807066891957 -156.8699433480347 16.200000000000003
    vertex 547.307066891957 -144.86994334803464 16.200000000000003
    vertex 548.807066891957 -144.86994334803464 16.200000000000003
  endloop
endfacet
facet normal -4.594885859452725e-15 1.0 5.166246999429602e-14
  outer loop
    vertex 545.17419383303 -168.7707609577612 17.140435597774495
    vertex 548.663310542409 -168.770760957761 16.199999999999992
    vertex 544.1337118950662 -168.7707609577612 16.199999999999992
  endloop
endfacet
facet normal -4.594885859452725e-15 1.0 5.166246999429602e-14
  outer loop
    vertex 548.663310542409 -168.770760957761 16.199999999999992
    vertex 545.17419383303 -168.7707609577612 17.140435597774495
    vertex 548.6633105424091 -168.77076095776098 17.000000000000252
  endloop
endfacet
facet normal -4.594885859452725e-15 1.0 5.166246999429602e-14
  outer loop
    vertex 548.6633105424091 -168.77076095776098 17.000000000000252
    vertex 545.17419383303 -168.7707609577612 17.140435597774495
    vertex 552.6633105424092 -168.770760957761 17.000000000000252
  endloop
endfacet
facet normal -4.594885859452725e-15 1.0 5.166246999429602e-14
  outer loop
    vertex 552.6633105424092 -168.770760957761 17.000000000000252
    vertex 545.17419383303 -168.7707609577612 17.140435597774495
    vertex 556.1524272517885 -168.7707609577612 17.140435597774413
  endloop
endfacet
facet normal -4.594885859452725e-15 1.0 5.166246999429602e-14
  outer loop
    vertex 556.1524272517885 -168.7707609577612 17.140435597774413
    vertex 545.17419383303 -168.7707609577612 17.140435597774495
    vertex 554.9133105424089 -168.77076095776118 17.937500000000693
  endloop
endfacet
facet normal -4.594885859452725e-15 1.0 5.166246999429602e-14
  outer loop
    vertex 554.9133105424089 -168.77076095776118 17.937500000000693
    vertex 545.17419383303 -168.7707609577612 17.140435597774495
    vertex 546.4133105424096 -168.7707609577612 17.937500000000764
  endloop
endfacet
facet normal -4.594885859452725e-15 1.0 5.166246999429602e-14
  outer loop
    vertex 554.9133105424089 -168.77076095776118 17.937500000000693
    vertex 546.4133105424096 -168.7707609577612 17.937500000000764
    vertex 553.561084775127 -168.77076095776115 18.522484918659966
  endloop
endfacet
facet normal -4.594885859452725e-15 1.0 5.166246999429602e-14
  outer loop
    vertex 553.561084775127 -168.77076095776115 18.522484918659966
    vertex 546.4133105424096 -168.7707609577612 17.937500000000764
    vertex 547.7655363096916 -168.77076095776115 18.52248491866005
  endloop
endfacet
facet normal -4.594885859452725e-15 1.0 5.166246999429602e-14
  outer loop
    vertex 553.561084775127 -168.77076095776115 18.522484918659966
    vertex 547.7655363096916 -168.77076095776115 18.52248491866005
    vertex 552.1317379458507 -168.7707609577612 18.87982162597893
  endloop
endfacet
facet normal -4.594885859452725e-15 1.0 5.166246999429602e-14
  outer loop
    vertex 552.1317379458507 -168.7707609577612 18.87982162597893
    vertex 547.7655363096916 -168.77076095776115 18.52248491866005
    vertex 549.1948831389678 -168.7707609577612 18.87982162597902
  endloop
endfacet
facet normal -4.594885859452725e-15 1.0 5.166246999429602e-14
  outer loop
    vertex 552.1317379458507 -168.7707609577612 18.87982162597893
    vertex 549.1948831389678 -168.7707609577612 18.87982162597902
    vertex 550.6633105424092 -168.77076095776124 19.000000000000217
  endloop
endfacet
facet normal -4.594885859452725e-15 1.0 5.166246999429602e-14
  outer loop
    vertex 552.6633105424092 -168.770760957761 17.000000000000252
    vertex 557.1929091897522 -168.77076095776104 16.199999999999992
    vertex 552.6633105424092 -168.77076095776104 16.199999999999992
  endloop
endfacet
facet normal -4.594885859452725e-15 1.0 5.166246999429602e-14
  outer loop
    vertex 557.1929091897522 -168.77076095776104 16.199999999999992
    vertex 552.6633105424092 -168.770760957761 17.000000000000252
    vertex 556.1524272517885 -168.7707609577612 17.140435597774413
  endloop
endfacet
facet normal -1.0 -4.168517383127173e-15 -2.3447910280083475e-14
  outer loop
    vertex 552.6633105424092 -168.770760957761 17.000000000000252
    vertex 552.6633105424092 -173.270760957761 16.199999999999992
    vertex 552.6633105424092 -173.2707609577611 17.000000000000252
  endloop
endfacet
facet normal -1.0 -4.168517383127173e-15 -2.3447910280083475e-14
  outer loop
    vertex 552.6633105424092 -173.270760957761 16.199999999999992
    vertex 552.6633105424092 -168.770760957761 17.000000000000252
    vertex 552.6633105424092 -168.77076095776104 16.199999999999992
  endloop
endfacet
facet normal 1.0 2.5263741715922283e-15 -2.046363078989089e-13
  outer loop
    vertex 548.663310542409 -168.770760957761 16.199999999999992
    vertex 548.6633105424091 -173.2707609577611 17.000000000000252
    vertex 548.663310542409 -173.27076095776113 16.199999999999992
  endloop
endfacet
facet normal 1.0 2.5263741715922283e-15 -2.046363078989089e-13
  outer loop
    vertex 548.6633105424091 -173.2707609577611 17.000000000000252
    vertex 548.663310542409 -168.770760957761 16.199999999999992
    vertex 548.6633105424091 -168.77076095776098 17.000000000000252
  endloop
endfacet
facet normal 0.08156882979580059 -4.329994321447129e-16 0.9966677109276411
  outer loop
    vertex 552.1317379458507 -173.27076095776113 18.879821625978966
    vertex 550.6633105424092 -168.77076095776124 19.000000000000217
    vertex 550.6633105424092 -173.27076095776107 19.000000000000252
  endloop
endfacet
facet normal 0.08156882979580059 -4.329994321447129e-16 0.9966677109276411
  outer loop
    vertex 550.6633105424092 -168.77076095776124 19.000000000000217
    vertex 552.1317379458507 -173.27076095776113 18.879821625978966
    vertex 552.1317379458507 -168.7707609577612 18.87982162597893
  endloop
endfacet
facet normal 0.24253562503625375 -6.815131571791931e-16 0.9701425001453517
  outer loop
    vertex 553.5610847751269 -173.2707609577611 18.522484918660002
    vertex 552.1317379458507 -168.7707609577612 18.87982162597893
    vertex 552.1317379458507 -173.27076095776113 18.879821625978966
  endloop
endfacet
facet normal 0.24253562503625375 -6.815131571791931e-16 0.9701425001453517
  outer loop
    vertex 552.1317379458507 -168.7707609577612 18.87982162597893
    vertex 553.5610847751269 -173.2707609577611 18.522484918660002
    vertex 553.561084775127 -168.77076095776115 18.522484918659966
  endloop
endfacet
facet normal 0.3970476023812628 -7.294113246369363e-17 0.917798017781304
  outer loop
    vertex 554.9133105424089 -173.27076095776113 17.93750000000072
    vertex 553.561084775127 -168.77076095776115 18.522484918659966
    vertex 553.5610847751269 -173.2707609577611 18.522484918660002
  endloop
endfacet
facet normal 0.3970476023812628 -7.294113246369363e-17 0.917798017781304
  outer loop
    vertex 553.561084775127 -168.77076095776115 18.522484918659966
    vertex 554.9133105424089 -173.27076095776113 17.93750000000072
    vertex 554.9133105424089 -168.77076095776118 17.937500000000693
  endloop
endfacet
facet normal 0.5409925961385742 4.957835152961169e-16 0.8410273544441023
  outer loop
    vertex 556.1524272517885 -173.27076095776107 17.14043559777444
    vertex 554.9133105424089 -168.77076095776118 17.937500000000693
    vertex 554.9133105424089 -173.27076095776113 17.93750000000072
  endloop
endfacet
facet normal 0.5409925961385742 4.957835152961169e-16 0.8410273544441023
  outer loop
    vertex 554.9133105424089 -168.77076095776118 17.937500000000693
    vertex 556.1524272517885 -173.27076095776107 17.14043559777444
    vertex 556.1524272517885 -168.7707609577612 17.140435597774413
  endloop
endfacet
facet normal -1.1044052673094172e-29 4.229949723825228e-15 -1.0
  outer loop
    vertex 552.6633105424092 -168.770760957761 17.000000000000252
    vertex 548.6633105424091 -173.2707609577611 17.000000000000252
    vertex 548.6633105424091 -168.77076095776098 17.000000000000252
  endloop
endfacet
facet normal -1.1044052673094172e-29 4.229949723825228e-15 -1.0
  outer loop
    vertex 548.6633105424091 -173.2707609577611 17.000000000000252
    vertex 552.6633105424092 -168.770760957761 17.000000000000252
    vertex 552.6633105424092 -173.2707609577611 17.000000000000252
  endloop
endfacet
facet normal 0.6705396692179141 1.9347391264667963e-15 0.7418736765818899
  outer loop
    vertex 557.1929091897522 -173.27076095776098 16.199999999999992
    vertex 556.1524272517885 -168.7707609577612 17.140435597774413
    vertex 556.1524272517885 -173.27076095776107 17.14043559777444
  endloop
endfacet
facet normal 0.6705396692179141 1.9347391264667963e-15 0.7418736765818899
  outer loop
    vertex 556.1524272517885 -168.7707609577612 17.140435597774413
    vertex 557.1929091897522 -173.27076095776098 16.199999999999992
    vertex 557.1929091897522 -168.77076095776104 16.199999999999992
  endloop
endfacet
facet normal -0.3970476023812625 -7.955524607302327e-15 0.917798017781304
  outer loop
    vertex 546.4133105424096 -173.2707609577611 17.93750000000072
    vertex 547.7655363096916 -168.77076095776115 18.52248491866005
    vertex 546.4133105424096 -168.7707609577612 17.937500000000764
  endloop
endfacet
facet normal -0.3970476023812625 -7.955524607302327e-15 0.917798017781304
  outer loop
    vertex 547.7655363096916 -168.77076095776115 18.52248491866005
    vertex 546.4133105424096 -173.2707609577611 17.93750000000072
    vertex 547.7655363096916 -173.2707609577611 18.522484918660002
  endloop
endfacet
facet normal -0.24253562503625298 -7.925718392858362e-15 0.970142500145352
  outer loop
    vertex 549.1948831389678 -173.2707609577611 18.879821625978966
    vertex 547.7655363096916 -168.77076095776115 18.52248491866005
    vertex 547.7655363096916 -173.2707609577611 18.522484918660002
  endloop
endfacet
facet normal -0.24253562503625298 -7.925718392858362e-15 0.970142500145352
  outer loop
    vertex 547.7655363096916 -168.77076095776115 18.52248491866005
    vertex 549.1948831389678 -173.2707609577611 18.879821625978966
    vertex 549.1948831389678 -168.7707609577612 18.87982162597902
  endloop
endfacet
facet normal -0.08156882979577336 -4.2979633366211e-15 0.9966677109276432
  outer loop
    vertex 550.6633105424092 -173.27076095776107 19.000000000000252
    vertex 549.1948831389678 -168.7707609577612 18.87982162597902
    vertex 549.1948831389678 -173.2707609577611 18.879821625978966
  endloop
endfacet
facet normal -0.08156882979577336 -4.2979633366211e-15 0.9966677109276432
  outer loop
    vertex 549.1948831389678 -168.7707609577612 18.87982162597902
    vertex 550.6633105424092 -173.27076095776107 19.000000000000252
    vertex 550.6633105424092 -168.77076095776124 19.000000000000217
  endloop
endfacet
facet normal 4.9594795010683014e-15 -1.0 -9.926759730991555e-15
  outer loop
    vertex 556.1524272517885 -173.27076095776107 17.14043559777444
    vertex 552.6633105424092 -173.270760957761 16.199999999999992
    vertex 557.1929091897522 -173.27076095776098 16.199999999999992
  endloop
endfacet
facet normal 4.9594795010683014e-15 -1.0 -9.926759730991555e-15
  outer loop
    vertex 552.6633105424092 -173.270760957761 16.199999999999992
    vertex 556.1524272517885 -173.27076095776107 17.14043559777444
    vertex 552.6633105424092 -173.2707609577611 17.000000000000252
  endloop
endfacet
facet normal 4.9594795010683014e-15 -1.0 -9.926759730991555e-15
  outer loop
    vertex 552.6633105424092 -173.2707609577611 17.000000000000252
    vertex 556.1524272517885 -173.27076095776107 17.14043559777444
    vertex 548.6633105424091 -173.2707609577611 17.000000000000252
  endloop
endfacet
facet normal 4.9594795010683014e-15 -1.0 -9.926759730991555e-15
  outer loop
    vertex 548.6633105424091 -173.2707609577611 17.000000000000252
    vertex 544.1337118950663 -173.27076095776113 16.199999999999992
    vertex 548.663310542409 -173.27076095776113 16.199999999999992
  endloop
endfacet
facet normal 4.9594795010683014e-15 -1.0 -9.926759730991555e-15
  outer loop
    vertex 544.1337118950663 -173.27076095776113 16.199999999999992
    vertex 548.6633105424091 -173.2707609577611 17.000000000000252
    vertex 545.17419383303 -173.2707609577611 17.14043559777446
  endloop
endfacet
facet normal 4.9594795010683014e-15 -1.0 -9.926759730991555e-15
  outer loop
    vertex 545.17419383303 -173.2707609577611 17.14043559777446
    vertex 548.6633105424091 -173.2707609577611 17.000000000000252
    vertex 556.1524272517885 -173.27076095776107 17.14043559777444
  endloop
endfacet
facet normal 4.9594795010683014e-15 -1.0 -9.926759730991555e-15
  outer loop
    vertex 545.17419383303 -173.2707609577611 17.14043559777446
    vertex 556.1524272517885 -173.27076095776107 17.14043559777444
    vertex 554.9133105424089 -173.27076095776113 17.93750000000072
  endloop
endfacet
facet normal 4.9594795010683014e-15 -1.0 -9.926759730991555e-15
  outer loop
    vertex 545.17419383303 -173.2707609577611 17.14043559777446
    vertex 554.9133105424089 -173.27076095776113 17.93750000000072
    vertex 546.4133105424096 -173.2707609577611 17.93750000000072
  endloop
endfacet
facet normal 4.9594795010683014e-15 -1.0 -9.926759730991555e-15
  outer loop
    vertex 546.4133105424096 -173.2707609577611 17.93750000000072
    vertex 554.9133105424089 -173.27076095776113 17.93750000000072
    vertex 553.5610847751269 -173.2707609577611 18.522484918660002
  endloop
endfacet
facet normal 4.9594795010683014e-15 -1.0 -9.926759730991555e-15
  outer loop
    vertex 546.4133105424096 -173.2707609577611 17.93750000000072
    vertex 553.5610847751269 -173.2707609577611 18.522484918660002
    vertex 547.7655363096916 -173.2707609577611 18.522484918660002
  endloop
endfacet
facet normal 4.9594795010683014e-15 -1.0 -9.926759730991555e-15
  outer loop
    vertex 547.7655363096916 -173.2707609577611 18.522484918660002
    vertex 553.5610847751269 -173.2707609577611 18.522484918660002
    vertex 552.1317379458507 -173.27076095776113 18.879821625978966
  endloop
endfacet
facet normal 4.9594795010683014e-15 -1.0 -9.926759730991555e-15
  outer loop
    vertex 547.7655363096916 -173.2707609577611 18.522484918660002
    vertex 552.1317379458507 -173.27076095776113 18.879821625978966
    vertex 549.1948831389678 -173.2707609577611 18.879821625978966
  endloop
endfacet
facet normal 4.9594795010683014e-15 -1.0 -9.926759730991555e-15
  outer loop
    vertex 549.1948831389678 -173.2707609577611 18.879821625978966
    vertex 552.1317379458507 -173.27076095776113 18.879821625978966
    vertex 550.6633105424092 -173.27076095776107 19.000000000000252
  endloop
endfacet
facet normal -0.6705396692179081 -9.87528168557084e-15 0.7418736765818953
  outer loop
    vertex 544.1337118950663 -173.27076095776113 16.199999999999992
    vertex 545.17419383303 -168.7707609577612 17.140435597774495
    vertex 544.1337118950662 -168.7707609577612 16.199999999999992
  endloop
endfacet
facet normal -0.6705396692179081 -9.87528168557084e-15 0.7418736765818953
  outer loop
    vertex 545.17419383303 -168.7707609577612 17.140435597774495
    vertex 544.1337118950663 -173.27076095776113 16.199999999999992
    vertex 545.17419383303 -173.2707609577611 17.14043559777446
  endloop
endfacet
facet normal -0.5409925961385742 -7.88640032062384e-15 0.8410273544441023
  outer loop
    vertex 545.17419383303 -173.2707609577611 17.14043559777446
    vertex 546.4133105424096 -168.7707609577612 17.937500000000764
    vertex 545.17419383303 -168.7707609577612 17.140435597774495
  endloop
endfacet
facet normal -0.5409925961385742 -7.88640032062384e-15 0.8410273544441023
  outer loop
    vertex 546.4133105424096 -168.7707609577612 17.937500000000764
    vertex 545.17419383303 -173.2707609577611 17.14043559777446
    vertex 546.4133105424096 -173.2707609577611 17.93750000000072
  endloop
endfacet
facet normal 0.0 0.0 -1.0
  outer loop
    vertex 557.1929091897522 -168.77076095776104 16.199999999999992
    vertex 552.6633105424092 -173.270760957761 16.199999999999992
    vertex 552.6633105424092 -168.77076095776104 16.199999999999992
  endloop
endfacet
facet normal 0.0 0.0 -1.0
  outer loop
    vertex 552.6633105424092 -173.270760957761 16.199999999999992
    vertex 557.1929091897522 -168.77076095776104 16.199999999999992
    vertex 557.1929091897522 -173.27076095776098 16.199999999999992
  endloop
endfacet
facet normal 0.0 0.0 -1.0
  outer loop
    vertex 548.663310542409 -168.770760957761 16.199999999999992
    vertex 544.1337118950663 -173.27076095776113 16.199999999999992
    vertex 544.1337118950662 -168.7707609577612 16.199999999999992
  endloop
endfacet
facet normal 0.0 0.0 -1.0
  outer loop
    vertex 544.1337118950663 -173.27076095776113 16.199999999999992
    vertex 548.663310542409 -168.770760957761 16.199999999999992
    vertex 548.663310542409 -173.27076095776113 16.199999999999992
  endloop
endfacet
endsolid robo_hand
