solid palm
facet normal 1.0 0.0 0.0
  outer loop
    vertex 84.79338710098233 199.544549478272 13.500000000004386
    vertex 84.79338710098233 197.544549478272 17.00000000000423
    vertex 84.79338710098233 197.544549478272 13.500000000004386
  endloop
endfacet
facet normal 1.0 0.0 0.0
  outer loop
    vertex 84.79338710098233 197.544549478272 17.00000000000423
    vertex 84.79338710098233 199.544549478272 13.500000000004386
    vertex 84.79338710098233 199.544549478272 17.00000000000423
  endloop
endfacet
facet normal -1.0 0.0 -3.2228188371991142e-15
  outer loop
    vertex 91.79338710098237 199.544549478272 17.00000000000433
    vertex 91.79338710098237 197.544549478272 13.50000000000598
    vertex 91.79338710098237 197.544549478272 17.00000000000433
  endloop
endfacet
facet normal -1.0 0.0 -3.2228188371991142e-15
  outer loop
    vertex 91.79338710098237 197.544549478272 13.50000000000598
    vertex 91.79338710098237 199.544549478272 17.00000000000433
    vertex 91.79338710098237 199.544549478272 13.50000000000598
  endloop
endfacet
facet normal 1.3839527814350362e-14 3.076170754437912e-14 -1.0
  outer loop
    vertex 91.79338710098237 199.544549478272 17.00000000000433
    vertex 84.79338710098233 197.544549478272 17.00000000000423
    vertex 84.79338710098233 199.544549478272 17.00000000000423
  endloop
endfacet
facet normal 1.3839527814350362e-14 3.076170754437912e-14 -1.0
  outer loop
    vertex 84.79338710098233 197.544549478272 17.00000000000423
    vertex 91.79338710098237 199.544549478272 17.00000000000433
    vertex 86.29338710098236 197.544549478272 17.00000000000423
  endloop
endfacet
facet normal 1.3839527814350362e-14 3.076170754437912e-14 -1.0
  outer loop
    vertex 86.29338710098236 197.544549478272 17.00000000000423
    vertex 91.79338710098237 199.544549478272 17.00000000000433
    vertex 90.29338710098234 197.544549478272 17.000000000004327
  endloop
endfacet
facet normal 1.3839527814350362e-14 3.076170754437912e-14 -1.0
  outer loop
    vertex 86.29338710098236 197.544549478272 17.00000000000423
    vertex 90.29338710098234 197.544549478272 17.000000000004327
    vertex 86.29338710098236 185.54454947827193 17.000000000003876
  endloop
endfacet
facet normal 1.3839527814350362e-14 3.076170754437912e-14 -1.0
  outer loop
    vertex 90.29338710098234 197.544549478272 17.000000000004327
    vertex 91.79338710098237 199.544549478272 17.00000000000433
    vertex 91.79338710098237 197.544549478272 17.00000000000433
  endloop
endfacet
facet normal 1.3839527814350362e-14 3.076170754437912e-14 -1.0
  outer loop
    vertex 90.29338710098244 185.54454947827193 17.00000000000389
    vertex 86.29338710098236 185.54454947827193 17.000000000003876
    vertex 90.29338710098234 197.544549478272 17.000000000004327
  endloop
endfacet
facet normal -3.1808843850775155e-29 -5.639932965095867e-15 1.0
  outer loop
    vertex 85.54338710098216 187.04454947827185 2.000000000002492
    vertex 83.54338710098226 189.04454947827185 2.000000000002503
    vertex 83.54338710098226 187.04454947827185 2.000000000002492
  endloop
endfacet
facet normal -3.1808843850775155e-29 -5.639932965095867e-15 1.0
  outer loop
    vertex 83.54338710098226 189.04454947827185 2.000000000002503
    vertex 85.54338710098216 187.04454947827185 2.000000000002492
    vertex 85.54338710098216 189.04454947827185 2.000000000002503
  endloop
endfacet
facet normal 2.8199664825470834e-15 1.0 5.639932965095867e-15
  outer loop
    vertex 83.54338710098207 187.04454947827185 4.000000000001933
    vertex 85.54338710098216 187.04454947827185 2.000000000002492
    vertex 83.54338710098226 187.04454947827185 2.000000000002492
  endloop
endfacet
facet normal 2.8199664825470834e-15 1.0 5.639932965095867e-15
  outer loop
    vertex 85.54338710098216 187.04454947827185 2.000000000002492
    vertex 83.54338710098207 187.04454947827185 4.000000000001933
    vertex 85.54338710098216 187.04454947827185 4.000000000002491
  endloop
endfacet
facet normal 2.819966482545117e-15 1.0 1.9739765377838696e-14
  outer loop
    vertex 83.54338710098226 189.04454947827185 2.000000000002503
    vertex 85.54338710098234 189.0445494782719 3.1492336637423627e-12
    vertex 83.54338710098234 189.0445494782719 2.591502263712101e-12
  endloop
endfacet
facet normal 2.819966482545117e-15 1.0 1.9739765377838696e-14
  outer loop
    vertex 85.54338710098234 189.0445494782719 3.1492336637423627e-12
    vertex 83.54338710098226 189.04454947827185 2.000000000002503
    vertex 85.54338710098216 189.04454947827185 2.000000000002503
  endloop
endfacet
facet normal -1.0 -1.8365496579205462e-27 -5.4770006677346034e-14
  outer loop
    vertex 87.0433871009821 191.04454947827185 4.000000000002257
    vertex 87.04338710098237 182.0445494782719 3.205667511924984e-12
    vertex 87.0433871009821 182.04454947827188 4.000000000002559
  endloop
endfacet
facet normal -1.0 -1.8365496579205462e-27 -5.4770006677346034e-14
  outer loop
    vertex 87.04338710098237 182.0445494782719 3.205667511924984e-12
    vertex 87.0433871009821 191.04454947827185 4.000000000002257
    vertex 87.04338710098237 191.04454947827193 2.903879217126005e-12
  endloop
endfacet
facet normal 5.175937318719865e-29 -1.0 -1.2469810482676123e-14
  outer loop
    vertex 87.04338710098237 191.04454947827193 2.903879217126005e-12
    vertex 82.04338710098214 191.04454947827185 4.000000000002237
    vertex 82.04338710098233 191.04454947827193 2.8831253438978973e-12
  endloop
endfacet
facet normal 5.175937318719865e-29 -1.0 -1.2469810482676123e-14
  outer loop
    vertex 82.04338710098214 191.04454947827185 4.000000000002237
    vertex 87.04338710098237 191.04454947827193 2.903879217126005e-12
    vertex 87.0433871009821 191.04454947827185 4.000000000002257
  endloop
endfacet
facet normal 1.0 2.506636873375907e-15 5.4770006677346065e-14
  outer loop
    vertex 82.04338710098233 182.0445494782719 2.8831253438978973e-12
    vertex 82.04338710098214 191.04454947827185 4.000000000002237
    vertex 82.04338710098214 182.04454947827188 4.000000000002237
  endloop
endfacet
facet normal 1.0 2.506636873375907e-15 5.4770006677346065e-14
  outer loop
    vertex 82.04338710098214 191.04454947827185 4.000000000002237
    vertex 82.04338710098233 182.0445494782719 2.8831253438978973e-12
    vertex 82.04338710098233 191.04454947827193 2.8831253438978973e-12
  endloop
endfacet
facet normal -1.0 -3.22281883719636e-15 -5.477000667734608e-14
  outer loop
    vertex 83.54338710098207 187.04454947827185 4.000000000001933
    vertex 83.54338710098234 182.0445494782719 2.433326177322373e-12
    vertex 83.54338710098217 182.04454947827188 4.000000000001786
  endloop
endfacet
facet normal -1.0 -3.22281883719636e-15 -5.477000667734608e-14
  outer loop
    vertex 83.54338710098234 182.0445494782719 2.433326177322373e-12
    vertex 83.54338710098207 187.04454947827185 4.000000000001933
    vertex 83.54338710098226 187.04454947827185 2.000000000002492
  endloop
endfacet
facet normal -1.0 -3.22281883719636e-15 -5.477000667734608e-14
  outer loop
    vertex 83.54338710098234 182.0445494782719 2.433326177322373e-12
    vertex 83.54338710098226 187.04454947827185 2.000000000002492
    vertex 83.54338710098234 189.0445494782719 2.591502263712101e-12
  endloop
endfacet
facet normal -1.0 -3.22281883719636e-15 -5.477000667734608e-14
  outer loop
    vertex 83.54338710098234 189.0445494782719 2.591502263712101e-12
    vertex 83.54338710098226 187.04454947827185 2.000000000002492
    vertex 83.54338710098226 189.04454947827185 2.000000000002503
  endloop
endfacet
facet normal -4.3218193315490954e-15 -0.9238795325112827 -0.3826834323650994
  outer loop
    vertex 91.29338710098257 175.43019012432705 8.300000000003667
    vertex 88.79338710098233 175.59003080033446 7.914110472167722
    vertex 91.29338710098249 175.59003080033446 7.914110472167702
  endloop
endfacet
facet normal -4.3218193315490954e-15 -0.9238795325112827 -0.3826834323650994
  outer loop
    vertex 88.79338710098233 175.59003080033446 7.914110472167722
    vertex 91.29338710098257 175.43019012432705 8.300000000003667
    vertex 88.79338710098241 175.430190124327 8.300000000003687
  endloop
endfacet
facet normal -6.388028839076879e-15 0.13052619222004774 -0.9914448613738109
  outer loop
    vertex 91.29338710098249 174.04454947827193 9.100000000003668
    vertex 88.79338710098233 173.63043900610788 9.045481322066198
    vertex 88.79338710098233 174.04454947827193 9.100000000003687
  endloop
endfacet
facet normal -6.388028839076879e-15 0.13052619222004774 -0.9914448613738109
  outer loop
    vertex 88.79338710098233 173.63043900610788 9.045481322066198
    vertex 91.29338710098249 174.04454947827193 9.100000000003668
    vertex 91.29338710098249 173.6304390061079 9.045481322066179
  endloop
endfacet
facet normal 0.39704760238137804 3.035356336192041e-15 0.9177980177812541
  outer loop
    vertex 92.54338710098237 185.54454947827196 17.93750000000371
    vertex 91.1911613337004 199.54454947827193 18.522484918663174
    vertex 91.1911613337004 185.54454947827196 18.52248491866322
  endloop
endfacet
facet normal 0.39704760238137804 3.035356336192041e-15 0.9177980177812541
  outer loop
    vertex 91.1911613337004 199.54454947827193 18.522484918663174
    vertex 92.54338710098237 185.54454947827196 17.93750000000371
    vertex 92.54338710098237 199.54454947827193 17.937500000003663
  endloop
endfacet
facet normal -2.7626094413311624e-15 -0.9914448613738108 -0.13052619222004908
  outer loop
    vertex 91.29338710098249 175.59003080033446 7.914110472167702
    vertex 88.79338710098233 175.64454947827193 7.500000000003689
    vertex 91.29338710098249 175.64454947827193 7.500000000003669
  endloop
endfacet
facet normal -2.7626094413311624e-15 -0.9914448613738108 -0.13052619222004908
  outer loop
    vertex 88.79338710098233 175.64454947827193 7.500000000003689
    vertex 91.29338710098249 175.59003080033446 7.914110472167702
    vertex 88.79338710098233 175.59003080033446 7.914110472167722
  endloop
endfacet
facet normal -1.015132283114581e-15 -0.9914448613738108 0.13052619222004863
  outer loop
    vertex 91.29338710098249 175.64454947827193 7.500000000003669
    vertex 88.79338710098233 175.59003080033446 7.0858895278396545
    vertex 91.29338710098249 175.59003080033446 7.085889527839634
  endloop
endfacet
facet normal -1.015132283114581e-15 -0.9914448613738108 0.13052619222004863
  outer loop
    vertex 88.79338710098233 175.59003080033446 7.0858895278396545
    vertex 91.29338710098249 175.64454947827193 7.500000000003669
    vertex 88.79338710098233 175.64454947827193 7.500000000003689
  endloop
endfacet
facet normal -6.885377972340266e-15 -0.13052619222005107 -0.9914448613738106
  outer loop
    vertex 88.79338710098241 174.458659950436 9.045481322066196
    vertex 91.29338710098249 174.04454947827193 9.100000000003668
    vertex 88.79338710098233 174.04454947827193 9.100000000003687
  endloop
endfacet
facet normal -6.885377972340266e-15 -0.13052619222005107 -0.9914448613738106
  outer loop
    vertex 91.29338710098249 174.04454947827193 9.100000000003668
    vertex 88.79338710098241 174.458659950436 9.045481322066196
    vertex 91.29338710098249 174.458659950436 9.045481322066177
  endloop
endfacet
facet normal -6.913499975413782e-15 -0.38268343236508 -0.923879532511291
  outer loop
    vertex 91.29338710098257 174.84454947827192 8.885640646058777
    vertex 88.79338710098241 174.458659950436 9.045481322066196
    vertex 88.79338710098241 174.84454947827192 8.885640646058796
  endloop
endfacet
facet normal -6.913499975413782e-15 -0.38268343236508 -0.923879532511291
  outer loop
    vertex 88.79338710098241 174.458659950436 9.045481322066196
    vertex 91.29338710098257 174.84454947827192 8.885640646058777
    vertex 91.29338710098249 174.458659950436 9.045481322066177
  endloop
endfacet
facet normal -5.586504376465969e-15 -0.7933533402912355 -0.6087614290087203
  outer loop
    vertex 91.29338710098249 175.1759203281704 8.63137084990215
    vertex 88.79338710098241 175.430190124327 8.300000000003687
    vertex 91.29338710098257 175.43019012432705 8.300000000003667
  endloop
endfacet
facet normal -5.586504376465969e-15 -0.7933533402912355 -0.6087614290087203
  outer loop
    vertex 88.79338710098241 175.430190124327 8.300000000003687
    vertex 91.29338710098249 175.1759203281704 8.63137084990215
    vertex 88.79338710098233 175.1759203281704 8.631370849902172
  endloop
endfacet
facet normal 0.5409925961387199 2.759971444006569e-15 0.8410273544440086
  outer loop
    vertex 93.78250381036192 185.54454947827193 17.140435597777138
    vertex 92.54338710098237 199.54454947827193 17.937500000003663
    vertex 92.54338710098237 185.54454947827196 17.93750000000371
  endloop
endfacet
facet normal 0.5409925961387199 2.759971444006569e-15 0.8410273544440086
  outer loop
    vertex 92.54338710098237 199.54454947827193 17.937500000003663
    vertex 93.78250381036192 185.54454947827193 17.140435597777138
    vertex 93.78250381036192 199.54454947827193 17.140435597777092
  endloop
endfacet
facet normal -0.7822410692923847 5.145290010919888e-15 0.6229758498628233
  outer loop
    vertex 81.71124046333256 199.54454947827193 16.152504701071233
    vertex 80.79338710098234 185.54454947827193 15.000000000003809
    vertex 81.71124046333256 185.54454947827193 16.15250470107135
  endloop
endfacet
facet normal -0.7822410692923847 5.145290010919888e-15 0.6229758498628233
  outer loop
    vertex 80.79338710098234 185.54454947827193 15.000000000003809
    vertex 81.71124046333256 199.54454947827193 16.152504701071233
    vertex 80.79338710098234 199.5445494782719 15.000000000003691
  endloop
endfacet
facet normal 1.0 -4.252881597626003e-27 5.477000667734603e-14
  outer loop
    vertex 85.54338710098234 189.0445494782719 3.1492336637423627e-12
    vertex 85.54338710098216 187.04454947827185 2.000000000002492
    vertex 85.54338710098234 182.0445494782719 2.6056848677971627e-12
  endloop
endfacet
facet normal 1.0 -4.252881597626003e-27 5.477000667734603e-14
  outer loop
    vertex 85.54338710098216 187.04454947827185 2.000000000002492
    vertex 85.54338710098234 189.0445494782719 3.1492336637423627e-12
    vertex 85.54338710098216 189.04454947827185 2.000000000002503
  endloop
endfacet
facet normal 1.0 -4.252881597626003e-27 5.477000667734603e-14
  outer loop
    vertex 85.54338710098234 182.0445494782719 2.6056848677971627e-12
    vertex 85.54338710098216 187.04454947827185 4.000000000002491
    vertex 85.54338710098216 182.04454947827188 4.000000000001959
  endloop
endfacet
facet normal 1.0 -4.252881597626003e-27 5.477000667734603e-14
  outer loop
    vertex 85.54338710098216 187.04454947827185 4.000000000002491
    vertex 85.54338710098234 182.0445494782719 2.6056848677971627e-12
    vertex 85.54338710098216 187.04454947827185 2.000000000002492
  endloop
endfacet
facet normal 5.477000667734603e-14 1.2469810482676123e-14 -1.0
  outer loop
    vertex 82.04338710098214 191.04454947827185 4.000000000002237
    vertex 83.54338710098207 187.04454947827185 4.000000000001933
    vertex 82.04338710098214 182.04454947827188 4.000000000002237
  endloop
endfacet
facet normal 5.477000667734603e-14 1.2469810482676123e-14 -1.0
  outer loop
    vertex 83.54338710098207 187.04454947827185 4.000000000001933
    vertex 82.04338710098214 191.04454947827185 4.000000000002237
    vertex 87.0433871009821 191.04454947827185 4.000000000002257
  endloop
endfacet
facet normal 5.477000667734603e-14 1.2469810482676123e-14 -1.0
  outer loop
    vertex 83.54338710098207 187.04454947827185 4.000000000001933
    vertex 87.0433871009821 191.04454947827185 4.000000000002257
    vertex 85.54338710098216 187.04454947827185 4.000000000002491
  endloop
endfacet
facet normal 5.477000667734603e-14 1.2469810482676123e-14 -1.0
  outer loop
    vertex 85.54338710098216 187.04454947827185 4.000000000002491
    vertex 87.0433871009821 191.04454947827185 4.000000000002257
    vertex 85.54338710098216 182.04454947827188 4.000000000001959
  endloop
endfacet
facet normal 5.477000667734603e-14 1.2469810482676123e-14 -1.0
  outer loop
    vertex 85.54338710098216 182.04454947827188 4.000000000001959
    vertex 87.0433871009821 191.04454947827185 4.000000000002257
    vertex 87.0433871009821 182.04454947827188 4.000000000002559
  endloop
endfacet
facet normal 5.477000667734603e-14 1.2469810482676123e-14 -1.0
  outer loop
    vertex 83.54338710098217 182.04454947827188 4.000000000001786
    vertex 82.04338710098214 182.04454947827188 4.000000000002237
    vertex 83.54338710098207 187.04454947827185 4.000000000001933
  endloop
endfacet
facet normal 1.8252252262626284e-13 5.012320588106661e-14 -1.0
  outer loop
    vertex 85.54338710098234 189.0445494782719 3.1492336637423627e-12
    vertex 83.54338710098234 182.0445494782719 2.433326177322373e-12
    vertex 83.54338710098234 189.0445494782719 2.591502263712101e-12
  endloop
endfacet
facet normal 1.8252252262626284e-13 5.012320588106661e-14 -1.0
  outer loop
    vertex 83.54338710098234 182.0445494782719 2.433326177322373e-12
    vertex 85.54338710098234 189.0445494782719 3.1492336637423627e-12
    vertex 85.54338710098234 182.0445494782719 2.6056848677971627e-12
  endloop
endfacet
facet normal -0.39704760238137804 7.558272387779795e-15 0.9177980177812541
  outer loop
    vertex 85.39561286826438 185.54454947827193 18.522484918663213
    vertex 84.04338710098241 199.54454947827193 17.937500000003585
    vertex 84.04338710098241 185.54454947827193 17.937500000003702
  endloop
endfacet
facet normal -0.39704760238137804 7.558272387779795e-15 0.9177980177812541
  outer loop
    vertex 84.04338710098241 199.54454947827193 17.937500000003585
    vertex 85.39561286826438 185.54454947827193 18.522484918663213
    vertex 85.39561286826438 199.54454947827193 18.522484918663096
  endloop
endfacet
facet normal -1.0 -1.003755224384606e-15 4.527819556375128e-16
  outer loop
    vertex 80.79338710098234 185.54454947827193 15.000000000003809
    vertex 80.79338710098234 182.0445494782719 2.869854758576317
    vertex 80.79338710098234 182.0445494782719 15.000000000003809
  endloop
endfacet
facet normal -1.0 -1.003755224384606e-15 4.527819556375128e-16
  outer loop
    vertex 80.79338710098234 182.0445494782719 2.869854758576317
    vertex 80.79338710098234 185.54454947827193 15.000000000003809
    vertex 80.79338710098234 182.0445494782719 1.4698547585763173
  endloop
endfacet
facet normal -1.0 -1.003755224384606e-15 4.527819556375128e-16
  outer loop
    vertex 80.79338710098234 182.0445494782719 1.4698547585763173
    vertex 80.79338710098234 185.54454947827193 15.000000000003809
    vertex 80.79338710098234 182.0445494782719 3.653241125729091e-12
  endloop
endfacet
facet normal -1.0 -1.003755224384606e-15 4.527819556375128e-16
  outer loop
    vertex 80.79338710098234 182.0445494782719 3.653241125729091e-12
    vertex 80.79338710098234 185.54454947827193 15.000000000003809
    vertex 80.79338710098234 199.544549478272 3.648057957020043e-12
  endloop
endfacet
facet normal -1.0 -1.003755224384606e-15 4.527819556375128e-16
  outer loop
    vertex 80.79338710098234 199.544549478272 3.648057957020043e-12
    vertex 80.79338710098234 185.54454947827193 15.000000000003809
    vertex 80.79338710098234 199.5445494782719 15.000000000003691
  endloop
endfacet
facet normal -2.563558640791317e-15 0.7933533402912266 -0.6087614290087318
  outer loop
    vertex 88.79338710098241 172.6589088322168 8.30000000000365
    vertex 91.29338710098249 172.91317862837346 8.631370849902103
    vertex 91.29338710098249 172.65890883221684 8.30000000000363
  endloop
endfacet
facet normal -2.563558640791317e-15 0.7933533402912266 -0.6087614290087318
  outer loop
    vertex 91.29338710098249 172.91317862837346 8.631370849902103
    vertex 88.79338710098241 172.6589088322168 8.30000000000365
    vertex 88.79338710098241 172.91317862837346 8.631370849902124
  endloop
endfacet
facet normal -8.015244626108751e-16 0.9238795325112881 -0.3826834323650867
  outer loop
    vertex 88.79338710098241 172.4990681562094 7.914110472167683
    vertex 91.29338710098249 172.65890883221684 8.30000000000363
    vertex 91.29338710098249 172.49906815620943 7.914110472167663
  endloop
endfacet
facet normal -8.015244626108751e-16 0.9238795325112881 -0.3826834323650867
  outer loop
    vertex 91.29338710098249 172.65890883221684 8.30000000000363
    vertex 88.79338710098241 172.4990681562094 7.914110472167683
    vertex 88.79338710098241 172.6589088322168 8.30000000000365
  endloop
endfacet
facet normal 1.0151322831144765e-15 0.9914448613738088 -0.13052619222006365
  outer loop
    vertex 88.79338710098241 172.44454947827194 7.500000000003654
    vertex 91.29338710098249 172.49906815620943 7.914110472167663
    vertex 91.29338710098249 172.44454947827194 7.5000000000036335
  endloop
endfacet
facet normal 1.0151322831144765e-15 0.9914448613738088 -0.13052619222006365
  outer loop
    vertex 91.29338710098249 172.49906815620943 7.914110472167663
    vertex 88.79338710098241 172.44454947827194 7.500000000003654
    vertex 88.79338710098241 172.4990681562094 7.914110472167683
  endloop
endfacet
facet normal 2.7626094413311478e-15 0.9914448613738112 0.13052619222004688
  outer loop
    vertex 88.79338710098241 172.4990681562094 7.085889527839614
    vertex 91.29338710098249 172.44454947827194 7.5000000000036335
    vertex 91.29338710098249 172.4990681562094 7.085889527839593
  endloop
endfacet
facet normal 2.7626094413311478e-15 0.9914448613738112 0.13052619222004688
  outer loop
    vertex 91.29338710098249 172.44454947827194 7.5000000000036335
    vertex 88.79338710098241 172.4990681562094 7.085889527839614
    vertex 88.79338710098241 172.44454947827194 7.500000000003654
  endloop
endfacet
facet normal 4.321819331549172e-15 0.9238795325112776 0.3826834323651122
  outer loop
    vertex 88.79338710098233 172.6589088322168 6.70000000000365
    vertex 91.29338710098249 172.4990681562094 7.085889527839593
    vertex 91.29338710098249 172.65890883221684 6.700000000003629
  endloop
endfacet
facet normal 4.321819331549172e-15 0.9238795325112776 0.3826834323651122
  outer loop
    vertex 91.29338710098249 172.4990681562094 7.085889527839593
    vertex 88.79338710098233 172.6589088322168 6.70000000000365
    vertex 88.79338710098241 172.4990681562094 7.085889527839614
  endloop
endfacet
facet normal 5.586504376465969e-15 0.7933533402912355 0.6087614290087203
  outer loop
    vertex 88.79338710098241 172.91317862837346 6.368629150105165
    vertex 91.29338710098249 172.65890883221684 6.700000000003629
    vertex 91.29338710098249 172.91317862837346 6.3686291501051455
  endloop
endfacet
facet normal 5.586504376465969e-15 0.7933533402912355 0.6087614290087203
  outer loop
    vertex 91.29338710098249 172.65890883221684 6.700000000003629
    vertex 88.79338710098241 172.91317862837346 6.368629150105165
    vertex 88.79338710098233 172.6589088322168 6.70000000000365
  endloop
endfacet
facet normal 6.470478380261743e-15 0.6087614290087191 0.7933533402912363
  outer loop
    vertex 88.79338710098241 172.91317862837346 6.368629150105165
    vertex 91.29338710098249 173.24454947827192 6.114359353948515
    vertex 88.79338710098233 173.24454947827192 6.1143593539485455
  endloop
endfacet
facet normal 6.470478380261743e-15 0.6087614290087191 0.7933533402912363
  outer loop
    vertex 91.29338710098249 173.24454947827192 6.114359353948515
    vertex 88.79338710098241 172.91317862837346 6.368629150105165
    vertex 91.29338710098249 172.91317862837346 6.3686291501051455
  endloop
endfacet
facet normal -4.150890534082539e-15 0.6087614290087286 -0.793353340291229
  outer loop
    vertex 91.29338710098249 173.24454947827192 8.88564064605873
    vertex 88.79338710098241 172.91317862837346 8.631370849902124
    vertex 88.79338710098241 173.24454947827192 8.885640646058752
  endloop
endfacet
facet normal -4.150890534082539e-15 0.6087614290087286 -0.793353340291229
  outer loop
    vertex 88.79338710098241 172.91317862837346 8.631370849902124
    vertex 91.29338710098249 173.24454947827192 8.88564064605873
    vertex 91.29338710098249 172.91317862837346 8.631370849902103
  endloop
endfacet
facet normal 6.913499975413841e-15 0.3826834323650108 0.9238795325113195
  outer loop
    vertex 91.29338710098249 173.24454947827192 6.114359353948515
    vertex 88.79338710098233 173.63043900610788 5.954518677941179
    vertex 88.79338710098233 173.24454947827192 6.1143593539485455
  endloop
endfacet
facet normal 6.913499975413841e-15 0.3826834323650108 0.9238795325113195
  outer loop
    vertex 88.79338710098233 173.63043900610788 5.954518677941179
    vertex 91.29338710098249 173.24454947827192 6.114359353948515
    vertex 91.29338710098249 173.6304390061079 5.954518677941149
  endloop
endfacet
facet normal 6.8853779723402634e-15 0.1305261922200494 0.9914448613738107
  outer loop
    vertex 91.29338710098249 173.6304390061079 5.954518677941149
    vertex 88.79338710098233 174.04454947827193 5.900000000003688
    vertex 88.79338710098233 173.63043900610788 5.954518677941179
  endloop
endfacet
facet normal 6.8853779723402634e-15 0.1305261922200494 0.9914448613738107
  outer loop
    vertex 88.79338710098233 174.04454947827193 5.900000000003688
    vertex 91.29338710098249 173.6304390061079 5.954518677941149
    vertex 91.29338710098249 174.04454947827193 5.900000000003659
  endloop
endfacet
facet normal 6.38802883907688e-15 -0.13052619222004785 0.991444861373811
  outer loop
    vertex 91.29338710098249 174.04454947827193 5.900000000003659
    vertex 88.79338710098233 174.45865995043593 5.954518677941177
    vertex 88.79338710098233 174.04454947827193 5.900000000003688
  endloop
endfacet
facet normal 6.38802883907688e-15 -0.13052619222004785 0.991444861373811
  outer loop
    vertex 88.79338710098233 174.45865995043593 5.954518677941177
    vertex 91.29338710098249 174.04454947827193 5.900000000003659
    vertex 91.29338710098249 174.458659950436 5.954518677941148
  endloop
endfacet
facet normal 5.4553460971471805e-15 -0.3826834323650891 0.923879532511287
  outer loop
    vertex 91.29338710098249 174.458659950436 5.954518677941148
    vertex 88.79338710098233 174.84454947827192 6.114359353948586
    vertex 88.79338710098233 174.45865995043593 5.954518677941177
  endloop
endfacet
facet normal 5.4553460971471805e-15 -0.3826834323650891 0.923879532511287
  outer loop
    vertex 88.79338710098233 174.84454947827192 6.114359353948586
    vertex 91.29338710098249 174.458659950436 5.954518677941148
    vertex 91.29338710098249 174.84454947827192 6.114359353948557
  endloop
endfacet
facet normal 4.150890534082583e-15 -0.6087614290087223 0.793353340291234
  outer loop
    vertex 91.29338710098249 174.84454947827192 6.114359353948557
    vertex 88.79338710098233 175.1759203281704 6.3686291501052095
    vertex 88.79338710098233 174.84454947827192 6.114359353948586
  endloop
endfacet
facet normal 4.150890534082583e-15 -0.6087614290087223 0.793353340291234
  outer loop
    vertex 88.79338710098233 175.1759203281704 6.3686291501052095
    vertex 91.29338710098249 174.84454947827192 6.114359353948557
    vertex 91.29338710098249 175.1759203281704 6.368629150105189
  endloop
endfacet
facet normal 2.5635586407912504e-15 -0.7933533402912328 0.6087614290087237
  outer loop
    vertex 91.29338710098249 175.43019012432705 6.700000000003671
    vertex 88.79338710098233 175.1759203281704 6.3686291501052095
    vertex 91.29338710098249 175.1759203281704 6.368629150105189
  endloop
endfacet
facet normal 2.5635586407912504e-15 -0.7933533402912328 0.6087614290087237
  outer loop
    vertex 88.79338710098233 175.1759203281704 6.3686291501052095
    vertex 91.29338710098249 175.43019012432705 6.700000000003671
    vertex 88.79338710098233 175.430190124327 6.700000000003691
  endloop
endfacet
facet normal 8.015244626108933e-16 -0.9238795325112872 0.3826834323650891
  outer loop
    vertex 91.29338710098249 175.59003080033446 7.085889527839634
    vertex 88.79338710098233 175.430190124327 6.700000000003691
    vertex 91.29338710098249 175.43019012432705 6.700000000003671
  endloop
endfacet
facet normal 8.015244626108933e-16 -0.9238795325112872 0.3826834323650891
  outer loop
    vertex 88.79338710098233 175.430190124327 6.700000000003691
    vertex 91.29338710098249 175.59003080033446 7.085889527839634
    vertex 88.79338710098233 175.59003080033446 7.0858895278396545
  endloop
endfacet
facet normal -6.470478380261726e-15 -0.6087614290087244 -0.7933533402912323
  outer loop
    vertex 91.29338710098249 175.1759203281704 8.63137084990215
    vertex 88.79338710098241 174.84454947827192 8.885640646058796
    vertex 88.79338710098233 175.1759203281704 8.631370849902172
  endloop
endfacet
facet normal -6.470478380261726e-15 -0.6087614290087244 -0.7933533402912323
  outer loop
    vertex 88.79338710098241 174.84454947827192 8.885640646058796
    vertex 91.29338710098249 175.1759203281704 8.63137084990215
    vertex 91.29338710098257 174.84454947827192 8.885640646058777
  endloop
endfacet
facet normal -5.455346097146801e-15 0.3826834323651702 -0.9238795325112534
  outer loop
    vertex 91.29338710098249 173.6304390061079 9.045481322066179
    vertex 88.79338710098241 173.24454947827192 8.885640646058752
    vertex 88.79338710098233 173.63043900610788 9.045481322066198
  endloop
endfacet
facet normal -5.455346097146801e-15 0.3826834323651702 -0.9238795325112534
  outer loop
    vertex 88.79338710098241 173.24454947827192 8.885640646058752
    vertex 91.29338710098249 173.6304390061079 9.045481322066179
    vertex 91.29338710098249 173.24454947827192 8.88564064605873
  endloop
endfacet
facet normal -0.0815688297958495 5.821583166257593e-15 0.996667710927637
  outer loop
    vertex 88.29338710098236 185.54454947827196 19.00000000000366
    vertex 86.82495969754088 199.54454947827193 18.87982162598221
    vertex 86.82495969754088 185.54454947827196 18.879821625982327
  endloop
endfacet
facet normal -0.0815688297958495 5.821583166257593e-15 0.996667710927637
  outer loop
    vertex 86.82495969754088 199.54454947827193 18.87982162598221
    vertex 88.29338710098236 185.54454947827196 19.00000000000366
    vertex 88.29338710098236 199.54454947827193 19.000000000003613
  endloop
endfacet
facet normal -0.24253562503632756 7.987209639289217e-15 0.9701425001453332
  outer loop
    vertex 86.82495969754088 185.54454947827196 18.879821625982327
    vertex 85.39561286826438 199.54454947827193 18.522484918663096
    vertex 85.39561286826438 185.54454947827193 18.522484918663213
  endloop
endfacet
facet normal -0.24253562503632756 7.987209639289217e-15 0.9701425001453332
  outer loop
    vertex 85.39561286826438 199.54454947827193 18.522484918663096
    vertex 86.82495969754088 185.54454947827196 18.879821625982327
    vertex 86.82495969754088 199.54454947827193 18.87982162598221
  endloop
endfacet
facet normal -0.5409925961387226 6.92818006117583e-15 0.8410273544440068
  outer loop
    vertex 84.04338710098241 185.54454947827193 17.937500000003702
    vertex 82.80427039160287 199.54454947827193 17.14043559777701
    vertex 82.80427039160287 185.54454947827193 17.140435597777124
  endloop
endfacet
facet normal -0.5409925961387226 6.92818006117583e-15 0.8410273544440068
  outer loop
    vertex 82.80427039160287 199.54454947827193 17.14043559777701
    vertex 84.04338710098241 185.54454947827193 17.937500000003702
    vertex 84.04338710098241 199.54454947827193 17.937500000003585
  endloop
endfacet
facet normal -0.6705396692180785 6.1137018711135265e-15 0.7418736765817412
  outer loop
    vertex 82.80427039160287 185.54454947827193 17.140435597777124
    vertex 81.71124046333256 199.54454947827193 16.152504701071233
    vertex 81.71124046333256 185.54454947827193 16.15250470107135
  endloop
endfacet
facet normal -0.6705396692180785 6.1137018711135265e-15 0.7418736765817412
  outer loop
    vertex 81.71124046333256 199.54454947827193 16.152504701071233
    vertex 82.80427039160287 185.54454947827193 17.140435597777124
    vertex 82.80427039160287 199.54454947827193 17.14043559777701
  endloop
endfacet
facet normal 0.7822410692923812 2.1343423377392756e-15 0.6229758498628274
  outer loop
    vertex 95.79338710098246 199.54454947827193 15.000000000003782
    vertex 94.87553373863214 185.54454947827193 16.152504701071365
    vertex 95.79338710098246 185.54454947827193 15.00000000000383
  endloop
endfacet
facet normal 0.7822410692923812 2.1343423377392756e-15 0.6229758498628274
  outer loop
    vertex 94.87553373863214 185.54454947827193 16.152504701071365
    vertex 95.79338710098246 199.54454947827193 15.000000000003782
    vertex 94.87553373863214 199.54454947827193 16.15250470107132
  endloop
endfacet
facet normal 0.6705396692180755 2.4111329589107015e-15 0.7418736765817439
  outer loop
    vertex 94.87553373863214 185.54454947827193 16.152504701071365
    vertex 93.78250381036192 199.54454947827193 17.140435597777092
    vertex 93.78250381036192 185.54454947827193 17.140435597777138
  endloop
endfacet
facet normal 0.6705396692180755 2.4111329589107015e-15 0.7418736765817439
  outer loop
    vertex 93.78250381036192 199.54454947827193 17.140435597777092
    vertex 94.87553373863214 185.54454947827193 16.152504701071365
    vertex 94.87553373863214 199.54454947827193 16.15250470107132
  endloop
endfacet
facet normal 0.24253562503632398 3.2299585705928428e-15 0.9701425001453342
  outer loop
    vertex 91.1911613337004 185.54454947827196 18.52248491866322
    vertex 89.76181450442391 199.54454947827193 18.87982162598228
    vertex 89.76181450442391 185.54454947827196 18.879821625982327
  endloop
endfacet
facet normal 0.24253562503632398 3.2299585705928428e-15 0.9701425001453342
  outer loop
    vertex 89.76181450442391 199.54454947827193 18.87982162598228
    vertex 91.1911613337004 185.54454947827196 18.52248491866322
    vertex 91.1911613337004 199.54454947827193 18.522484918663174
  endloop
endfacet
facet normal 0.0815688297958248 3.412492753533052e-15 0.9966677109276392
  outer loop
    vertex 89.76181450442391 185.54454947827196 18.879821625982327
    vertex 88.29338710098236 199.54454947827193 19.000000000003613
    vertex 88.29338710098236 185.54454947827196 19.00000000000366
  endloop
endfacet
facet normal 0.0815688297958248 3.412492753533052e-15 0.9966677109276392
  outer loop
    vertex 88.29338710098236 199.54454947827193 19.000000000003613
    vertex 89.76181450442391 185.54454947827196 18.879821625982327
    vertex 89.76181450442391 199.54454947827193 18.87982162598228
  endloop
endfacet
facet normal 1.1603655459567113e-15 -1.0 6.943389120539188e-15
  outer loop
    vertex 95.79338710098246 185.54454947827193 15.00000000000383
    vertex 90.29338710098244 185.54454947827193 17.00000000000389
    vertex 90.29338710098244 185.54454947827193 15.000000000003821
  endloop
endfacet
facet normal 1.1603655459567113e-15 -1.0 6.943389120539188e-15
  outer loop
    vertex 90.29338710098244 185.54454947827193 17.00000000000389
    vertex 95.79338710098246 185.54454947827193 15.00000000000383
    vertex 94.87553373863214 185.54454947827193 16.152504701071365
  endloop
endfacet
facet normal 1.1603655459567113e-15 -1.0 6.943389120539188e-15
  outer loop
    vertex 90.29338710098244 185.54454947827193 17.00000000000389
    vertex 94.87553373863214 185.54454947827193 16.152504701071365
    vertex 93.78250381036192 185.54454947827193 17.140435597777138
  endloop
endfacet
facet normal 1.1603655459567113e-15 -1.0 6.943389120539188e-15
  outer loop
    vertex 90.29338710098244 185.54454947827193 17.00000000000389
    vertex 93.78250381036192 185.54454947827193 17.140435597777138
    vertex 82.80427039160287 185.54454947827193 17.140435597777124
  endloop
endfacet
facet normal 1.1603655459567113e-15 -1.0 6.943389120539188e-15
  outer loop
    vertex 82.80427039160287 185.54454947827193 17.140435597777124
    vertex 93.78250381036192 185.54454947827193 17.140435597777138
    vertex 84.04338710098241 185.54454947827193 17.937500000003702
  endloop
endfacet
facet normal 1.1603655459567113e-15 -1.0 6.943389120539188e-15
  outer loop
    vertex 84.04338710098241 185.54454947827193 17.937500000003702
    vertex 93.78250381036192 185.54454947827193 17.140435597777138
    vertex 92.54338710098237 185.54454947827196 17.93750000000371
  endloop
endfacet
facet normal 1.1603655459567113e-15 -1.0 6.943389120539188e-15
  outer loop
    vertex 84.04338710098241 185.54454947827193 17.937500000003702
    vertex 92.54338710098237 185.54454947827196 17.93750000000371
    vertex 85.39561286826438 185.54454947827193 18.522484918663213
  endloop
endfacet
facet normal 1.1603655459567113e-15 -1.0 6.943389120539188e-15
  outer loop
    vertex 85.39561286826438 185.54454947827193 18.522484918663213
    vertex 92.54338710098237 185.54454947827196 17.93750000000371
    vertex 91.1911613337004 185.54454947827196 18.52248491866322
  endloop
endfacet
facet normal 1.1603655459567113e-15 -1.0 6.943389120539188e-15
  outer loop
    vertex 85.39561286826438 185.54454947827193 18.522484918663213
    vertex 91.1911613337004 185.54454947827196 18.52248491866322
    vertex 86.82495969754088 185.54454947827196 18.879821625982327
  endloop
endfacet
facet normal 1.1603655459567113e-15 -1.0 6.943389120539188e-15
  outer loop
    vertex 86.82495969754088 185.54454947827196 18.879821625982327
    vertex 91.1911613337004 185.54454947827196 18.52248491866322
    vertex 89.76181450442391 185.54454947827196 18.879821625982327
  endloop
endfacet
facet normal 1.1603655459567113e-15 -1.0 6.943389120539188e-15
  outer loop
    vertex 86.82495969754088 185.54454947827196 18.879821625982327
    vertex 89.76181450442391 185.54454947827196 18.879821625982327
    vertex 88.29338710098236 185.54454947827196 19.00000000000366
  endloop
endfacet
facet normal 1.1603655459567113e-15 -1.0 6.943389120539188e-15
  outer loop
    vertex 86.29338710098236 185.54454947827193 15.000000000003816
    vertex 81.71124046333256 185.54454947827193 16.15250470107135
    vertex 80.79338710098234 185.54454947827193 15.000000000003809
  endloop
endfacet
facet normal 1.1603655459567113e-15 -1.0 6.943389120539188e-15
  outer loop
    vertex 81.71124046333256 185.54454947827193 16.15250470107135
    vertex 86.29338710098236 185.54454947827193 15.000000000003816
    vertex 86.29338710098236 185.54454947827193 17.000000000003876
  endloop
endfacet
facet normal 1.1603655459567113e-15 -1.0 6.943389120539188e-15
  outer loop
    vertex 81.71124046333256 185.54454947827193 16.15250470107135
    vertex 86.29338710098236 185.54454947827193 17.000000000003876
    vertex 82.80427039160287 185.54454947827193 17.140435597777124
  endloop
endfacet
facet normal 1.1603655459567113e-15 -1.0 6.943389120539188e-15
  outer loop
    vertex 82.80427039160287 185.54454947827193 17.140435597777124
    vertex 86.29338710098236 185.54454947827193 17.000000000003876
    vertex 90.29338710098244 185.54454947827193 17.00000000000389
  endloop
endfacet
facet normal 0.0 1.0 0.0
  outer loop
    vertex 84.79338710098233 197.544549478272 13.500000000004386
    vertex 86.29338710098236 197.544549478272 15.000000000004727
    vertex 91.79338710098237 197.544549478272 13.50000000000598
  endloop
endfacet
facet normal 0.0 1.0 0.0
  outer loop
    vertex 86.29338710098236 197.544549478272 15.000000000004727
    vertex 84.79338710098233 197.544549478272 13.500000000004386
    vertex 84.79338710098233 197.544549478272 17.00000000000423
  endloop
endfacet
facet normal 0.0 1.0 0.0
  outer loop
    vertex 86.29338710098236 197.544549478272 15.000000000004727
    vertex 84.79338710098233 197.544549478272 17.00000000000423
    vertex 86.29338710098236 197.544549478272 17.00000000000423
  endloop
endfacet
facet normal 0.0 1.0 0.0
  outer loop
    vertex 91.79338710098237 197.544549478272 13.50000000000598
    vertex 90.29338710098234 197.544549478272 15.000000000005638
    vertex 91.79338710098237 197.544549478272 17.00000000000433
  endloop
endfacet
facet normal 0.0 1.0 0.0
  outer loop
    vertex 90.29338710098234 197.544549478272 15.000000000005638
    vertex 91.79338710098237 197.544549478272 13.50000000000598
    vertex 86.29338710098236 197.544549478272 15.000000000004727
  endloop
endfacet
facet normal 0.0 1.0 0.0
  outer loop
    vertex 91.79338710098237 197.544549478272 17.00000000000433
    vertex 90.29338710098234 197.544549478272 15.000000000005638
    vertex 90.29338710098234 197.544549478272 17.000000000004327
  endloop
endfacet
facet normal -2.213741743366134e-17 1.0 6.892411205665242e-16
  outer loop
    vertex 80.79338710098234 199.5445494782719 15.000000000003691
    vertex 95.79338710098236 199.544549478272 3.648057957020043e-12
    vertex 80.79338710098234 199.544549478272 3.648057957020043e-12
  endloop
endfacet
facet normal -2.213741743366134e-17 1.0 6.892411205665242e-16
  outer loop
    vertex 95.79338710098236 199.544549478272 3.648057957020043e-12
    vertex 80.79338710098234 199.5445494782719 15.000000000003691
    vertex 84.79338710098233 199.544549478272 13.500000000004386
  endloop
endfacet
facet normal -2.213741743366134e-17 1.0 6.892411205665242e-16
  outer loop
    vertex 84.79338710098233 199.544549478272 13.500000000004386
    vertex 80.79338710098234 199.5445494782719 15.000000000003691
    vertex 84.79338710098233 199.544549478272 17.00000000000423
  endloop
endfacet
facet normal -2.213741743366134e-17 1.0 6.892411205665242e-16
  outer loop
    vertex 84.79338710098233 199.544549478272 17.00000000000423
    vertex 80.79338710098234 199.5445494782719 15.000000000003691
    vertex 81.71124046333256 199.54454947827193 16.152504701071233
  endloop
endfacet
facet normal -2.213741743366134e-17 1.0 6.892411205665242e-16
  outer loop
    vertex 84.79338710098233 199.544549478272 17.00000000000423
    vertex 81.71124046333256 199.54454947827193 16.152504701071233
    vertex 82.80427039160287 199.54454947827193 17.14043559777701
  endloop
endfacet
facet normal -2.213741743366134e-17 1.0 6.892411205665242e-16
  outer loop
    vertex 84.79338710098233 199.544549478272 17.00000000000423
    vertex 82.80427039160287 199.54454947827193 17.14043559777701
    vertex 91.79338710098237 199.544549478272 17.00000000000433
  endloop
endfacet
facet normal -2.213741743366134e-17 1.0 6.892411205665242e-16
  outer loop
    vertex 95.79338710098236 199.544549478272 3.648057957020043e-12
    vertex 91.79338710098237 199.544549478272 13.50000000000598
    vertex 95.79338710098246 199.54454947827193 15.000000000003782
  endloop
endfacet
facet normal -2.213741743366134e-17 1.0 6.892411205665242e-16
  outer loop
    vertex 91.79338710098237 199.544549478272 13.50000000000598
    vertex 95.79338710098236 199.544549478272 3.648057957020043e-12
    vertex 84.79338710098233 199.544549478272 13.500000000004386
  endloop
endfacet
facet normal -2.213741743366134e-17 1.0 6.892411205665242e-16
  outer loop
    vertex 95.79338710098246 199.54454947827193 15.000000000003782
    vertex 91.79338710098237 199.544549478272 13.50000000000598
    vertex 91.79338710098237 199.544549478272 17.00000000000433
  endloop
endfacet
facet normal -2.213741743366134e-17 1.0 6.892411205665242e-16
  outer loop
    vertex 95.79338710098246 199.54454947827193 15.000000000003782
    vertex 91.79338710098237 199.544549478272 17.00000000000433
    vertex 94.87553373863214 199.54454947827193 16.15250470107132
  endloop
endfacet
facet normal -2.213741743366134e-17 1.0 6.892411205665242e-16
  outer loop
    vertex 94.87553373863214 199.54454947827193 16.15250470107132
    vertex 91.79338710098237 199.544549478272 17.00000000000433
    vertex 93.78250381036192 199.54454947827193 17.140435597777092
  endloop
endfacet
facet normal -2.213741743366134e-17 1.0 6.892411205665242e-16
  outer loop
    vertex 93.78250381036192 199.54454947827193 17.140435597777092
    vertex 91.79338710098237 199.544549478272 17.00000000000433
    vertex 82.80427039160287 199.54454947827193 17.14043559777701
  endloop
endfacet
facet normal -2.213741743366134e-17 1.0 6.892411205665242e-16
  outer loop
    vertex 93.78250381036192 199.54454947827193 17.140435597777092
    vertex 82.80427039160287 199.54454947827193 17.14043559777701
    vertex 84.04338710098241 199.54454947827193 17.937500000003585
  endloop
endfacet
facet normal -2.213741743366134e-17 1.0 6.892411205665242e-16
  outer loop
    vertex 93.78250381036192 199.54454947827193 17.140435597777092
    vertex 84.04338710098241 199.54454947827193 17.937500000003585
    vertex 92.54338710098237 199.54454947827193 17.937500000003663
  endloop
endfacet
facet normal -2.213741743366134e-17 1.0 6.892411205665242e-16
  outer loop
    vertex 92.54338710098237 199.54454947827193 17.937500000003663
    vertex 84.04338710098241 199.54454947827193 17.937500000003585
    vertex 85.39561286826438 199.54454947827193 18.522484918663096
  endloop
endfacet
facet normal -2.213741743366134e-17 1.0 6.892411205665242e-16
  outer loop
    vertex 92.54338710098237 199.54454947827193 17.937500000003663
    vertex 85.39561286826438 199.54454947827193 18.522484918663096
    vertex 91.1911613337004 199.54454947827193 18.522484918663174
  endloop
endfacet
facet normal -2.213741743366134e-17 1.0 6.892411205665242e-16
  outer loop
    vertex 91.1911613337004 199.54454947827193 18.522484918663174
    vertex 85.39561286826438 199.54454947827193 18.522484918663096
    vertex 86.82495969754088 199.54454947827193 18.87982162598221
  endloop
endfacet
facet normal -2.213741743366134e-17 1.0 6.892411205665242e-16
  outer loop
    vertex 91.1911613337004 199.54454947827193 18.522484918663174
    vertex 86.82495969754088 199.54454947827193 18.87982162598221
    vertex 89.76181450442391 199.54454947827193 18.87982162598228
  endloop
endfacet
facet normal -2.213741743366134e-17 1.0 6.892411205665242e-16
  outer loop
    vertex 89.76181450442391 199.54454947827193 18.87982162598228
    vertex 86.82495969754088 199.54454947827193 18.87982162598221
    vertex 88.29338710098236 199.54454947827193 19.000000000003613
  endloop
endfacet
facet normal -2.2761158037707886e-13 0.0 1.0
  outer loop
    vertex 91.79338710098237 197.544549478272 13.50000000000598
    vertex 84.79338710098233 199.544549478272 13.500000000004386
    vertex 84.79338710098233 197.544549478272 13.500000000004386
  endloop
endfacet
facet normal -2.2761158037707886e-13 0.0 1.0
  outer loop
    vertex 84.79338710098233 199.544549478272 13.500000000004386
    vertex 91.79338710098237 197.544549478272 13.50000000000598
    vertex 91.79338710098237 199.544549478272 13.50000000000598
  endloop
endfacet
facet normal 1.0 1.4099832412738807e-15 1.4099832412742972e-15
  outer loop
    vertex 86.29338710098236 197.544549478272 15.000000000004727
    vertex 86.29338710098236 185.54454947827193 17.000000000003876
    vertex 86.29338710098236 185.54454947827193 15.000000000003816
  endloop
endfacet
facet normal 1.0 1.4099832412738807e-15 1.4099832412742972e-15
  outer loop
    vertex 86.29338710098236 185.54454947827193 17.000000000003876
    vertex 86.29338710098236 197.544549478272 15.000000000004727
    vertex 86.29338710098236 197.544549478272 17.00000000000423
  endloop
endfacet
facet normal -1.0 -1.6114094185985667e-15 -2.819966482548775e-15
  outer loop
    vertex 90.29338710098234 197.544549478272 17.000000000004327
    vertex 90.29338710098244 185.54454947827193 15.000000000003821
    vertex 90.29338710098244 185.54454947827193 17.00000000000389
  endloop
endfacet
facet normal -1.0 -1.6114094185985667e-15 -2.819966482548775e-15
  outer loop
    vertex 90.29338710098244 185.54454947827193 15.000000000003821
    vertex 90.29338710098234 197.544549478272 17.000000000004327
    vertex 90.29338710098234 197.544549478272 15.000000000005638
  endloop
endfacet
facet normal 1.0 7.296948310636065e-16 -4.161963110510882e-16
  outer loop
    vertex 95.79338710098236 199.544549478272 3.648057957020043e-12
    vertex 95.79338710098246 182.04454947827196 15.00000000000383
    vertex 95.79338710098246 182.04454947827196 3.653758119584225e-12
  endloop
endfacet
facet normal 1.0 7.296948310636065e-16 -4.161963110510882e-16
  outer loop
    vertex 95.79338710098246 182.04454947827196 15.00000000000383
    vertex 95.79338710098236 199.544549478272 3.648057957020043e-12
    vertex 95.79338710098246 185.54454947827193 15.00000000000383
  endloop
endfacet
facet normal 1.0 7.296948310636065e-16 -4.161963110510882e-16
  outer loop
    vertex 95.79338710098246 185.54454947827193 15.00000000000383
    vertex 95.79338710098236 199.544549478272 3.648057957020043e-12
    vertex 95.79338710098246 199.54454947827193 15.000000000003782
  endloop
endfacet
facet normal 3.9546940313022276e-15 -1.0 -3.8066695282450315e-30
  outer loop
    vertex 95.79338710098246 182.04454947827196 15.00000000000383
    vertex 91.29338710098239 182.0445494782719 3.732427610794615e-12
    vertex 95.79338710098246 182.04454947827196 3.653758119584225e-12
  endloop
endfacet
facet normal 3.9546940313022276e-15 -1.0 -3.8066695282450315e-30
  outer loop
    vertex 91.29338710098239 182.0445494782719 3.732427610794615e-12
    vertex 95.79338710098246 182.04454947827196 15.00000000000383
    vertex 91.29338710098239 182.0445494782719 15.000000000003661
  endloop
endfacet
facet normal -1.9773470156511158e-15 -1.0 7.51991062012763e-16
  outer loop
    vertex 85.54338710098234 182.0445494782719 2.6056848677971627e-12
    vertex 83.54338710098217 182.04454947827188 4.000000000001786
    vertex 83.54338710098234 182.0445494782719 2.433326177322373e-12
  endloop
endfacet
facet normal -1.9773470156511158e-15 -1.0 7.51991062012763e-16
  outer loop
    vertex 83.54338710098217 182.04454947827188 4.000000000001786
    vertex 85.54338710098234 182.0445494782719 2.6056848677971627e-12
    vertex 85.54338710098216 182.04454947827188 4.000000000001959
  endloop
endfacet
facet normal -1.9773470156511158e-15 -1.0 7.51991062012763e-16
  outer loop
    vertex 83.54338710098217 182.04454947827188 4.000000000001786
    vertex 85.54338710098216 182.04454947827188 4.000000000001959
    vertex 82.04338710098214 182.04454947827188 4.000000000002237
  endloop
endfacet
facet normal -1.9773470156511158e-15 -1.0 7.51991062012763e-16
  outer loop
    vertex 82.04338710098214 182.04454947827188 4.000000000002237
    vertex 85.54338710098216 182.04454947827188 4.000000000001959
    vertex 87.0433871009821 182.04454947827188 4.000000000002559
  endloop
endfacet
facet normal -1.9773470156511158e-15 -1.0 7.51991062012763e-16
  outer loop
    vertex 88.79338710098233 182.0445494782719 3.719837056606518e-12
    vertex 87.0433871009821 182.04454947827188 4.000000000002559
    vertex 87.04338710098237 182.0445494782719 3.205667511924984e-12
  endloop
endfacet
facet normal -1.9773470156511158e-15 -1.0 7.51991062012763e-16
  outer loop
    vertex 87.0433871009821 182.04454947827188 4.000000000002559
    vertex 88.79338710098233 182.0445494782719 3.719837056606518e-12
    vertex 88.79338710098233 182.0445494782719 15.000000000003656
  endloop
endfacet
facet normal -1.9773470156511158e-15 -1.0 7.51991062012763e-16
  outer loop
    vertex 82.04338710098214 182.04454947827188 4.000000000002237
    vertex 80.79338710098234 182.0445494782719 3.653241125729091e-12
    vertex 82.04338710098233 182.0445494782719 2.8831253438978973e-12
  endloop
endfacet
facet normal -1.9773470156511158e-15 -1.0 7.51991062012763e-16
  outer loop
    vertex 80.79338710098234 182.0445494782719 3.653241125729091e-12
    vertex 82.04338710098214 182.04454947827188 4.000000000002237
    vertex 80.79338710098234 182.0445494782719 1.4698547585763173
  endloop
endfacet
facet normal -1.9773470156511158e-15 -1.0 7.51991062012763e-16
  outer loop
    vertex 80.79338710098234 182.0445494782719 1.4698547585763173
    vertex 82.04338710098214 182.04454947827188 4.000000000002237
    vertex 80.79338710098234 182.0445494782719 2.869854758576317
  endloop
endfacet
facet normal -1.9773470156511158e-15 -1.0 7.51991062012763e-16
  outer loop
    vertex 80.79338710098234 182.0445494782719 2.869854758576317
    vertex 82.04338710098214 182.04454947827188 4.000000000002237
    vertex 80.79338710098234 182.0445494782719 15.000000000003809
  endloop
endfacet
facet normal -1.9773470156511158e-15 -1.0 7.51991062012763e-16
  outer loop
    vertex 80.79338710098234 182.0445494782719 15.000000000003809
    vertex 82.04338710098214 182.04454947827188 4.000000000002237
    vertex 87.0433871009821 182.04454947827188 4.000000000002559
  endloop
endfacet
facet normal -1.9773470156511158e-15 -1.0 7.51991062012763e-16
  outer loop
    vertex 80.79338710098234 182.0445494782719 15.000000000003809
    vertex 87.0433871009821 182.04454947827188 4.000000000002559
    vertex 88.79338710098233 182.0445494782719 15.000000000003656
  endloop
endfacet
facet normal 2.8985630078928035e-14 -5.832387592443422e-15 -1.0
  outer loop
    vertex 80.79338710098234 199.544549478272 3.648057957020043e-12
    vertex 82.04338710098233 191.04454947827193 2.8831253438978973e-12
    vertex 80.79338710098234 182.0445494782719 3.653241125729091e-12
  endloop
endfacet
facet normal 2.8985630078928035e-14 -5.832387592443422e-15 -1.0
  outer loop
    vertex 82.04338710098233 191.04454947827193 2.8831253438978973e-12
    vertex 80.79338710098234 199.544549478272 3.648057957020043e-12
    vertex 95.79338710098236 199.544549478272 3.648057957020043e-12
  endloop
endfacet
facet normal 2.8985630078928035e-14 -5.832387592443422e-15 -1.0
  outer loop
    vertex 82.04338710098233 191.04454947827193 2.8831253438978973e-12
    vertex 95.79338710098236 199.544549478272 3.648057957020043e-12
    vertex 87.04338710098237 191.04454947827193 2.903879217126005e-12
  endloop
endfacet
facet normal 2.8985630078928035e-14 -5.832387592443422e-15 -1.0
  outer loop
    vertex 87.04338710098237 191.04454947827193 2.903879217126005e-12
    vertex 95.79338710098236 199.544549478272 3.648057957020043e-12
    vertex 87.04338710098237 182.0445494782719 3.205667511924984e-12
  endloop
endfacet
facet normal 2.8985630078928035e-14 -5.832387592443422e-15 -1.0
  outer loop
    vertex 87.04338710098237 182.0445494782719 3.205667511924984e-12
    vertex 95.79338710098236 199.544549478272 3.648057957020043e-12
    vertex 88.79338710098233 182.0445494782719 3.719837056606518e-12
  endloop
endfacet
facet normal 2.8985630078928035e-14 -5.832387592443422e-15 -1.0
  outer loop
    vertex 88.79338710098233 182.0445494782719 3.719837056606518e-12
    vertex 95.79338710098236 199.544549478272 3.648057957020043e-12
    vertex 91.29338710098239 182.0445494782719 3.732427610794615e-12
  endloop
endfacet
facet normal 2.8985630078928035e-14 -5.832387592443422e-15 -1.0
  outer loop
    vertex 88.79338710098233 182.0445494782719 3.719837056606518e-12
    vertex 91.29338710098239 182.0445494782719 3.732427610794615e-12
    vertex 88.79338710098241 165.54454947827193 3.652614625281416e-12
  endloop
endfacet
facet normal 2.8985630078928035e-14 -5.832387592443422e-15 -1.0
  outer loop
    vertex 91.29338710098239 182.0445494782719 3.732427610794615e-12
    vertex 95.79338710098236 199.544549478272 3.648057957020043e-12
    vertex 95.79338710098246 182.04454947827196 3.653758119584225e-12
  endloop
endfacet
facet normal 2.8985630078928035e-14 -5.832387592443422e-15 -1.0
  outer loop
    vertex 91.29338710098249 165.54454947827193 3.7210875152653375e-12
    vertex 88.79338710098241 165.54454947827193 3.652614625281416e-12
    vertex 91.29338710098239 182.0445494782719 3.732427610794615e-12
  endloop
endfacet
facet normal 2.8985630078928035e-14 -5.832387592443422e-15 -1.0
  outer loop
    vertex 82.04338710098233 182.0445494782719 2.8831253438978973e-12
    vertex 80.79338710098234 182.0445494782719 3.653241125729091e-12
    vertex 82.04338710098233 191.04454947827193 2.8831253438978973e-12
  endloop
endfacet
facet normal -1.0 -2.058348630908725e-15 -5.703211203446882e-15
  outer loop
    vertex 88.79338710098224 172.03018333529965 14.800629915019533
    vertex 88.79338710098241 172.4990681562094 7.914110472167683
    vertex 88.79338710098241 172.44454947827194 7.500000000003654
  endloop
endfacet
facet normal -1.0 -2.058348630908725e-15 -5.703211203446882e-15
  outer loop
    vertex 88.79338710098241 172.4990681562094 7.914110472167683
    vertex 88.79338710098224 172.03018333529965 14.800629915019533
    vertex 88.79338710098224 174.04454947827193 15.000000000003666
  endloop
endfacet
facet normal -1.0 -2.058348630908725e-15 -5.703211203446882e-15
  outer loop
    vertex 88.79338710098241 172.4990681562094 7.914110472167683
    vertex 88.79338710098224 174.04454947827193 15.000000000003666
    vertex 88.79338710098241 172.6589088322168 8.30000000000365
  endloop
endfacet
facet normal -1.0 -2.058348630908725e-15 -5.703211203446882e-15
  outer loop
    vertex 88.79338710098241 172.6589088322168 8.30000000000365
    vertex 88.79338710098224 174.04454947827193 15.000000000003666
    vertex 88.79338710098241 172.91317862837346 8.631370849902124
  endloop
endfacet
facet normal -1.0 -2.058348630908725e-15 -5.703211203446882e-15
  outer loop
    vertex 88.79338710098241 172.91317862837346 8.631370849902124
    vertex 88.79338710098224 174.04454947827193 15.000000000003666
    vertex 88.79338710098241 173.24454947827192 8.885640646058752
  endloop
endfacet
facet normal -1.0 -2.058348630908725e-15 -5.703211203446882e-15
  outer loop
    vertex 88.79338710098241 173.24454947827192 8.885640646058752
    vertex 88.79338710098224 174.04454947827193 15.000000000003666
    vertex 88.79338710098233 173.63043900610788 9.045481322066198
  endloop
endfacet
facet normal -1.0 -2.058348630908725e-15 -5.703211203446882e-15
  outer loop
    vertex 88.79338710098233 173.63043900610788 9.045481322066198
    vertex 88.79338710098224 174.04454947827193 15.000000000003666
    vertex 88.79338710098233 174.04454947827193 9.100000000003687
  endloop
endfacet
facet normal -1.0 -2.058348630908725e-15 -5.703211203446882e-15
  outer loop
    vertex 88.79338710098233 174.04454947827193 9.100000000003687
    vertex 88.79338710098224 174.04454947827193 15.000000000003666
    vertex 88.79338710098233 182.0445494782719 15.000000000003656
  endloop
endfacet
facet normal -1.0 -2.058348630908725e-15 -5.703211203446882e-15
  outer loop
    vertex 88.79338710098233 174.04454947827193 9.100000000003687
    vertex 88.79338710098233 182.0445494782719 15.000000000003656
    vertex 88.79338710098241 174.458659950436 9.045481322066196
  endloop
endfacet
facet normal -1.0 -2.058348630908725e-15 -5.703211203446882e-15
  outer loop
    vertex 88.79338710098241 174.458659950436 9.045481322066196
    vertex 88.79338710098233 182.0445494782719 15.000000000003656
    vertex 88.79338710098241 174.84454947827192 8.885640646058796
  endloop
endfacet
facet normal -1.0 -2.058348630908725e-15 -5.703211203446882e-15
  outer loop
    vertex 88.79338710098241 174.84454947827192 8.885640646058796
    vertex 88.79338710098233 182.0445494782719 15.000000000003656
    vertex 88.79338710098233 175.1759203281704 8.631370849902172
  endloop
endfacet
facet normal -1.0 -2.058348630908725e-15 -5.703211203446882e-15
  outer loop
    vertex 88.79338710098233 175.1759203281704 8.631370849902172
    vertex 88.79338710098233 182.0445494782719 15.000000000003656
    vertex 88.79338710098241 175.430190124327 8.300000000003687
  endloop
endfacet
facet normal -1.0 -2.058348630908725e-15 -5.703211203446882e-15
  outer loop
    vertex 88.79338710098241 175.430190124327 8.300000000003687
    vertex 88.79338710098233 182.0445494782719 15.000000000003656
    vertex 88.79338710098233 175.59003080033446 7.914110472167722
  endloop
endfacet
facet normal -1.0 -2.058348630908725e-15 -5.703211203446882e-15
  outer loop
    vertex 88.79338710098233 175.59003080033446 7.914110472167722
    vertex 88.79338710098233 182.0445494782719 15.000000000003656
    vertex 88.79338710098233 175.64454947827193 7.500000000003689
  endloop
endfacet
facet normal -1.0 -2.058348630908725e-15 -5.703211203446882e-15
  outer loop
    vertex 88.79338710098233 166.04454947827193 7.500000000003647
    vertex 88.79338710098233 182.0445494782719 3.719837056606518e-12
    vertex 88.79338710098241 165.54454947827193 3.652614625281416e-12
  endloop
endfacet
facet normal -1.0 -2.058348630908725e-15 -5.703211203446882e-15
  outer loop
    vertex 88.79338710098233 182.0445494782719 3.719837056606518e-12
    vertex 88.79338710098233 166.04454947827193 7.500000000003647
    vertex 88.79338710098233 166.37332908580728 9.497329056120448
  endloop
endfacet
facet normal -1.0 -2.058348630908725e-15 -5.703211203446882e-15
  outer loop
    vertex 88.79338710098233 182.0445494782719 3.719837056606518e-12
    vertex 88.79338710098233 166.37332908580728 9.497329056120448
    vertex 88.79338710098233 173.24454947827192 6.1143593539485455
  endloop
endfacet
facet normal -1.0 -2.058348630908725e-15 -5.703211203446882e-15
  outer loop
    vertex 88.79338710098233 173.24454947827192 6.1143593539485455
    vertex 88.79338710098233 166.37332908580728 9.497329056120448
    vertex 88.79338710098241 172.91317862837346 6.368629150105165
  endloop
endfacet
facet normal -1.0 -2.058348630908725e-15 -5.703211203446882e-15
  outer loop
    vertex 88.79338710098241 172.91317862837346 6.368629150105165
    vertex 88.79338710098233 166.37332908580728 9.497329056120448
    vertex 88.79338710098233 167.20785259894257 11.341506350949748
  endloop
endfacet
facet normal -1.0 -2.058348630908725e-15 -5.703211203446882e-15
  outer loop
    vertex 88.79338710098241 172.91317862837346 6.368629150105165
    vertex 88.79338710098233 167.20785259894257 11.341506350949748
    vertex 88.79338710098233 172.6589088322168 6.70000000000365
  endloop
endfacet
facet normal -1.0 -2.058348630908725e-15 -5.703211203446882e-15
  outer loop
    vertex 88.79338710098233 172.6589088322168 6.70000000000365
    vertex 88.79338710098233 167.20785259894257 11.341506350949748
    vertex 88.79338710098233 168.49124861937284 12.906854249496016
  endloop
endfacet
facet normal -1.0 -2.058348630908725e-15 -5.703211203446882e-15
  outer loop
    vertex 88.79338710098233 172.6589088322168 6.70000000000365
    vertex 88.79338710098233 168.49124861937284 12.906854249496016
    vertex 88.79338710098241 172.4990681562094 7.085889527839614
  endloop
endfacet
facet normal -1.0 -2.058348630908725e-15 -5.703211203446882e-15
  outer loop
    vertex 88.79338710098241 172.4990681562094 7.085889527839614
    vertex 88.79338710098233 168.49124861937284 12.906854249496016
    vertex 88.79338710098233 170.13605582921807 14.086696879333031
  endloop
endfacet
facet normal -1.0 -2.058348630908725e-15 -5.703211203446882e-15
  outer loop
    vertex 88.79338710098241 172.4990681562094 7.085889527839614
    vertex 88.79338710098233 170.13605582921807 14.086696879333031
    vertex 88.79338710098241 172.44454947827194 7.500000000003654
  endloop
endfacet
facet normal -1.0 -2.058348630908725e-15 -5.703211203446882e-15
  outer loop
    vertex 88.79338710098241 172.44454947827194 7.500000000003654
    vertex 88.79338710098233 170.13605582921807 14.086696879333031
    vertex 88.79338710098224 172.03018333529965 14.800629915019533
  endloop
endfacet
facet normal -1.0 -2.058348630908725e-15 -5.703211203446882e-15
  outer loop
    vertex 88.79338710098233 182.0445494782719 3.719837056606518e-12
    vertex 88.79338710098233 173.24454947827192 6.1143593539485455
    vertex 88.79338710098233 173.63043900610788 5.954518677941179
  endloop
endfacet
facet normal -1.0 -2.058348630908725e-15 -5.703211203446882e-15
  outer loop
    vertex 88.79338710098233 182.0445494782719 3.719837056606518e-12
    vertex 88.79338710098233 173.63043900610788 5.954518677941179
    vertex 88.79338710098233 174.04454947827193 5.900000000003688
  endloop
endfacet
facet normal -1.0 -2.058348630908725e-15 -5.703211203446882e-15
  outer loop
    vertex 88.79338710098233 182.0445494782719 3.719837056606518e-12
    vertex 88.79338710098233 174.04454947827193 5.900000000003688
    vertex 88.79338710098233 174.45865995043593 5.954518677941177
  endloop
endfacet
facet normal -1.0 -2.058348630908725e-15 -5.703211203446882e-15
  outer loop
    vertex 88.79338710098233 182.0445494782719 3.719837056606518e-12
    vertex 88.79338710098233 174.45865995043593 5.954518677941177
    vertex 88.79338710098233 174.84454947827192 6.114359353948586
  endloop
endfacet
facet normal -1.0 -2.058348630908725e-15 -5.703211203446882e-15
  outer loop
    vertex 88.79338710098233 182.0445494782719 3.719837056606518e-12
    vertex 88.79338710098233 174.84454947827192 6.114359353948586
    vertex 88.79338710098233 175.1759203281704 6.3686291501052095
  endloop
endfacet
facet normal -1.0 -2.058348630908725e-15 -5.703211203446882e-15
  outer loop
    vertex 88.79338710098233 182.0445494782719 3.719837056606518e-12
    vertex 88.79338710098233 175.1759203281704 6.3686291501052095
    vertex 88.79338710098233 175.430190124327 6.700000000003691
  endloop
endfacet
facet normal -1.0 -2.058348630908725e-15 -5.703211203446882e-15
  outer loop
    vertex 88.79338710098233 182.0445494782719 3.719837056606518e-12
    vertex 88.79338710098233 175.430190124327 6.700000000003691
    vertex 88.79338710098233 175.59003080033446 7.0858895278396545
  endloop
endfacet
facet normal -1.0 -2.058348630908725e-15 -5.703211203446882e-15
  outer loop
    vertex 88.79338710098233 182.0445494782719 3.719837056606518e-12
    vertex 88.79338710098233 175.59003080033446 7.0858895278396545
    vertex 88.79338710098233 175.64454947827193 7.500000000003689
  endloop
endfacet
facet normal -1.0 -2.058348630908725e-15 -5.703211203446882e-15
  outer loop
    vertex 88.79338710098233 182.0445494782719 3.719837056606518e-12
    vertex 88.79338710098233 175.64454947827193 7.500000000003689
    vertex 88.79338710098233 182.0445494782719 15.000000000003656
  endloop
endfacet
facet normal -5.4751575637630425e-15 -0.997785157856609 0.06651901052377415
  outer loop
    vertex 91.29338710098249 165.54454947827193 3.7210875152653375e-12
    vertex 88.79338710098233 166.04454947827193 7.500000000003647
    vertex 88.79338710098241 165.54454947827193 3.652614625281416e-12
  endloop
endfacet
facet normal -5.4751575637630425e-15 -0.997785157856609 0.06651901052377415
  outer loop
    vertex 88.79338710098233 166.04454947827193 7.500000000003647
    vertex 91.29338710098249 165.54454947827193 3.7210875152653375e-12
    vertex 91.29338710098249 166.0445494782719 7.50000000000365
  endloop
endfacet
facet normal 1.0 5.587451927225329e-15 -1.8126513658706667e-15
  outer loop
    vertex 91.29338710098239 182.0445494782719 3.732427610794615e-12
    vertex 91.29338710098249 166.0445494782719 7.50000000000365
    vertex 91.29338710098249 165.54454947827193 3.7210875152653375e-12
  endloop
endfacet
facet normal 1.0 5.587451927225329e-15 -1.8126513658706667e-15
  outer loop
    vertex 91.29338710098249 166.0445494782719 7.50000000000365
    vertex 91.29338710098239 182.0445494782719 3.732427610794615e-12
    vertex 91.29338710098249 166.37332908580726 9.49732905612044
  endloop
endfacet
facet normal 1.0 5.587451927225329e-15 -1.8126513658706667e-15
  outer loop
    vertex 91.29338710098249 166.37332908580726 9.49732905612044
    vertex 91.29338710098239 182.0445494782719 3.732427610794615e-12
    vertex 91.29338710098249 173.24454947827192 6.114359353948515
  endloop
endfacet
facet normal 1.0 5.587451927225329e-15 -1.8126513658706667e-15
  outer loop
    vertex 91.29338710098249 166.37332908580726 9.49732905612044
    vertex 91.29338710098249 173.24454947827192 6.114359353948515
    vertex 91.29338710098249 172.91317862837346 6.3686291501051455
  endloop
endfacet
facet normal 1.0 5.587451927225329e-15 -1.8126513658706667e-15
  outer loop
    vertex 91.29338710098249 166.37332908580726 9.49732905612044
    vertex 91.29338710098249 172.91317862837346 6.3686291501051455
    vertex 91.29338710098249 167.20785259894254 11.341506350949743
  endloop
endfacet
facet normal 1.0 5.587451927225329e-15 -1.8126513658706667e-15
  outer loop
    vertex 91.29338710098249 167.20785259894254 11.341506350949743
    vertex 91.29338710098249 172.91317862837346 6.3686291501051455
    vertex 91.29338710098249 172.65890883221684 6.700000000003629
  endloop
endfacet
facet normal 1.0 5.587451927225329e-15 -1.8126513658706667e-15
  outer loop
    vertex 91.29338710098249 167.20785259894254 11.341506350949743
    vertex 91.29338710098249 172.65890883221684 6.700000000003629
    vertex 91.29338710098249 168.4912486193728 12.90685424949601
  endloop
endfacet
facet normal 1.0 5.587451927225329e-15 -1.8126513658706667e-15
  outer loop
    vertex 91.29338710098249 168.4912486193728 12.90685424949601
    vertex 91.29338710098249 172.65890883221684 6.700000000003629
    vertex 91.29338710098249 172.4990681562094 7.085889527839593
  endloop
endfacet
facet normal 1.0 5.587451927225329e-15 -1.8126513658706667e-15
  outer loop
    vertex 91.29338710098249 168.4912486193728 12.90685424949601
    vertex 91.29338710098249 172.4990681562094 7.085889527839593
    vertex 91.29338710098249 170.136055829218 14.086696879333026
  endloop
endfacet
facet normal 1.0 5.587451927225329e-15 -1.8126513658706667e-15
  outer loop
    vertex 91.29338710098249 170.136055829218 14.086696879333026
    vertex 91.29338710098249 172.4990681562094 7.085889527839593
    vertex 91.29338710098249 172.44454947827194 7.5000000000036335
  endloop
endfacet
facet normal 1.0 5.587451927225329e-15 -1.8126513658706667e-15
  outer loop
    vertex 91.29338710098249 170.136055829218 14.086696879333026
    vertex 91.29338710098249 172.44454947827194 7.5000000000036335
    vertex 91.29338710098249 172.03018333529963 14.800629915019533
  endloop
endfacet
facet normal 1.0 5.587451927225329e-15 -1.8126513658706667e-15
  outer loop
    vertex 91.29338710098249 173.24454947827192 6.114359353948515
    vertex 91.29338710098239 182.0445494782719 3.732427610794615e-12
    vertex 91.29338710098249 173.6304390061079 5.954518677941149
  endloop
endfacet
facet normal 1.0 5.587451927225329e-15 -1.8126513658706667e-15
  outer loop
    vertex 91.29338710098249 173.6304390061079 5.954518677941149
    vertex 91.29338710098239 182.0445494782719 3.732427610794615e-12
    vertex 91.29338710098249 174.04454947827193 5.900000000003659
  endloop
endfacet
facet normal 1.0 5.587451927225329e-15 -1.8126513658706667e-15
  outer loop
    vertex 91.29338710098249 174.04454947827193 5.900000000003659
    vertex 91.29338710098239 182.0445494782719 3.732427610794615e-12
    vertex 91.29338710098249 174.458659950436 5.954518677941148
  endloop
endfacet
facet normal 1.0 5.587451927225329e-15 -1.8126513658706667e-15
  outer loop
    vertex 91.29338710098249 174.458659950436 5.954518677941148
    vertex 91.29338710098239 182.0445494782719 3.732427610794615e-12
    vertex 91.29338710098249 174.84454947827192 6.114359353948557
  endloop
endfacet
facet normal 1.0 5.587451927225329e-15 -1.8126513658706667e-15
  outer loop
    vertex 91.29338710098249 174.84454947827192 6.114359353948557
    vertex 91.29338710098239 182.0445494782719 3.732427610794615e-12
    vertex 91.29338710098249 175.1759203281704 6.368629150105189
  endloop
endfacet
facet normal 1.0 5.587451927225329e-15 -1.8126513658706667e-15
  outer loop
    vertex 91.29338710098249 175.1759203281704 6.368629150105189
    vertex 91.29338710098239 182.0445494782719 3.732427610794615e-12
    vertex 91.29338710098249 175.43019012432705 6.700000000003671
  endloop
endfacet
facet normal 1.0 5.587451927225329e-15 -1.8126513658706667e-15
  outer loop
    vertex 91.29338710098249 175.43019012432705 6.700000000003671
    vertex 91.29338710098239 182.0445494782719 3.732427610794615e-12
    vertex 91.29338710098249 175.59003080033446 7.085889527839634
  endloop
endfacet
facet normal 1.0 5.587451927225329e-15 -1.8126513658706667e-15
  outer loop
    vertex 91.29338710098249 175.59003080033446 7.085889527839634
    vertex 91.29338710098239 182.0445494782719 3.732427610794615e-12
    vertex 91.29338710098249 175.64454947827193 7.500000000003669
  endloop
endfacet
facet normal 1.0 5.587451927225329e-15 -1.8126513658706667e-15
  outer loop
    vertex 91.29338710098249 172.03018333529963 14.800629915019533
    vertex 91.29338710098249 172.49906815620943 7.914110472167663
    vertex 91.29338710098249 174.04454947827193 15.000000000003666
  endloop
endfacet
facet normal 1.0 5.587451927225329e-15 -1.8126513658706667e-15
  outer loop
    vertex 91.29338710098249 172.49906815620943 7.914110472167663
    vertex 91.29338710098249 172.03018333529963 14.800629915019533
    vertex 91.29338710098249 172.44454947827194 7.5000000000036335
  endloop
endfacet
facet normal 1.0 5.587451927225329e-15 -1.8126513658706667e-15
  outer loop
    vertex 91.29338710098249 174.04454947827193 15.000000000003666
    vertex 91.29338710098249 172.49906815620943 7.914110472167663
    vertex 91.29338710098249 172.65890883221684 8.30000000000363
  endloop
endfacet
facet normal 1.0 5.587451927225329e-15 -1.8126513658706667e-15
  outer loop
    vertex 91.29338710098249 174.04454947827193 15.000000000003666
    vertex 91.29338710098249 172.65890883221684 8.30000000000363
    vertex 91.29338710098249 172.91317862837346 8.631370849902103
  endloop
endfacet
facet normal 1.0 5.587451927225329e-15 -1.8126513658706667e-15
  outer loop
    vertex 91.29338710098249 174.04454947827193 15.000000000003666
    vertex 91.29338710098249 172.91317862837346 8.631370849902103
    vertex 91.29338710098249 173.24454947827192 8.88564064605873
  endloop
endfacet
facet normal 1.0 5.587451927225329e-15 -1.8126513658706667e-15
  outer loop
    vertex 91.29338710098249 174.04454947827193 15.000000000003666
    vertex 91.29338710098249 173.24454947827192 8.88564064605873
    vertex 91.29338710098249 173.6304390061079 9.045481322066179
  endloop
endfacet
facet normal 1.0 5.587451927225329e-15 -1.8126513658706667e-15
  outer loop
    vertex 91.29338710098249 174.04454947827193 15.000000000003666
    vertex 91.29338710098249 173.6304390061079 9.045481322066179
    vertex 91.29338710098249 174.04454947827193 9.100000000003668
  endloop
endfacet
facet normal 1.0 5.587451927225329e-15 -1.8126513658706667e-15
  outer loop
    vertex 91.29338710098249 174.04454947827193 15.000000000003666
    vertex 91.29338710098249 174.04454947827193 9.100000000003668
    vertex 91.29338710098249 174.458659950436 9.045481322066177
  endloop
endfacet
facet normal 1.0 5.587451927225329e-15 -1.8126513658706667e-15
  outer loop
    vertex 91.29338710098249 174.04454947827193 15.000000000003666
    vertex 91.29338710098249 174.458659950436 9.045481322066177
    vertex 91.29338710098239 182.0445494782719 15.000000000003661
  endloop
endfacet
facet normal 1.0 5.587451927225329e-15 -1.8126513658706667e-15
  outer loop
    vertex 91.29338710098239 182.0445494782719 15.000000000003661
    vertex 91.29338710098249 174.458659950436 9.045481322066177
    vertex 91.29338710098257 174.84454947827192 8.885640646058777
  endloop
endfacet
facet normal 1.0 5.587451927225329e-15 -1.8126513658706667e-15
  outer loop
    vertex 91.29338710098239 182.0445494782719 15.000000000003661
    vertex 91.29338710098257 174.84454947827192 8.885640646058777
    vertex 91.29338710098249 175.1759203281704 8.63137084990215
  endloop
endfacet
facet normal 1.0 5.587451927225329e-15 -1.8126513658706667e-15
  outer loop
    vertex 91.29338710098239 182.0445494782719 15.000000000003661
    vertex 91.29338710098249 175.1759203281704 8.63137084990215
    vertex 91.29338710098257 175.43019012432705 8.300000000003667
  endloop
endfacet
facet normal 1.0 5.587451927225329e-15 -1.8126513658706667e-15
  outer loop
    vertex 91.29338710098239 182.0445494782719 15.000000000003661
    vertex 91.29338710098257 175.43019012432705 8.300000000003667
    vertex 91.29338710098249 175.59003080033446 7.914110472167702
  endloop
endfacet
facet normal 1.0 5.587451927225329e-15 -1.8126513658706667e-15
  outer loop
    vertex 91.29338710098239 182.0445494782719 15.000000000003661
    vertex 91.29338710098249 175.59003080033446 7.914110472167702
    vertex 91.29338710098249 175.64454947827193 7.500000000003669
  endloop
endfacet
facet normal 1.0 5.587451927225329e-15 -1.8126513658706667e-15
  outer loop
    vertex 91.29338710098239 182.0445494782719 15.000000000003661
    vertex 91.29338710098249 175.64454947827193 7.500000000003669
    vertex 91.29338710098239 182.0445494782719 3.732427610794615e-12
  endloop
endfacet
facet normal -8.912435863601784e-16 -0.09849286825323654 0.9951377567468991
  outer loop
    vertex 91.29338710098249 172.03018333529963 14.800629915019533
    vertex 88.79338710098224 174.04454947827193 15.000000000003666
    vertex 88.79338710098224 172.03018333529965 14.800629915019533
  endloop
endfacet
facet normal -8.912435863601784e-16 -0.09849286825323654 0.9951377567468991
  outer loop
    vertex 88.79338710098224 174.04454947827193 15.000000000003666
    vertex 91.29338710098249 172.03018333529963 14.800629915019533
    vertex 91.29338710098249 174.04454947827193 15.000000000003666
  endloop
endfacet
facet normal -8.806235169337289e-15 -0.9867210900679063 0.16242379879562827
  outer loop
    vertex 91.29338710098249 166.0445494782719 7.50000000000365
    vertex 88.79338710098233 166.37332908580728 9.497329056120448
    vertex 88.79338710098233 166.04454947827193 7.500000000003647
  endloop
endfacet
facet normal -8.806235169337289e-15 -0.9867210900679063 0.16242379879562827
  outer loop
    vertex 88.79338710098233 166.37332908580728 9.497329056120448
    vertex 91.29338710098249 166.0445494782719 7.50000000000365
    vertex 91.29338710098249 166.37332908580726 9.49732905612044
  endloop
endfacet
facet normal -7.290606891589612e-15 -0.7733136310508663 0.6340236809701393
  outer loop
    vertex 91.29338710098249 168.4912486193728 12.90685424949601
    vertex 88.79338710098233 167.20785259894257 11.341506350949748
    vertex 91.29338710098249 167.20785259894254 11.341506350949743
  endloop
endfacet
facet normal -7.290606891589612e-15 -0.7733136310508663 0.6340236809701393
  outer loop
    vertex 88.79338710098233 167.20785259894257 11.341506350949748
    vertex 91.29338710098249 168.4912486193728 12.90685424949601
    vertex 88.79338710098233 168.49124861937284 12.906854249496016
  endloop
endfacet
facet normal -9.224961961989405e-15 -0.9110610117344778 0.4122715523745844
  outer loop
    vertex 91.29338710098249 167.20785259894254 11.341506350949743
    vertex 88.79338710098233 166.37332908580728 9.497329056120448
    vertex 91.29338710098249 166.37332908580726 9.49732905612044
  endloop
endfacet
facet normal -9.224961961989405e-15 -0.9110610117344778 0.4122715523745844
  outer loop
    vertex 88.79338710098233 166.37332908580728 9.497329056120448
    vertex 91.29338710098249 167.20785259894254 11.341506350949743
    vertex 88.79338710098233 167.20785259894257 11.341506350949748
  endloop
endfacet
facet normal -1.145866851520812e-14 -6.833495112063206e-14 1.0
  outer loop
    vertex 88.79338710098233 182.0445494782719 15.000000000003656
    vertex 80.79338710098234 185.54454947827193 15.000000000003809
    vertex 80.79338710098234 182.0445494782719 15.000000000003809
  endloop
endfacet
facet normal -1.145866851520812e-14 -6.833495112063206e-14 1.0
  outer loop
    vertex 80.79338710098234 185.54454947827193 15.000000000003809
    vertex 88.79338710098233 182.0445494782719 15.000000000003656
    vertex 86.29338710098236 185.54454947827193 15.000000000003816
  endloop
endfacet
facet normal -1.145866851520812e-14 -6.833495112063206e-14 1.0
  outer loop
    vertex 86.29338710098236 185.54454947827193 15.000000000003816
    vertex 88.79338710098233 182.0445494782719 15.000000000003656
    vertex 86.29338710098236 197.544549478272 15.000000000004727
  endloop
endfacet
facet normal -1.145866851520812e-14 -6.833495112063206e-14 1.0
  outer loop
    vertex 86.29338710098236 197.544549478272 15.000000000004727
    vertex 88.79338710098233 182.0445494782719 15.000000000003656
    vertex 90.29338710098234 197.544549478272 15.000000000005638
  endloop
endfacet
facet normal -1.145866851520812e-14 -6.833495112063206e-14 1.0
  outer loop
    vertex 91.29338710098249 174.04454947827193 15.000000000003666
    vertex 88.79338710098233 182.0445494782719 15.000000000003656
    vertex 88.79338710098224 174.04454947827193 15.000000000003666
  endloop
endfacet
facet normal -1.145866851520812e-14 -6.833495112063206e-14 1.0
  outer loop
    vertex 88.79338710098233 182.0445494782719 15.000000000003656
    vertex 91.29338710098249 174.04454947827193 15.000000000003666
    vertex 90.29338710098244 185.54454947827193 15.000000000003821
  endloop
endfacet
facet normal -1.145866851520812e-14 -6.833495112063206e-14 1.0
  outer loop
    vertex 88.79338710098233 182.0445494782719 15.000000000003656
    vertex 90.29338710098244 185.54454947827193 15.000000000003821
    vertex 90.29338710098234 197.544549478272 15.000000000005638
  endloop
endfacet
facet normal -1.145866851520812e-14 -6.833495112063206e-14 1.0
  outer loop
    vertex 90.29338710098244 185.54454947827193 15.000000000003821
    vertex 91.29338710098249 174.04454947827193 15.000000000003666
    vertex 91.29338710098239 182.0445494782719 15.000000000003661
  endloop
endfacet
facet normal -1.145866851520812e-14 -6.833495112063206e-14 1.0
  outer loop
    vertex 91.29338710098239 182.0445494782719 15.000000000003661
    vertex 95.79338710098246 185.54454947827193 15.00000000000383
    vertex 90.29338710098244 185.54454947827193 15.000000000003821
  endloop
endfacet
facet normal -1.145866851520812e-14 -6.833495112063206e-14 1.0
  outer loop
    vertex 95.79338710098246 185.54454947827193 15.00000000000383
    vertex 91.29338710098239 182.0445494782719 15.000000000003661
    vertex 95.79338710098246 182.04454947827196 15.00000000000383
  endloop
endfacet
facet normal -2.1221361748476182e-15 -0.35269740909776626 0.9357374298464944
  outer loop
    vertex 88.79338710098233 170.13605582921807 14.086696879333031
    vertex 91.29338710098249 172.03018333529963 14.800629915019533
    vertex 88.79338710098224 172.03018333529965 14.800629915019533
  endloop
endfacet
facet normal -2.1221361748476182e-15 -0.35269740909776626 0.9357374298464944
  outer loop
    vertex 91.29338710098249 172.03018333529963 14.800629915019533
    vertex 88.79338710098233 170.13605582921807 14.086696879333031
    vertex 91.29338710098249 170.136055829218 14.086696879333026
  endloop
endfacet
facet normal -3.4259130858970334e-15 -0.5828662043723307 0.8125681434812668
  outer loop
    vertex 91.29338710098249 168.4912486193728 12.90685424949601
    vertex 88.79338710098233 170.13605582921807 14.086696879333031
    vertex 88.79338710098233 168.49124861937284 12.906854249496016
  endloop
endfacet
facet normal -3.4259130858970334e-15 -0.5828662043723307 0.8125681434812668
  outer loop
    vertex 88.79338710098233 170.13605582921807 14.086696879333031
    vertex 91.29338710098249 168.4912486193728 12.90685424949601
    vertex 91.29338710098249 170.136055829218 14.086696879333026
  endloop
endfacet
endsolid palm
