solid palm
facet normal 0.709546163301382 -0.7046589544909571 2.6960108750602826e-14
  outer loop
    vertex 20.396316218506023 98.94570635550986 4.893004093830424e-13
    vertex 18.986998309523926 97.52661402890699 3.9999999999996714
    vertex 18.98699830952411 97.52661402890709 3.188520927002171e-13
  endloop
endfacet
facet normal 0.709546163301382 -0.7046589544909571 2.6960108750602826e-14
  outer loop
    vertex 18.986998309523926 97.52661402890699 3.9999999999996714
    vertex 20.396316218506023 98.94570635550986 4.893004093830424e-13
    vertex 20.396316218505838 98.94570635550976 3.9999999999998423
  endloop
endfacet
facet normal 0.709546163301382 -0.7046589544909571 2.6960108750602826e-14
  outer loop
    vertex 18.986998309523926 97.52661402890699 3.9999999999996714
    vertex 20.396316218505838 98.94570635550976 3.9999999999998423
    vertex 17.930009877787487 96.4622947839549 4.0000000000001235
  endloop
endfacet
facet normal 0.709546163301382 -0.7046589544909571 2.6960108750602826e-14
  outer loop
    vertex 17.930009877787487 96.4622947839549 4.0000000000001235
    vertex 20.396316218505838 98.94570635550976 3.9999999999998423
    vertex 21.453304650242252 100.01002560046182 4.0000000000004405
  endloop
endfacet
facet normal 0.709546163301382 -0.7046589544909571 2.6960108750602826e-14
  outer loop
    vertex 22.686457820601614 101.25173138623934 1.6003482407804553e-12
    vertex 21.453304650242252 100.01002560046182 4.0000000000004405
    vertex 21.453304650242437 100.01002560046192 1.0878502731668898e-12
  endloop
endfacet
facet normal 0.709546163301382 -0.7046589544909571 2.6960108750602826e-14
  outer loop
    vertex 21.453304650242252 100.01002560046182 4.0000000000004405
    vertex 22.686457820601614 101.25173138623934 1.6003482407804553e-12
    vertex 22.686457820601348 101.25173138623963 15.000000000001535
  endloop
endfacet
facet normal 0.709546163301382 -0.7046589544909571 2.6960108750602826e-14
  outer loop
    vertex 17.930009877787487 96.4622947839549 4.0000000000001235
    vertex 17.049186184673992 95.5753620798283 1.5413938050708863e-12
    vertex 17.930009877787672 96.462294783955 7.700840396197146e-13
  endloop
endfacet
facet normal 0.709546163301382 -0.7046589544909571 2.6960108750602826e-14
  outer loop
    vertex 17.049186184673992 95.5753620798283 1.5413938050708863e-12
    vertex 17.930009877787487 96.4622947839549 4.0000000000001235
    vertex 17.049186184673964 95.57536207982832 1.4698547585742054
  endloop
endfacet
facet normal 0.709546163301382 -0.7046589544909571 2.6960108750602826e-14
  outer loop
    vertex 17.049186184673964 95.57536207982832 1.4698547585742054
    vertex 17.930009877787487 96.4622947839549 4.0000000000001235
    vertex 17.04918618467394 95.57536207982835 2.869854758574206
  endloop
endfacet
facet normal 0.709546163301382 -0.7046589544909571 2.6960108750602826e-14
  outer loop
    vertex 17.04918618467394 95.57536207982835 2.869854758574206
    vertex 17.930009877787487 96.4622947839549 4.0000000000001235
    vertex 17.049186184673722 95.57536207982858 15.000000000001695
  endloop
endfacet
facet normal 0.709546163301382 -0.7046589544909571 2.6960108750602826e-14
  outer loop
    vertex 17.049186184673722 95.57536207982858 15.000000000001695
    vertex 17.930009877787487 96.4622947839549 4.0000000000001235
    vertex 21.453304650242252 100.01002560046182 4.0000000000004405
  endloop
endfacet
facet normal 0.709546163301382 -0.7046589544909571 2.6960108750602826e-14
  outer loop
    vertex 17.049186184673722 95.57536207982858 15.000000000001695
    vertex 21.453304650242252 100.01002560046182 4.0000000000004405
    vertex 22.686457820601348 101.25173138623963 15.000000000001535
  endloop
endfacet
facet normal 0.6555351776460542 -0.6510199854549868 0.38268343236511443
  outer loop
    vertex 34.7331120325658 92.81143099161537 11.250000000001897
    vertex 33.50309435759103 90.50959762879695 9.441142838270835
    vertex 35.264741743818455 92.28346303705045 9.441142838270828
  endloop
endfacet
facet normal 0.6555351776460542 -0.6510199854549868 0.38268343236511443
  outer loop
    vertex 33.50309435759103 90.50959762879695 9.441142838270835
    vertex 34.7331120325658 92.81143099161537 11.250000000001897
    vertex 32.97146464633835 91.03756558336184 11.250000000001906
  endloop
endfacet
facet normal 0.4319443363189915 -0.42896919209968853 0.7933533402912515
  outer loop
    vertex 32.12576390427727 91.87744131172916 12.803300858900979
    vertex 32.7852726256201 94.74585407922444 13.995190528385107
    vertex 31.023625239392647 92.97198867097092 13.995190528385113
  endloop
endfacet
facet normal 0.4319443363189915 -0.42896919209968853 0.7933533402912515
  outer loop
    vertex 32.7852726256201 94.74585407922444 13.995190528385107
    vertex 32.12576390427727 91.87744131172916 12.803300858900979
    vertex 33.887411290504716 93.65130671998268 12.80330085890097
  endloop
endfacet
facet normal 0.5629208187459741 -0.5590435353115167 0.6087614290087399
  outer loop
    vertex 33.887411290504716 93.65130671998268 12.80330085890097
    vertex 32.97146464633835 91.03756558336184 11.250000000001906
    vertex 34.7331120325658 92.81143099161537 11.250000000001897
  endloop
endfacet
facet normal 0.5629208187459741 -0.5590435353115167 0.6087614290087399
  outer loop
    vertex 32.97146464633835 91.03756558336184 11.250000000001906
    vertex 33.887411290504716 93.65130671998268 12.80330085890097
    vertex 32.12576390427727 91.87744131172916 12.803300858900979
  endloop
endfacet
facet normal 0.2715315611936372 -0.26966130735137583 0.9238795325112972
  outer loop
    vertex 31.023625239392647 92.97198867097092 13.995190528385113
    vertex 31.501804966553557 96.02048147563336 14.74444369716978
    vertex 29.740157580326105 94.24661606737983 14.744443697169784
  endloop
endfacet
facet normal 0.2715315611936372 -0.26966130735137583 0.9238795325112972
  outer loop
    vertex 31.501804966553557 96.02048147563336 14.74444369716978
    vertex 31.023625239392647 92.97198867097092 13.995190528385113
    vertex 32.7852726256201 94.74585407922444 13.995190528385107
  endloop
endfacet
facet normal 0.7095461633013862 -0.7046589544909528 2.6208117688590052e-14
  outer loop
    vertex 27.619070502038063 106.2185545293494 15.000000000001704
    vertex 24.448105206829062 103.02559679449286 1.6105508277285971e-12
    vertex 27.61907050203833 106.21855452934912 1.5275829954862854e-12
  endloop
endfacet
facet normal 0.7095461633013862 -0.7046589544909528 2.6208117688590052e-14
  outer loop
    vertex 24.448105206829062 103.02559679449286 1.6105508277285971e-12
    vertex 27.619070502038063 106.2185545293494 15.000000000001704
    vertex 24.448105206828796 103.02559679449315 15.000000000001538
  endloop
endfacet
facet normal -0.7046589544909524 -0.7095461633013866 1.3884927774713852e-15
  outer loop
    vertex 29.740157580326105 94.24661606737983 14.744443697169784
    vertex 29.45941746953598 94.525422497722 7.914110472165815
    vertex 29.49810098829478 94.48700542312635 7.500000000001787
  endloop
endfacet
facet normal -0.7046589544909524 -0.7095461633013866 1.3884927774713852e-15
  outer loop
    vertex 29.45941746953598 94.525422497722 7.914110472165815
    vertex 29.740157580326105 94.24661606737983 14.744443697169784
    vertex 28.362827127012427 95.61445975031202 15.000000000001764
  endloop
endfacet
facet normal -0.7046589544909524 -0.7095461633013866 1.3884927774713852e-15
  outer loop
    vertex 29.45941746953598 94.525422497722 7.914110472165815
    vertex 28.362827127012427 95.61445975031202 15.000000000001764
    vertex 29.346003131135422 94.63805566136251 8.300000000001777
  endloop
endfacet
facet normal -0.7046589544909524 -0.7095461633013866 1.3884927774713852e-15
  outer loop
    vertex 29.346003131135422 94.63805566136251 8.300000000001777
    vertex 28.362827127012427 95.61445975031202 15.000000000001764
    vertex 29.165586972829036 94.8172291500809 8.631370849900245
  endloop
endfacet
facet normal -0.7046589544909524 -0.7095461633013866 1.3884927774713852e-15
  outer loop
    vertex 29.165586972829036 94.8172291500809 8.631370849900245
    vertex 28.362827127012427 95.61445975031202 15.000000000001764
    vertex 28.93046405765365 95.05073258671914 8.885640646056864
  endloop
endfacet
facet normal -0.7046589544909524 -0.7095461633013866 1.3884927774713852e-15
  outer loop
    vertex 28.93046405765365 95.05073258671914 8.885640646056864
    vertex 28.362827127012427 95.61445975031202 15.000000000001764
    vertex 28.656657623719468 95.32265309795302 9.0454813220643
  endloop
endfacet
facet normal -0.7046589544909524 -0.7095461633013866 1.3884927774713852e-15
  outer loop
    vertex 28.656657623719468 95.32265309795302 9.0454813220643
    vertex 28.362827127012427 95.61445975031202 15.000000000001764
    vertex 28.362827127012537 95.61445975031191 9.100000000001778
  endloop
endfacet
facet normal -0.7046589544909524 -0.7095461633013866 1.3884927774713852e-15
  outer loop
    vertex 28.362827127012537 95.61445975031191 9.100000000001778
    vertex 28.362827127012427 95.61445975031202 15.000000000001764
    vertex 22.686457820601348 101.25173138623963 15.000000000001535
  endloop
endfacet
facet normal -0.7046589544909524 -0.7095461633013866 1.3884927774713852e-15
  outer loop
    vertex 28.362827127012537 95.61445975031191 9.100000000001778
    vertex 22.686457820601348 101.25173138623963 15.000000000001535
    vertex 28.068996630305616 95.90626640267078 9.045481322064276
  endloop
endfacet
facet normal -0.7046589544909524 -0.7095461633013866 1.3884927774713852e-15
  outer loop
    vertex 28.068996630305616 95.90626640267078 9.045481322064276
    vertex 22.686457820601348 101.25173138623963 15.000000000001535
    vertex 27.795190196371465 96.1781869139047 8.885640646056865
  endloop
endfacet
facet normal -0.7046589544909524 -0.7095461633013866 1.3884927774713852e-15
  outer loop
    vertex 27.795190196371465 96.1781869139047 8.885640646056865
    vertex 22.686457820601348 101.25173138623963 15.000000000001535
    vertex 27.56006728119606 96.4116903505429 8.631370849900232
  endloop
endfacet
facet normal -0.7046589544909524 -0.7095461633013866 1.3884927774713852e-15
  outer loop
    vertex 27.56006728119606 96.4116903505429 8.631370849900232
    vertex 22.686457820601348 101.25173138623963 15.000000000001535
    vertex 27.37965112288974 96.59086383926126 8.300000000001742
  endloop
endfacet
facet normal -0.7046589544909524 -0.7095461633013866 1.3884927774713852e-15
  outer loop
    vertex 27.37965112288974 96.59086383926126 8.300000000001742
    vertex 22.686457820601348 101.25173138623963 15.000000000001535
    vertex 27.26623678448914 96.70349700290176 7.914110472165772
  endloop
endfacet
facet normal -0.7046589544909524 -0.7095461633013866 1.3884927774713852e-15
  outer loop
    vertex 27.26623678448914 96.70349700290176 7.914110472165772
    vertex 22.686457820601348 101.25173138623963 15.000000000001535
    vertex 27.227553265730347 96.7419140774974 7.500000000001737
  endloop
endfacet
facet normal -0.7046589544909524 -0.7095461633013866 1.3884927774713852e-15
  outer loop
    vertex 33.50309435759103 90.50959762879695 9.441142838270835
    vertex 33.68442335177309 90.32951759162957 1.939351633628499e-12
    vertex 33.68442335177296 90.32951759162972 7.500000000001939
  endloop
endfacet
facet normal -0.7046589544909524 -0.7095461633013866 1.3884927774713852e-15
  outer loop
    vertex 33.68442335177309 90.32951759162957 1.939351633628499e-12
    vertex 33.50309435759103 90.50959762879695 9.441142838270835
    vertex 22.686457820601614 101.25173138623934 1.6003482407804553e-12
  endloop
endfacet
facet normal -0.7046589544909524 -0.7095461633013866 1.3884927774713852e-15
  outer loop
    vertex 22.686457820601614 101.25173138623934 1.6003482407804553e-12
    vertex 33.50309435759103 90.50959762879695 9.441142838270835
    vertex 28.93046405765367 95.05073258671906 6.114359353946655
  endloop
endfacet
facet normal -0.7046589544909524 -0.7095461633013866 1.3884927774713852e-15
  outer loop
    vertex 28.93046405765367 95.05073258671906 6.114359353946655
    vertex 33.50309435759103 90.50959762879695 9.441142838270835
    vertex 29.165586972829075 94.81722915008085 6.368629150103286
  endloop
endfacet
facet normal -0.7046589544909524 -0.7095461633013866 1.3884927774713852e-15
  outer loop
    vertex 29.165586972829075 94.81722915008085 6.368629150103286
    vertex 33.50309435759103 90.50959762879695 9.441142838270835
    vertex 32.97146464633835 91.03756558336184 11.250000000001906
  endloop
endfacet
facet normal -0.7046589544909524 -0.7095461633013866 1.3884927774713852e-15
  outer loop
    vertex 29.165586972829075 94.81722915008085 6.368629150103286
    vertex 32.97146464633835 91.03756558336184 11.250000000001906
    vertex 29.346003131135422 94.63805566136246 6.700000000001777
  endloop
endfacet
facet normal -0.7046589544909524 -0.7095461633013866 1.3884927774713852e-15
  outer loop
    vertex 29.346003131135422 94.63805566136246 6.700000000001777
    vertex 32.97146464633835 91.03756558336184 11.250000000001906
    vertex 32.12576390427727 91.87744131172916 12.803300858900979
  endloop
endfacet
facet normal -0.7046589544909524 -0.7095461633013866 1.3884927774713852e-15
  outer loop
    vertex 29.346003131135422 94.63805566136246 6.700000000001777
    vertex 32.12576390427727 91.87744131172916 12.803300858900979
    vertex 29.45941746953599 94.52542249772199 7.085889527837745
  endloop
endfacet
facet normal -0.7046589544909524 -0.7095461633013866 1.3884927774713852e-15
  outer loop
    vertex 29.45941746953599 94.52542249772199 7.085889527837745
    vertex 32.12576390427727 91.87744131172916 12.803300858900979
    vertex 31.023625239392647 92.97198867097092 13.995190528385113
  endloop
endfacet
facet normal -0.7046589544909524 -0.7095461633013866 1.3884927774713852e-15
  outer loop
    vertex 29.45941746953599 94.52542249772199 7.085889527837745
    vertex 31.023625239392647 92.97198867097092 13.995190528385113
    vertex 29.49810098829478 94.48700542312635 7.500000000001787
  endloop
endfacet
facet normal -0.7046589544909524 -0.7095461633013866 1.3884927774713852e-15
  outer loop
    vertex 29.49810098829478 94.48700542312635 7.500000000001787
    vertex 31.023625239392647 92.97198867097092 13.995190528385113
    vertex 29.740157580326105 94.24661606737983 14.744443697169784
  endloop
endfacet
facet normal -0.7046589544909524 -0.7095461633013866 1.3884927774713852e-15
  outer loop
    vertex 22.686457820601614 101.25173138623934 1.6003482407804553e-12
    vertex 28.93046405765367 95.05073258671906 6.114359353946655
    vertex 28.656657623719518 95.32265309795297 5.954518677939279
  endloop
endfacet
facet normal -0.7046589544909524 -0.7095461633013866 1.3884927774713852e-15
  outer loop
    vertex 22.686457820601614 101.25173138623934 1.6003482407804553e-12
    vertex 28.656657623719518 95.32265309795297 5.954518677939279
    vertex 28.36282712701259 95.61445975031185 5.900000000001778
  endloop
endfacet
facet normal -0.7046589544909524 -0.7095461633013866 1.3884927774713852e-15
  outer loop
    vertex 22.686457820601614 101.25173138623934 1.6003482407804553e-12
    vertex 28.36282712701259 95.61445975031185 5.900000000001778
    vertex 28.068996630305694 95.9062664026707 5.954518677939256
  endloop
endfacet
facet normal -0.7046589544909524 -0.7095461633013866 1.3884927774713852e-15
  outer loop
    vertex 22.686457820601614 101.25173138623934 1.6003482407804553e-12
    vertex 28.068996630305694 95.9062664026707 5.954518677939256
    vertex 27.795190196371482 96.17818691390461 6.114359353946655
  endloop
endfacet
facet normal -0.7046589544909524 -0.7095461633013866 1.3884927774713852e-15
  outer loop
    vertex 22.686457820601614 101.25173138623934 1.6003482407804553e-12
    vertex 27.795190196371482 96.17818691390461 6.114359353946655
    vertex 27.560067281196098 96.41169035054286 6.368629150103271
  endloop
endfacet
facet normal -0.7046589544909524 -0.7095461633013866 1.3884927774713852e-15
  outer loop
    vertex 22.686457820601614 101.25173138623934 1.6003482407804553e-12
    vertex 27.560067281196098 96.41169035054286 6.368629150103271
    vertex 27.37965112288974 96.5908638392612 6.700000000001745
  endloop
endfacet
facet normal -0.7046589544909524 -0.7095461633013866 1.3884927774713852e-15
  outer loop
    vertex 22.686457820601614 101.25173138623934 1.6003482407804553e-12
    vertex 27.37965112288974 96.5908638392612 6.700000000001745
    vertex 27.266236784489156 96.70349700290174 7.085889527837704
  endloop
endfacet
facet normal -0.7046589544909524 -0.7095461633013866 1.3884927774713852e-15
  outer loop
    vertex 22.686457820601614 101.25173138623934 1.6003482407804553e-12
    vertex 27.266236784489156 96.70349700290174 7.085889527837704
    vertex 27.227553265730347 96.7419140774974 7.500000000001737
  endloop
endfacet
facet normal -0.7046589544909524 -0.7095461633013866 1.3884927774713852e-15
  outer loop
    vertex 22.686457820601614 101.25173138623934 1.6003482407804553e-12
    vertex 27.227553265730347 96.7419140774974 7.500000000001737
    vertex 22.686457820601348 101.25173138623963 15.000000000001535
  endloop
endfacet
facet normal 0.7095461633013844 -0.7046589544909546 2.696010875060283e-14
  outer loop
    vertex 35.44607073800054 92.10338299988308 2.0054365563724654e-12
    vertex 33.68442335177296 90.32951759162972 7.500000000001939
    vertex 33.68442335177309 90.32951759162957 1.939351633628499e-12
  endloop
endfacet
facet normal 0.7095461633013844 -0.7046589544909546 2.696010875060283e-14
  outer loop
    vertex 33.68442335177296 90.32951759162972 7.500000000001939
    vertex 35.44607073800054 92.10338299988308 2.0054365563724654e-12
    vertex 35.446070738000415 92.10338299988325 7.500000000001942
  endloop
endfacet
facet normal 0.7034758975126569 -0.6986304994510972 0.13052619222007664
  outer loop
    vertex 35.446070738000415 92.10338299988325 7.500000000001942
    vertex 33.50309435759103 90.50959762879695 9.441142838270835
    vertex 33.68442335177296 90.32951759162972 7.500000000001939
  endloop
endfacet
facet normal 0.7034758975126569 -0.6986304994510972 0.13052619222007664
  outer loop
    vertex 33.50309435759103 90.50959762879695 9.441142838270835
    vertex 35.446070738000415 92.10338299988325 7.500000000001942
    vertex 35.264741743818455 92.28346303705045 9.441142838270828
  endloop
endfacet
facet normal 0.09261435890007035 -0.09197645014345963 0.9914448613738116
  outer loop
    vertex 29.740157580326105 94.24661606737983 14.744443697169784
    vertex 30.124474513239875 97.38832515856554 15.00000000000176
    vertex 28.362827127012427 95.61445975031202 15.000000000001764
  endloop
endfacet
facet normal 0.09261435890007035 -0.09197645014345963 0.9914448613738116
  outer loop
    vertex 30.124474513239875 97.38832515856554 15.00000000000176
    vertex 29.740157580326105 94.24661606737983 14.744443697169784
    vertex 31.501804966553557 96.02048147563336 14.74444369716978
  endloop
endfacet
facet normal 2.381585343732394e-14 -3.427498602577808e-14 1.0
  outer loop
    vertex 17.049186184673722 95.57536207982858 15.000000000001695
    vertex 18.44139886281913 101.94417231870455 15.000000000001608
    vertex 14.565774613118867 98.04166842054693 15.000000000001602
  endloop
endfacet
facet normal 2.381585343732394e-14 -3.427498602577808e-14 1.0
  outer loop
    vertex 18.44139886281913 101.94417231870455 15.000000000001608
    vertex 17.049186184673722 95.57536207982858 15.000000000001695
    vertex 22.686457820601348 101.25173138623963 15.000000000001535
  endloop
endfacet
facet normal 2.381585343732394e-14 -3.427498602577808e-14 1.0
  outer loop
    vertex 18.44139886281913 101.94417231870455 15.000000000001608
    vertex 12.74548072116632 113.23826442580162 15.00000000000311
    vertex 9.926844903202468 110.40007977259606 15.000000000002203
  endloop
endfacet
facet normal 2.381585343732394e-14 -3.427498602577808e-14 1.0
  outer loop
    vertex 12.74548072116632 113.23826442580162 15.00000000000311
    vertex 18.44139886281913 101.94417231870455 15.000000000001608
    vertex 22.686457820601348 101.25173138623963 15.000000000001535
  endloop
endfacet
facet normal 2.381585343732394e-14 -3.427498602577808e-14 1.0
  outer loop
    vertex 12.74548072116632 113.23826442580162 15.00000000000311
    vertex 22.686457820601348 101.25173138623963 15.000000000001535
    vertex 28.362827127012427 95.61445975031202 15.000000000001764
  endloop
endfacet
facet normal 2.381585343732394e-14 -3.427498602577808e-14 1.0
  outer loop
    vertex 12.74548072116632 113.23826442580162 15.00000000000311
    vertex 28.362827127012427 95.61445975031202 15.000000000001764
    vertex 21.260034680782987 104.78235697191012 15.000000000001608
  endloop
endfacet
facet normal 2.381585343732394e-14 -3.427498602577808e-14 1.0
  outer loop
    vertex 21.260034680782987 104.78235697191012 15.000000000001608
    vertex 28.362827127012427 95.61445975031202 15.000000000001764
    vertex 30.124474513239875 97.38832515856554 15.00000000000176
  endloop
endfacet
facet normal 2.381585343732394e-14 -3.427498602577808e-14 1.0
  outer loop
    vertex 21.260034680782987 104.78235697191012 15.000000000001608
    vertex 30.124474513239875 97.38832515856554 15.00000000000176
    vertex 24.448105206828796 103.02559679449315 15.000000000001538
  endloop
endfacet
facet normal 2.381585343732394e-14 -3.427498602577808e-14 1.0
  outer loop
    vertex 24.448105206828796 103.02559679449315 15.000000000001538
    vertex 25.13565893048324 108.68486087006772 15.000000000001611
    vertex 21.260034680782987 104.78235697191012 15.000000000001608
  endloop
endfacet
facet normal 2.381585343732394e-14 -3.427498602577808e-14 1.0
  outer loop
    vertex 25.13565893048324 108.68486087006772 15.000000000001611
    vertex 24.448105206828796 103.02559679449315 15.000000000001538
    vertex 27.619070502038063 106.2185545293494 15.000000000001704
  endloop
endfacet
facet normal 0.7046589544909551 0.709546163301384 -1.3713832070333521e-15
  outer loop
    vertex 15.202012644264078 118.55008623294086 1.0632407733717766e-12
    vertex 27.619070502038063 106.2185545293494 15.000000000001704
    vertex 27.61907050203833 106.21855452934912 1.5275829954862854e-12
  endloop
endfacet
facet normal 0.7046589544909551 0.709546163301384 -1.3713832070333521e-15
  outer loop
    vertex 27.619070502038063 106.2185545293494 15.000000000001704
    vertex 15.202012644264078 118.55008623294086 1.0632407733717766e-12
    vertex 25.13565893048324 108.68486087006772 15.000000000001611
  endloop
endfacet
facet normal 0.7046589544909551 0.709546163301384 -1.3713832070333521e-15
  outer loop
    vertex 25.13565893048324 108.68486087006772 15.000000000001611
    vertex 15.202012644264078 118.55008623294086 1.0632407733717766e-12
    vertex 15.202012644263856 118.55008623294113 15.000000000001197
  endloop
endfacet
facet normal 0.7046589544909546 0.7095461633013844 4.547963452920155e-16
  outer loop
    vertex 9.926844903202468 110.40007977259606 15.000000000002203
    vertex 18.441398862819092 101.94417231870459 17.00000000000167
    vertex 18.44139886281913 101.94417231870455 15.000000000001608
  endloop
endfacet
facet normal 0.7046589544909546 0.7095461633013844 4.547963452920155e-16
  outer loop
    vertex 18.441398862819092 101.94417231870459 17.00000000000167
    vertex 9.926844903202468 110.40007977259606 15.000000000002203
    vertex 9.926844903202431 110.4000797725961 17.00000000000171
  endloop
endfacet
facet normal -0.7046589544909545 -0.7095461633013845 -1.864779586566488e-15
  outer loop
    vertex 12.74548072116628 113.23826442580166 17.000000000001798
    vertex 21.260034680782987 104.78235697191012 15.000000000001608
    vertex 21.260034680782947 104.78235697191013 17.000000000001673
  endloop
endfacet
facet normal -0.7046589544909545 -0.7095461633013845 -1.864779586566488e-15
  outer loop
    vertex 21.260034680782987 104.78235697191012 15.000000000001608
    vertex 12.74548072116628 113.23826442580166 17.000000000001798
    vertex 12.74548072116632 113.23826442580162 15.00000000000311
  endloop
endfacet
facet normal -0.7046589544909556 -0.7095461633013834 -2.2676319412168694e-15
  outer loop
    vertex 12.383376826299946 115.71190157973564 17.00000000000175
    vertex 13.802469152902782 114.30258367075366 13.50000000000345
    vertex 13.802469152902711 114.3025836707537 17.0000000000018
  endloop
endfacet
facet normal -0.7046589544909556 -0.7095461633013834 -2.2676319412168694e-15
  outer loop
    vertex 13.802469152902782 114.30258367075366 13.50000000000345
    vertex 12.383376826299946 115.71190157973564 17.00000000000175
    vertex 12.383376826300015 115.71190157973557 13.500000000003398
  endloop
endfacet
facet normal -1.7831132661237038e-13 -1.42355389572623e-13 1.0
  outer loop
    vertex 13.802469152902782 114.30258367075366 13.50000000000345
    vertex 7.450764144863294 110.74507843662586 13.500000000001812
    vertex 8.86985647146606 109.33576052764396 13.500000000001865
  endloop
endfacet
facet normal -1.7831132661237038e-13 -1.42355389572623e-13 1.0
  outer loop
    vertex 7.450764144863294 110.74507843662586 13.500000000001812
    vertex 13.802469152902782 114.30258367075366 13.50000000000345
    vertex 12.383376826300015 115.71190157973557 13.500000000003398
  endloop
endfacet
facet normal 0.7046589544909556 0.7095461633013834 -9.551868959822448e-16
  outer loop
    vertex 7.450764144863294 110.74507843662586 13.500000000001812
    vertex 8.869856471465997 109.335760527644 17.000000000001712
    vertex 8.86985647146606 109.33576052764396 13.500000000001865
  endloop
endfacet
facet normal 0.7046589544909556 0.7095461633013834 -9.551868959822448e-16
  outer loop
    vertex 8.869856471465997 109.335760527644 17.000000000001712
    vertex 7.450764144863294 110.74507843662586 13.500000000001812
    vertex 7.450764144863232 110.74507843662593 17.00000000000166
  endloop
endfacet
facet normal 5.848083989419084e-15 1.2350762532256069e-14 -1.0
  outer loop
    vertex 12.383376826299946 115.71190157973564 17.00000000000175
    vertex 8.869856471465997 109.335760527644 17.000000000001712
    vertex 7.450764144863232 110.74507843662593 17.00000000000166
  endloop
endfacet
facet normal 5.848083989419084e-15 1.2350762532256069e-14 -1.0
  outer loop
    vertex 8.869856471465997 109.335760527644 17.000000000001712
    vertex 12.383376826299946 115.71190157973564 17.00000000000175
    vertex 9.926844903202431 110.4000797725961 17.00000000000171
  endloop
endfacet
facet normal 5.848083989419084e-15 1.2350762532256069e-14 -1.0
  outer loop
    vertex 9.926844903202431 110.4000797725961 17.00000000000171
    vertex 12.383376826299946 115.71190157973564 17.00000000000175
    vertex 12.74548072116628 113.23826442580166 17.000000000001798
  endloop
endfacet
facet normal 5.848083989419084e-15 1.2350762532256069e-14 -1.0
  outer loop
    vertex 9.926844903202431 110.4000797725961 17.00000000000171
    vertex 12.74548072116628 113.23826442580166 17.000000000001798
    vertex 18.441398862819092 101.94417231870459 17.00000000000167
  endloop
endfacet
facet normal 5.848083989419084e-15 1.2350762532256069e-14 -1.0
  outer loop
    vertex 12.74548072116628 113.23826442580166 17.000000000001798
    vertex 12.383376826299946 115.71190157973564 17.00000000000175
    vertex 13.802469152902711 114.3025836707537 17.0000000000018
  endloop
endfacet
facet normal 5.848083989419084e-15 1.2350762532256069e-14 -1.0
  outer loop
    vertex 21.260034680782947 104.78235697191013 17.000000000001673
    vertex 18.441398862819092 101.94417231870459 17.00000000000167
    vertex 12.74548072116628 113.23826442580166 17.000000000001798
  endloop
endfacet
facet normal 0.7046589544909527 0.7095461633013863 -1.2447571969337308e-15
  outer loop
    vertex 24.448105206829062 103.02559679449286 1.6105508277285971e-12
    vertex 35.446070738000415 92.10338299988325 7.500000000001942
    vertex 35.44607073800054 92.10338299988308 2.0054365563724654e-12
  endloop
endfacet
facet normal 0.7046589544909527 0.7095461633013863 -1.2447571969337308e-15
  outer loop
    vertex 35.446070738000415 92.10338299988325 7.500000000001942
    vertex 24.448105206829062 103.02559679449286 1.6105508277285971e-12
    vertex 35.264741743818455 92.28346303705045 9.441142838270828
  endloop
endfacet
facet normal 0.7046589544909527 0.7095461633013863 -1.2447571969337308e-15
  outer loop
    vertex 35.264741743818455 92.28346303705045 9.441142838270828
    vertex 24.448105206829062 103.02559679449286 1.6105508277285971e-12
    vertex 30.69211144388115 96.82459799497262 6.114359353946624
  endloop
endfacet
facet normal 0.7046589544909527 0.7095461633013863 -1.2447571969337308e-15
  outer loop
    vertex 35.264741743818455 92.28346303705045 9.441142838270828
    vertex 30.69211144388115 96.82459799497262 6.114359353946624
    vertex 30.927234359056555 96.5910945583344 6.368629150103264
  endloop
endfacet
facet normal 0.7046589544909527 0.7095461633013863 -1.2447571969337308e-15
  outer loop
    vertex 35.264741743818455 92.28346303705045 9.441142838270828
    vertex 30.927234359056555 96.5910945583344 6.368629150103264
    vertex 34.7331120325658 92.81143099161537 11.250000000001897
  endloop
endfacet
facet normal 0.7046589544909527 0.7095461633013863 -1.2447571969337308e-15
  outer loop
    vertex 34.7331120325658 92.81143099161537 11.250000000001897
    vertex 30.927234359056555 96.5910945583344 6.368629150103264
    vertex 31.10765051736287 96.41192106961604 6.700000000001754
  endloop
endfacet
facet normal 0.7046589544909527 0.7095461633013863 -1.2447571969337308e-15
  outer loop
    vertex 34.7331120325658 92.81143099161537 11.250000000001897
    vertex 31.10765051736287 96.41192106961604 6.700000000001754
    vertex 33.887411290504716 93.65130671998268 12.80330085890097
  endloop
endfacet
facet normal 0.7046589544909527 0.7095461633013863 -1.2447571969337308e-15
  outer loop
    vertex 33.887411290504716 93.65130671998268 12.80330085890097
    vertex 31.10765051736287 96.41192106961604 6.700000000001754
    vertex 31.221064855763473 96.29928790597555 7.085889527837723
  endloop
endfacet
facet normal 0.7046589544909527 0.7095461633013863 -1.2447571969337308e-15
  outer loop
    vertex 33.887411290504716 93.65130671998268 12.80330085890097
    vertex 31.221064855763473 96.29928790597555 7.085889527837723
    vertex 32.7852726256201 94.74585407922444 13.995190528385107
  endloop
endfacet
facet normal 0.7046589544909527 0.7095461633013863 -1.2447571969337308e-15
  outer loop
    vertex 32.7852726256201 94.74585407922444 13.995190528385107
    vertex 31.221064855763473 96.29928790597555 7.085889527837723
    vertex 31.25974837452226 96.2608708313799 7.500000000001764
  endloop
endfacet
facet normal 0.7046589544909527 0.7095461633013863 -1.2447571969337308e-15
  outer loop
    vertex 32.7852726256201 94.74585407922444 13.995190528385107
    vertex 31.25974837452226 96.2608708313799 7.500000000001764
    vertex 31.501804966553557 96.02048147563336 14.74444369716978
  endloop
endfacet
facet normal 0.7046589544909527 0.7095461633013863 -1.2447571969337308e-15
  outer loop
    vertex 30.69211144388115 96.82459799497262 6.114359353946624
    vertex 24.448105206829062 103.02559679449286 1.6105508277285971e-12
    vertex 30.418305009946966 97.09651850620655 5.954518677939247
  endloop
endfacet
facet normal 0.7046589544909527 0.7095461633013863 -1.2447571969337308e-15
  outer loop
    vertex 30.418305009946966 97.09651850620655 5.954518677939247
    vertex 24.448105206829062 103.02559679449286 1.6105508277285971e-12
    vertex 30.124474513240074 97.3883251585654 5.900000000001746
  endloop
endfacet
facet normal 0.7046589544909527 0.7095461633013863 -1.2447571969337308e-15
  outer loop
    vertex 30.124474513240074 97.3883251585654 5.900000000001746
    vertex 24.448105206829062 103.02559679449286 1.6105508277285971e-12
    vertex 29.830644016533142 97.68013181092427 5.954518677939224
  endloop
endfacet
facet normal 0.7046589544909527 0.7095461633013863 -1.2447571969337308e-15
  outer loop
    vertex 29.830644016533142 97.68013181092427 5.954518677939224
    vertex 24.448105206829062 103.02559679449286 1.6105508277285971e-12
    vertex 29.556837582598963 97.95205232215815 6.114359353946623
  endloop
endfacet
facet normal 0.7046589544909527 0.7095461633013863 -1.2447571969337308e-15
  outer loop
    vertex 29.556837582598963 97.95205232215815 6.114359353946623
    vertex 24.448105206829062 103.02559679449286 1.6105508277285971e-12
    vertex 29.321714667423578 98.1855557587964 6.3686291501032475
  endloop
endfacet
facet normal 0.7046589544909527 0.7095461633013863 -1.2447571969337308e-15
  outer loop
    vertex 29.321714667423578 98.1855557587964 6.3686291501032475
    vertex 24.448105206829062 103.02559679449286 1.6105508277285971e-12
    vertex 29.14129850911719 98.36472924751479 6.700000000001723
  endloop
endfacet
facet normal 0.7046589544909527 0.7095461633013863 -1.2447571969337308e-15
  outer loop
    vertex 29.14129850911719 98.36472924751479 6.700000000001723
    vertex 24.448105206829062 103.02559679449286 1.6105508277285971e-12
    vertex 29.027884170716636 98.4773624111553 7.085889527837683
  endloop
endfacet
facet normal 0.7046589544909527 0.7095461633013863 -1.2447571969337308e-15
  outer loop
    vertex 29.027884170716636 98.4773624111553 7.085889527837683
    vertex 24.448105206829062 103.02559679449286 1.6105508277285971e-12
    vertex 28.98920065195783 98.51577948575094 7.500000000001716
  endloop
endfacet
facet normal 0.7046589544909527 0.7095461633013863 -1.2447571969337308e-15
  outer loop
    vertex 31.501804966553557 96.02048147563336 14.74444369716978
    vertex 31.221064855763426 96.29928790597559 7.914110472165792
    vertex 30.124474513239875 97.38832515856554 15.00000000000176
  endloop
endfacet
facet normal 0.7046589544909527 0.7095461633013863 -1.2447571969337308e-15
  outer loop
    vertex 31.221064855763426 96.29928790597559 7.914110472165792
    vertex 31.501804966553557 96.02048147563336 14.74444369716978
    vertex 31.25974837452226 96.2608708313799 7.500000000001764
  endloop
endfacet
facet normal 0.7046589544909527 0.7095461633013863 -1.2447571969337308e-15
  outer loop
    vertex 30.124474513239875 97.38832515856554 15.00000000000176
    vertex 31.221064855763426 96.29928790597559 7.914110472165792
    vertex 31.10765051736287 96.4119210696161 8.300000000001754
  endloop
endfacet
facet normal 0.7046589544909527 0.7095461633013863 -1.2447571969337308e-15
  outer loop
    vertex 30.124474513239875 97.38832515856554 15.00000000000176
    vertex 31.10765051736287 96.4119210696161 8.300000000001754
    vertex 30.927234359056516 96.59109455833446 8.631370849900224
  endloop
endfacet
facet normal 0.7046589544909527 0.7095461633013863 -1.2447571969337308e-15
  outer loop
    vertex 30.124474513239875 97.38832515856554 15.00000000000176
    vertex 30.927234359056516 96.59109455833446 8.631370849900224
    vertex 30.69211144388113 96.82459799497269 8.88564064605684
  endloop
endfacet
facet normal 0.7046589544909527 0.7095461633013863 -1.2447571969337308e-15
  outer loop
    vertex 30.124474513239875 97.38832515856554 15.00000000000176
    vertex 30.69211144388113 96.82459799497269 8.88564064605684
    vertex 30.418305009946916 97.0965185062066 9.045481322064278
  endloop
endfacet
facet normal 0.7046589544909527 0.7095461633013863 -1.2447571969337308e-15
  outer loop
    vertex 30.124474513239875 97.38832515856554 15.00000000000176
    vertex 30.418305009946916 97.0965185062066 9.045481322064278
    vertex 30.124474513240017 97.38832515856545 9.100000000001756
  endloop
endfacet
facet normal 0.7046589544909527 0.7095461633013863 -1.2447571969337308e-15
  outer loop
    vertex 30.124474513239875 97.38832515856554 15.00000000000176
    vertex 30.124474513240017 97.38832515856545 9.100000000001756
    vertex 29.830644016533093 97.68013181092434 9.045481322064255
  endloop
endfacet
facet normal 0.7046589544909527 0.7095461633013863 -1.2447571969337308e-15
  outer loop
    vertex 30.124474513239875 97.38832515856554 15.00000000000176
    vertex 29.830644016533093 97.68013181092434 9.045481322064255
    vertex 24.448105206828796 103.02559679449315 15.000000000001538
  endloop
endfacet
facet normal 0.7046589544909527 0.7095461633013863 -1.2447571969337308e-15
  outer loop
    vertex 24.448105206828796 103.02559679449315 15.000000000001538
    vertex 29.830644016533093 97.68013181092434 9.045481322064255
    vertex 29.556837582598945 97.95205232215824 8.885640646056844
  endloop
endfacet
facet normal 0.7046589544909527 0.7095461633013863 -1.2447571969337308e-15
  outer loop
    vertex 24.448105206828796 103.02559679449315 15.000000000001538
    vertex 29.556837582598945 97.95205232215824 8.885640646056844
    vertex 29.32171466742354 98.18555575879644 8.63137084990021
  endloop
endfacet
facet normal 0.7046589544909527 0.7095461633013863 -1.2447571969337308e-15
  outer loop
    vertex 24.448105206828796 103.02559679449315 15.000000000001538
    vertex 29.32171466742354 98.18555575879644 8.63137084990021
    vertex 29.14129850911718 98.36472924751483 8.30000000000172
  endloop
endfacet
facet normal 0.7046589544909527 0.7095461633013863 -1.2447571969337308e-15
  outer loop
    vertex 24.448105206828796 103.02559679449315 15.000000000001538
    vertex 29.14129850911718 98.36472924751483 8.30000000000172
    vertex 29.027884170716625 98.47736241115531 7.914110472165751
  endloop
endfacet
facet normal 0.7046589544909527 0.7095461633013863 -1.2447571969337308e-15
  outer loop
    vertex 24.448105206828796 103.02559679449315 15.000000000001538
    vertex 29.027884170716625 98.47736241115531 7.914110472165751
    vertex 28.98920065195783 98.51577948575094 7.500000000001716
  endloop
endfacet
facet normal 0.7046589544909527 0.7095461633013863 -1.2447571969337308e-15
  outer loop
    vertex 24.448105206828796 103.02559679449315 15.000000000001538
    vertex 28.98920065195783 98.51577948575094 7.500000000001716
    vertex 24.448105206829062 103.02559679449286 1.6105508277285971e-12
  endloop
endfacet
facet normal -0.7095461633013834 0.7046589544909556 -2.620811768859006e-14
  outer loop
    vertex 8.86985647146606 109.33576052764396 13.500000000001865
    vertex 9.926844903202468 110.40007977259606 15.000000000002203
    vertex 13.802469152902782 114.30258367075366 13.50000000000345
  endloop
endfacet
facet normal -0.7095461633013834 0.7046589544909556 -2.620811768859006e-14
  outer loop
    vertex 9.926844903202468 110.40007977259606 15.000000000002203
    vertex 8.86985647146606 109.33576052764396 13.500000000001865
    vertex 8.869856471465997 109.335760527644 17.000000000001712
  endloop
endfacet
facet normal -0.7095461633013834 0.7046589544909556 -2.620811768859006e-14
  outer loop
    vertex 9.926844903202468 110.40007977259606 15.000000000002203
    vertex 8.869856471465997 109.335760527644 17.000000000001712
    vertex 9.926844903202431 110.4000797725961 17.00000000000171
  endloop
endfacet
facet normal -0.7095461633013834 0.7046589544909556 -2.620811768859006e-14
  outer loop
    vertex 13.802469152902782 114.30258367075366 13.50000000000345
    vertex 12.74548072116632 113.23826442580162 15.00000000000311
    vertex 13.802469152902711 114.3025836707537 17.0000000000018
  endloop
endfacet
facet normal -0.7095461633013834 0.7046589544909556 -2.620811768859006e-14
  outer loop
    vertex 12.74548072116632 113.23826442580162 15.00000000000311
    vertex 13.802469152902782 114.30258367075366 13.50000000000345
    vertex 9.926844903202468 110.40007977259606 15.000000000002203
  endloop
endfacet
facet normal -0.7095461633013834 0.7046589544909556 -2.620811768859006e-14
  outer loop
    vertex 13.802469152902711 114.3025836707537 17.0000000000018
    vertex 12.74548072116632 113.23826442580162 15.00000000000311
    vertex 12.74548072116628 113.23826442580166 17.000000000001798
  endloop
endfacet
facet normal -0.7095461633013834 0.7046589544909556 -2.5518876568023534e-14
  outer loop
    vertex 4.632128326899517 107.90689378342029 15.00000000000112
    vertex 15.202012644264078 118.55008623294086 1.0632407733717766e-12
    vertex 4.632128326899706 107.90689378342006 1.0775685768115104e-12
  endloop
endfacet
facet normal -0.7095461633013834 0.7046589544909556 -2.5518876568023534e-14
  outer loop
    vertex 15.202012644264078 118.55008623294086 1.0632407733717766e-12
    vertex 4.632128326899517 107.90689378342029 15.00000000000112
    vertex 7.450764144863294 110.74507843662586 13.500000000001812
  endloop
endfacet
facet normal -0.7095461633013834 0.7046589544909556 -2.5518876568023534e-14
  outer loop
    vertex 7.450764144863294 110.74507843662586 13.500000000001812
    vertex 4.632128326899517 107.90689378342029 15.00000000000112
    vertex 7.450764144863232 110.74507843662593 17.00000000000166
  endloop
endfacet
facet normal -0.7095461633013834 0.7046589544909556 -2.5518876568023534e-14
  outer loop
    vertex 7.450764144863232 110.74507843662593 17.00000000000166
    vertex 4.632128326899517 107.90689378342029 15.00000000000112
    vertex 5.278901917589184 108.55815311514924 16.15250470106866
  endloop
endfacet
facet normal -0.7095461633013834 0.7046589544909556 -2.5518876568023534e-14
  outer loop
    vertex 7.450764144863232 110.74507843662593 17.00000000000166
    vertex 5.278901917589184 108.55815311514924 16.15250470106866
    vertex 6.0491152440714195 109.333708307127 17.140435597774438
  endloop
endfacet
facet normal -0.7095461633013834 0.7046589544909556 -2.5518876568023534e-14
  outer loop
    vertex 7.450764144863232 110.74507843662593 17.00000000000166
    vertex 6.0491152440714195 109.333708307127 17.140435597774438
    vertex 12.383376826299946 115.71190157973564 17.00000000000175
  endloop
endfacet
facet normal -0.7095461633013834 0.7046589544909556 -2.5518876568023534e-14
  outer loop
    vertex 15.202012644264078 118.55008623294086 1.0632407733717766e-12
    vertex 12.383376826300015 115.71190157973557 13.500000000003398
    vertex 15.202012644263856 118.55008623294113 15.000000000001197
  endloop
endfacet
facet normal -0.7095461633013834 0.7046589544909556 -2.5518876568023534e-14
  outer loop
    vertex 12.383376826300015 115.71190157973557 13.500000000003398
    vertex 15.202012644264078 118.55008623294086 1.0632407733717766e-12
    vertex 7.450764144863294 110.74507843662586 13.500000000001812
  endloop
endfacet
facet normal -0.7095461633013834 0.7046589544909556 -2.5518876568023534e-14
  outer loop
    vertex 15.202012644263856 118.55008623294113 15.000000000001197
    vertex 12.383376826300015 115.71190157973557 13.500000000003398
    vertex 12.383376826299946 115.71190157973564 17.00000000000175
  endloop
endfacet
facet normal -0.7095461633013834 0.7046589544909556 -2.5518876568023534e-14
  outer loop
    vertex 15.202012644263856 118.55008623294113 15.000000000001197
    vertex 12.383376826299946 115.71190157973564 17.00000000000175
    vertex 14.555239053574113 117.89882690121226 16.152504701068736
  endloop
endfacet
facet normal -0.7095461633013834 0.7046589544909556 -2.5518876568023534e-14
  outer loop
    vertex 14.555239053574113 117.89882690121226 16.152504701068736
    vertex 12.383376826299946 115.71190157973564 17.00000000000175
    vertex 13.785025727091835 117.1232717092345 17.14043559777451
  endloop
endfacet
facet normal -0.7095461633013834 0.7046589544909556 -2.5518876568023534e-14
  outer loop
    vertex 13.785025727091835 117.1232717092345 17.14043559777451
    vertex 12.383376826299946 115.71190157973564 17.00000000000175
    vertex 6.0491152440714195 109.333708307127 17.140435597774438
  endloop
endfacet
facet normal -0.7095461633013834 0.7046589544909556 -2.5518876568023534e-14
  outer loop
    vertex 13.785025727091835 117.1232717092345 17.14043559777451
    vertex 6.0491152440714195 109.333708307127 17.140435597774438
    vertex 6.922269928995069 110.2129188141499 17.93750000000101
  endloop
endfacet
facet normal -0.7095461633013834 0.7046589544909556 -2.5518876568023534e-14
  outer loop
    vertex 13.785025727091835 117.1232717092345 17.14043559777451
    vertex 6.922269928995069 110.2129188141499 17.93750000000101
    vertex 12.91187104216816 116.24406120221164 17.937500000001076
  endloop
endfacet
facet normal -0.7095461633013834 0.7046589544909556 -2.5518876568023534e-14
  outer loop
    vertex 12.91187104216816 116.24406120221164 17.937500000001076
    vertex 6.922269928995069 110.2129188141499 17.93750000000101
    vertex 7.875127924403707 111.17238541924212 18.522484918660524
  endloop
endfacet
facet normal -0.7095461633013834 0.7046589544909556 -2.5518876568023534e-14
  outer loop
    vertex 12.91187104216816 116.24406120221164 17.937500000001076
    vertex 7.875127924403707 111.17238541924212 18.522484918660524
    vertex 11.959013046759496 115.28459459711944 18.52248491866059
  endloop
endfacet
facet normal -0.7095461633013834 0.7046589544909556 -2.5518876568023534e-14
  outer loop
    vertex 11.959013046759496 115.28459459711944 18.52248491866059
    vertex 7.875127924403707 111.17238541924212 18.522484918660524
    vertex 8.882329966726633 112.18657297798224 18.87982162597963
  endloop
endfacet
facet normal -0.7095461633013834 0.7046589544909556 -2.5518876568023534e-14
  outer loop
    vertex 11.959013046759496 115.28459459711944 18.52248491866059
    vertex 8.882329966726633 112.18657297798224 18.87982162597963
    vertex 10.951811004436566 114.27040703837932 18.8798216259797
  endloop
endfacet
facet normal -0.7095461633013834 0.7046589544909556 -2.5518876568023534e-14
  outer loop
    vertex 10.951811004436566 114.27040703837932 18.8798216259797
    vertex 8.882329966726633 112.18657297798224 18.87982162597963
    vertex 9.917070485581595 113.22849000818078 19.000000000001034
  endloop
endfacet
facet normal 0.7095461633013842 -0.7046589544909548 3.315150680912925e-14
  outer loop
    vertex 25.13565893048324 108.68486087006772 15.000000000001611
    vertex 21.260034680782947 104.78235697191013 17.000000000001673
    vertex 21.260034680782987 104.78235697191012 15.000000000001608
  endloop
endfacet
facet normal 0.7095461633013842 -0.7046589544909548 3.315150680912925e-14
  outer loop
    vertex 21.260034680782947 104.78235697191013 17.000000000001673
    vertex 25.13565893048324 108.68486087006772 15.000000000001611
    vertex 24.488885339793494 108.03360153833887 16.152504701069148
  endloop
endfacet
facet normal 0.7095461633013842 -0.7046589544909548 3.315150680912925e-14
  outer loop
    vertex 21.260034680782947 104.78235697191013 17.000000000001673
    vertex 24.488885339793494 108.03360153833887 16.152504701069148
    vertex 23.718672013311217 107.25804634636113 17.14043559777492
  endloop
endfacet
facet normal 0.7095461633013842 -0.7046589544909548 3.315150680912925e-14
  outer loop
    vertex 21.260034680782947 104.78235697191013 17.000000000001673
    vertex 23.718672013311217 107.25804634636113 17.14043559777492
    vertex 15.982761530290803 99.46848294425361 17.140435597774918
  endloop
endfacet
facet normal 0.7095461633013842 -0.7046589544909548 3.315150680912925e-14
  outer loop
    vertex 15.982761530290803 99.46848294425361 17.140435597774918
    vertex 23.718672013311217 107.25804634636113 17.14043559777492
    vertex 16.855916215214453 100.34769345127651 17.937500000001492
  endloop
endfacet
facet normal 0.7095461633013842 -0.7046589544909548 3.315150680912925e-14
  outer loop
    vertex 16.855916215214453 100.34769345127651 17.937500000001492
    vertex 23.718672013311217 107.25804634636113 17.14043559777492
    vertex 22.84551732838751 106.37883583933827 17.937500000001492
  endloop
endfacet
facet normal 0.7095461633013842 -0.7046589544909548 3.315150680912925e-14
  outer loop
    vertex 16.855916215214453 100.34769345127651 17.937500000001492
    vertex 22.84551732838751 106.37883583933827 17.937500000001492
    vertex 17.80877421062309 101.30716005636873 18.522484918661004
  endloop
endfacet
facet normal 0.7095461633013842 -0.7046589544909548 3.315150680912925e-14
  outer loop
    vertex 17.80877421062309 101.30716005636873 18.522484918661004
    vertex 22.84551732838751 106.37883583933827 17.937500000001492
    vertex 21.892659332978845 105.41936923424609 18.522484918661007
  endloop
endfacet
facet normal 0.7095461633013842 -0.7046589544909548 3.315150680912925e-14
  outer loop
    vertex 17.80877421062309 101.30716005636873 18.522484918661004
    vertex 21.892659332978845 105.41936923424609 18.522484918661007
    vertex 18.81597625294598 102.32134761510889 18.879821625980114
  endloop
endfacet
facet normal 0.7095461633013842 -0.7046589544909548 3.315150680912925e-14
  outer loop
    vertex 18.81597625294598 102.32134761510889 18.879821625980114
    vertex 21.892659332978845 105.41936923424609 18.522484918661007
    vertex 20.88545729065591 104.40518167550597 18.879821625980114
  endloop
endfacet
facet normal 0.7095461633013842 -0.7046589544909548 3.315150680912925e-14
  outer loop
    vertex 18.81597625294598 102.32134761510889 18.879821625980114
    vertex 20.88545729065591 104.40518167550597 18.879821625980114
    vertex 19.85071677180094 103.36326464530742 19.00000000000145
  endloop
endfacet
facet normal 0.7095461633013842 -0.7046589544909548 3.315150680912925e-14
  outer loop
    vertex 18.44139886281913 101.94417231870455 15.000000000001608
    vertex 15.212548203808565 98.69292775227584 16.152504701069144
    vertex 14.565774613118867 98.04166842054693 15.000000000001602
  endloop
endfacet
facet normal 0.7095461633013842 -0.7046589544909548 3.315150680912925e-14
  outer loop
    vertex 15.212548203808565 98.69292775227584 16.152504701069144
    vertex 18.44139886281913 101.94417231870455 15.000000000001608
    vertex 18.441398862819092 101.94417231870459 17.00000000000167
  endloop
endfacet
facet normal 0.7095461633013842 -0.7046589544909548 3.315150680912925e-14
  outer loop
    vertex 15.212548203808565 98.69292775227584 16.152504701069144
    vertex 18.441398862819092 101.94417231870459 17.00000000000167
    vertex 15.982761530290803 99.46848294425361 17.140435597774918
  endloop
endfacet
facet normal 0.7095461633013842 -0.7046589544909548 3.315150680912925e-14
  outer loop
    vertex 15.982761530290803 99.46848294425361 17.140435597774918
    vertex 18.441398862819092 101.94417231870459 17.00000000000167
    vertex 21.260034680782947 104.78235697191013 17.000000000001673
  endloop
endfacet
facet normal 0.05747820632295634 0.057876850226632554 0.9966677109276391
  outer loop
    vertex 20.88545729065591 104.40518167550597 18.879821625980114
    vertex 9.917070485581595 113.22849000818078 19.000000000001034
    vertex 19.85071677180094 103.36326464530742 19.00000000000145
  endloop
endfacet
facet normal 0.05747820632295634 0.057876850226632554 0.9966677109276391
  outer loop
    vertex 9.917070485581595 113.22849000818078 19.000000000001034
    vertex 20.88545729065591 104.40518167550597 18.879821625980114
    vertex 10.951811004436566 114.27040703837932 18.8798216259797
  endloop
endfacet
facet normal 0.1709048999648868 0.17209022220844747 0.970142500145334
  outer loop
    vertex 21.892659332978845 105.41936923424609 18.522484918661007
    vertex 10.951811004436566 114.27040703837932 18.8798216259797
    vertex 20.88545729065591 104.40518167550597 18.879821625980114
  endloop
endfacet
facet normal 0.1709048999648868 0.17209022220844747 0.970142500145334
  outer loop
    vertex 10.951811004436566 114.27040703837932 18.8798216259797
    vertex 21.892659332978845 105.41936923424609 18.522484918661007
    vertex 11.959013046759496 115.28459459711944 18.52248491866059
  endloop
endfacet
facet normal 0.2797831483771839 0.28172360291773973 0.9177980177812536
  outer loop
    vertex 22.84551732838751 106.37883583933827 17.937500000001492
    vertex 11.959013046759496 115.28459459711944 18.52248491866059
    vertex 21.892659332978845 105.41936923424609 18.522484918661007
  endloop
endfacet
facet normal 0.2797831483771839 0.28172360291773973 0.9177980177812536
  outer loop
    vertex 11.959013046759496 115.28459459711944 18.52248491866059
    vertex 22.84551732838751 106.37883583933827 17.937500000001492
    vertex 12.91187104216816 116.24406120221164 17.937500000001076
  endloop
endfacet
facet normal 0.3812152771824411 0.38385922096470154 0.841027354444008
  outer loop
    vertex 23.718672013311217 107.25804634636113 17.14043559777492
    vertex 12.91187104216816 116.24406120221164 17.937500000001076
    vertex 22.84551732838751 106.37883583933827 17.937500000001492
  endloop
endfacet
facet normal 0.3812152771824411 0.38385922096470154 0.841027354444008
  outer loop
    vertex 12.91187104216816 116.24406120221164 17.937500000001076
    vertex 23.718672013311217 107.25804634636113 17.14043559777492
    vertex 13.785025727091835 117.1232717092345 17.14043559777451
  endloop
endfacet
facet normal 0.4725017822559053 0.47577884963508016 0.7418736765817432
  outer loop
    vertex 24.488885339793494 108.03360153833887 16.152504701069148
    vertex 13.785025727091835 117.1232717092345 17.14043559777451
    vertex 23.718672013311217 107.25804634636113 17.14043559777492
  endloop
endfacet
facet normal 0.4725017822559053 0.47577884963508016 0.7418736765817432
  outer loop
    vertex 13.785025727091835 117.1232717092345 17.14043559777451
    vertex 24.488885339793494 108.03360153833887 16.152504701069148
    vertex 14.555239053574113 117.89882690121226 16.152504701068736
  endloop
endfacet
facet normal 0.5512131740474437 0.5550361494931941 0.6229758498628266
  outer loop
    vertex 15.202012644263856 118.55008623294113 15.000000000001197
    vertex 24.488885339793494 108.03360153833887 16.152504701069148
    vertex 25.13565893048324 108.68486087006772 15.000000000001611
  endloop
endfacet
facet normal 0.5512131740474437 0.5550361494931941 0.6229758498628266
  outer loop
    vertex 24.488885339793494 108.03360153833887 16.152504701069148
    vertex 15.202012644263856 118.55008623294113 15.000000000001197
    vertex 14.555239053574113 117.89882690121226 16.152504701068736
  endloop
endfacet
facet normal -0.5512131740474737 -0.5550361494931675 0.622975849862824
  outer loop
    vertex 5.278901917589184 108.55815311514924 16.15250470106866
    vertex 14.565774613118867 98.04166842054693 15.000000000001602
    vertex 15.212548203808565 98.69292775227584 16.152504701069144
  endloop
endfacet
facet normal -0.5512131740474737 -0.5550361494931675 0.622975849862824
  outer loop
    vertex 14.565774613118867 98.04166842054693 15.000000000001602
    vertex 5.278901917589184 108.55815311514924 16.15250470106866
    vertex 4.632128326899517 107.90689378342029 15.00000000000112
  endloop
endfacet
facet normal -0.4725017822559401 -0.4757788496350478 0.7418736765817419
  outer loop
    vertex 15.982761530290803 99.46848294425361 17.140435597774918
    vertex 5.278901917589184 108.55815311514924 16.15250470106866
    vertex 15.212548203808565 98.69292775227584 16.152504701069144
  endloop
endfacet
facet normal -0.4725017822559401 -0.4757788496350478 0.7418736765817419
  outer loop
    vertex 5.278901917589184 108.55815311514924 16.15250470106866
    vertex 15.982761530290803 99.46848294425361 17.140435597774918
    vertex 6.0491152440714195 109.333708307127 17.140435597774438
  endloop
endfacet
facet normal -0.3812152771824801 -0.38385922096466446 0.8410273544440073
  outer loop
    vertex 16.855916215214453 100.34769345127651 17.937500000001492
    vertex 6.0491152440714195 109.333708307127 17.140435597774438
    vertex 15.982761530290803 99.46848294425361 17.140435597774918
  endloop
endfacet
facet normal -0.3812152771824801 -0.38385922096466446 0.8410273544440073
  outer loop
    vertex 6.0491152440714195 109.333708307127 17.140435597774438
    vertex 16.855916215214453 100.34769345127651 17.937500000001492
    vertex 6.922269928995069 110.2129188141499 17.93750000000101
  endloop
endfacet
facet normal -0.27978314837722434 -0.2817236029176971 0.9177980177812545
  outer loop
    vertex 17.80877421062309 101.30716005636873 18.522484918661004
    vertex 6.922269928995069 110.2129188141499 17.93750000000101
    vertex 16.855916215214453 100.34769345127651 17.937500000001492
  endloop
endfacet
facet normal -0.27978314837722434 -0.2817236029176971 0.9177980177812545
  outer loop
    vertex 6.922269928995069 110.2129188141499 17.93750000000101
    vertex 17.80877421062309 101.30716005636873 18.522484918661004
    vertex 7.875127924403707 111.17238541924212 18.522484918660524
  endloop
endfacet
facet normal -0.17090489996493205 -0.17209022220840497 0.9701425001453334
  outer loop
    vertex 18.81597625294598 102.32134761510889 18.879821625980114
    vertex 7.875127924403707 111.17238541924212 18.522484918660524
    vertex 17.80877421062309 101.30716005636873 18.522484918661004
  endloop
endfacet
facet normal -0.17090489996493205 -0.17209022220840497 0.9701425001453334
  outer loop
    vertex 7.875127924403707 111.17238541924212 18.522484918660524
    vertex 18.81597625294598 102.32134761510889 18.879821625980114
    vertex 8.882329966726633 112.18657297798224 18.87982162597963
  endloop
endfacet
facet normal -0.057478206323016014 -0.0578768502266054 0.9966677109276371
  outer loop
    vertex 19.85071677180094 103.36326464530742 19.00000000000145
    vertex 8.882329966726633 112.18657297798224 18.87982162597963
    vertex 18.81597625294598 102.32134761510889 18.879821625980114
  endloop
endfacet
facet normal -0.057478206323016014 -0.0578768502266054 0.9966677109276371
  outer loop
    vertex 8.882329966726633 112.18657297798224 18.87982162597963
    vertex 19.85071677180094 103.36326464530742 19.00000000000145
    vertex 9.917070485581595 113.22849000818078 19.000000000001034
  endloop
endfacet
facet normal -0.4319443363189996 0.42896919209969264 -0.7933533402912449
  outer loop
    vertex 30.69211144388113 96.82459799497269 8.88564064605684
    vertex 29.165586972829036 94.8172291500809 8.631370849900245
    vertex 28.93046405765365 95.05073258671914 8.885640646056864
  endloop
endfacet
facet normal -0.4319443363189996 0.42896919209969264 -0.7933533402912449
  outer loop
    vertex 29.165586972829036 94.8172291500809 8.631370849900245
    vertex 30.69211144388113 96.82459799497269 8.88564064605684
    vertex 30.927234359056516 96.59109455833446 8.631370849900224
  endloop
endfacet
facet normal -0.2715315611936983 0.2696613073514296 -0.9238795325112636
  outer loop
    vertex 30.418305009946916 97.0965185062066 9.045481322064278
    vertex 28.93046405765365 95.05073258671914 8.885640646056864
    vertex 28.656657623719468 95.32265309795302 9.0454813220643
  endloop
endfacet
facet normal -0.2715315611936983 0.2696613073514296 -0.9238795325112636
  outer loop
    vertex 28.93046405765365 95.05073258671914 8.885640646056864
    vertex 30.418305009946916 97.0965185062066 9.045481322064278
    vertex 30.69211144388113 96.82459799497269 8.88564064605684
  endloop
endfacet
facet normal -0.09261435890006049 0.09197645014344083 -0.9914448613738144
  outer loop
    vertex 30.124474513240017 97.38832515856545 9.100000000001756
    vertex 28.656657623719468 95.32265309795302 9.0454813220643
    vertex 28.362827127012537 95.61445975031191 9.100000000001778
  endloop
endfacet
facet normal -0.09261435890006049 0.09197645014344083 -0.9914448613738144
  outer loop
    vertex 28.656657623719468 95.32265309795302 9.0454813220643
    vertex 30.124474513240017 97.38832515856545 9.100000000001756
    vertex 30.418305009946916 97.0965185062066 9.045481322064278
  endloop
endfacet
facet normal 0.09261435890008902 -0.09197645014349057 -0.9914448613738072
  outer loop
    vertex 28.068996630305616 95.90626640267078 9.045481322064276
    vertex 30.124474513240017 97.38832515856545 9.100000000001756
    vertex 28.362827127012537 95.61445975031191 9.100000000001778
  endloop
endfacet
facet normal 0.09261435890008902 -0.09197645014349057 -0.9914448613738072
  outer loop
    vertex 30.124474513240017 97.38832515856545 9.100000000001756
    vertex 28.068996630305616 95.90626640267078 9.045481322064276
    vertex 29.830644016533093 97.68013181092434 9.045481322064255
  endloop
endfacet
facet normal 0.27153156119365857 -0.26966130735141014 -0.9238795325112807
  outer loop
    vertex 27.795190196371465 96.1781869139047 8.885640646056865
    vertex 29.830644016533093 97.68013181092434 9.045481322064255
    vertex 28.068996630305616 95.90626640267078 9.045481322064276
  endloop
endfacet
facet normal 0.27153156119365857 -0.26966130735141014 -0.9238795325112807
  outer loop
    vertex 29.830644016533093 97.68013181092434 9.045481322064255
    vertex 27.795190196371465 96.1781869139047 8.885640646056865
    vertex 29.556837582598945 97.95205232215824 8.885640646056844
  endloop
endfacet
facet normal 0.4319443363190176 -0.42896919209972767 -0.7933533402912163
  outer loop
    vertex 29.32171466742354 98.18555575879644 8.63137084990021
    vertex 27.795190196371465 96.1781869139047 8.885640646056865
    vertex 27.56006728119606 96.4116903505429 8.631370849900232
  endloop
endfacet
facet normal 0.4319443363190176 -0.42896919209972767 -0.7933533402912163
  outer loop
    vertex 27.795190196371465 96.1781869139047 8.885640646056865
    vertex 29.32171466742354 98.18555575879644 8.63137084990021
    vertex 29.556837582598945 97.95205232215824 8.885640646056844
  endloop
endfacet
facet normal 0.56292081874599 -0.5590435353115449 -0.6087614290086996
  outer loop
    vertex 29.32171466742354 98.18555575879644 8.63137084990021
    vertex 27.37965112288974 96.59086383926126 8.300000000001742
    vertex 29.14129850911718 98.36472924751483 8.30000000000172
  endloop
endfacet
facet normal 0.56292081874599 -0.5590435353115449 -0.6087614290086996
  outer loop
    vertex 27.37965112288974 96.59086383926126 8.300000000001742
    vertex 29.32171466742354 98.18555575879644 8.63137084990021
    vertex 27.56006728119606 96.4116903505429 8.631370849900232
  endloop
endfacet
facet normal 0.6555351776460603 -0.6510199854550038 -0.3826834323650752
  outer loop
    vertex 29.14129850911718 98.36472924751483 8.30000000000172
    vertex 27.26623678448914 96.70349700290176 7.914110472165772
    vertex 29.027884170716625 98.47736241115531 7.914110472165751
  endloop
endfacet
facet normal 0.6555351776460603 -0.6510199854550038 -0.3826834323650752
  outer loop
    vertex 27.26623678448914 96.70349700290176 7.914110472165772
    vertex 29.14129850911718 98.36472924751483 8.30000000000172
    vertex 27.37965112288974 96.59086383926126 8.300000000001742
  endloop
endfacet
facet normal 0.7034758975126597 -0.6986304994511046 -0.1305261922200231
  outer loop
    vertex 29.027884170716625 98.47736241115531 7.914110472165751
    vertex 27.227553265730347 96.7419140774974 7.500000000001737
    vertex 28.98920065195783 98.51577948575094 7.500000000001716
  endloop
endfacet
facet normal 0.7034758975126597 -0.6986304994511046 -0.1305261922200231
  outer loop
    vertex 27.227553265730347 96.7419140774974 7.500000000001737
    vertex 29.027884170716625 98.47736241115531 7.914110472165751
    vertex 27.26623678448914 96.70349700290176 7.914110472165772
  endloop
endfacet
facet normal 0.7034758975126564 -0.6986304994510981 0.1305261922200746
  outer loop
    vertex 28.98920065195783 98.51577948575094 7.500000000001716
    vertex 27.266236784489156 96.70349700290174 7.085889527837704
    vertex 29.027884170716636 98.4773624111553 7.085889527837683
  endloop
endfacet
facet normal 0.7034758975126564 -0.6986304994510981 0.1305261922200746
  outer loop
    vertex 27.266236784489156 96.70349700290174 7.085889527837704
    vertex 28.98920065195783 98.51577948575094 7.500000000001716
    vertex 27.227553265730347 96.7419140774974 7.500000000001737
  endloop
endfacet
facet normal 0.6555351776460531 -0.6510199854549885 0.3826834323651132
  outer loop
    vertex 29.027884170716636 98.4773624111553 7.085889527837683
    vertex 27.37965112288974 96.5908638392612 6.700000000001745
    vertex 29.14129850911719 98.36472924751479 6.700000000001723
  endloop
endfacet
facet normal 0.6555351776460531 -0.6510199854549885 0.3826834323651132
  outer loop
    vertex 27.37965112288974 96.5908638392612 6.700000000001745
    vertex 29.027884170716636 98.4773624111553 7.085889527837683
    vertex 27.266236784489156 96.70349700290174 7.085889527837704
  endloop
endfacet
facet normal 0.562920818745972 -0.5590435353115141 0.6087614290087444
  outer loop
    vertex 29.14129850911719 98.36472924751479 6.700000000001723
    vertex 27.560067281196098 96.41169035054286 6.368629150103271
    vertex 29.321714667423578 98.1855557587964 6.3686291501032475
  endloop
endfacet
facet normal 0.562920818745972 -0.5590435353115141 0.6087614290087444
  outer loop
    vertex 27.560067281196098 96.41169035054286 6.368629150103271
    vertex 29.14129850911719 98.36472924751479 6.700000000001723
    vertex 27.37965112288974 96.5908638392612 6.700000000001745
  endloop
endfacet
facet normal 0.43194433631899504 -0.4289691920996881 0.7933533402912498
  outer loop
    vertex 29.556837582598963 97.95205232215815 6.114359353946623
    vertex 27.560067281196098 96.41169035054286 6.368629150103271
    vertex 27.795190196371482 96.17818691390461 6.114359353946655
  endloop
endfacet
facet normal 0.43194433631899504 -0.4289691920996881 0.7933533402912498
  outer loop
    vertex 27.560067281196098 96.41169035054286 6.368629150103271
    vertex 29.556837582598963 97.95205232215815 6.114359353946623
    vertex 29.321714667423578 98.1855557587964 6.3686291501032475
  endloop
endfacet
facet normal 0.27153156119364075 -0.26966130735137245 0.923879532511297
  outer loop
    vertex 28.068996630305694 95.9062664026707 5.954518677939256
    vertex 29.556837582598963 97.95205232215815 6.114359353946623
    vertex 27.795190196371482 96.17818691390461 6.114359353946655
  endloop
endfacet
facet normal 0.27153156119364075 -0.26966130735137245 0.923879532511297
  outer loop
    vertex 29.556837582598963 97.95205232215815 6.114359353946623
    vertex 28.068996630305694 95.9062664026707 5.954518677939256
    vertex 29.830644016533142 97.68013181092427 5.954518677939224
  endloop
endfacet
facet normal 0.09261435890006058 -0.0919764501434409 0.9914448613738145
  outer loop
    vertex 30.124474513240074 97.3883251585654 5.900000000001746
    vertex 28.068996630305694 95.9062664026707 5.954518677939256
    vertex 28.36282712701259 95.61445975031185 5.900000000001778
  endloop
endfacet
facet normal 0.09261435890006058 -0.0919764501434409 0.9914448613738145
  outer loop
    vertex 28.068996630305694 95.9062664026707 5.954518677939256
    vertex 30.124474513240074 97.3883251585654 5.900000000001746
    vertex 29.830644016533142 97.68013181092427 5.954518677939224
  endloop
endfacet
facet normal -0.09261435890008785 0.09197645014348939 0.9914448613738073
  outer loop
    vertex 30.418305009946966 97.09651850620655 5.954518677939247
    vertex 28.36282712701259 95.61445975031185 5.900000000001778
    vertex 28.656657623719518 95.32265309795297 5.954518677939279
  endloop
endfacet
facet normal -0.09261435890008785 0.09197645014348939 0.9914448613738073
  outer loop
    vertex 28.36282712701259 95.61445975031185 5.900000000001778
    vertex 30.418305009946966 97.09651850620655 5.954518677939247
    vertex 30.124474513240074 97.3883251585654 5.900000000001746
  endloop
endfacet
facet normal -0.27153156119360955 0.2696613073513614 0.9238795325113095
  outer loop
    vertex 30.69211144388115 96.82459799497262 6.114359353946624
    vertex 28.656657623719518 95.32265309795297 5.954518677939279
    vertex 28.93046405765367 95.05073258671906 6.114359353946655
  endloop
endfacet
facet normal -0.27153156119360955 0.2696613073513614 0.9238795325113095
  outer loop
    vertex 28.656657623719518 95.32265309795297 5.954518677939279
    vertex 30.69211144388115 96.82459799497262 6.114359353946624
    vertex 30.418305009946966 97.09651850620655 5.954518677939247
  endloop
endfacet
facet normal -0.43194433631901374 0.4289691920997239 0.7933533402912203
  outer loop
    vertex 29.165586972829075 94.81722915008085 6.368629150103286
    vertex 30.69211144388115 96.82459799497262 6.114359353946624
    vertex 28.93046405765367 95.05073258671906 6.114359353946655
  endloop
endfacet
facet normal -0.43194433631901374 0.4289691920997239 0.7933533402912203
  outer loop
    vertex 30.69211144388115 96.82459799497262 6.114359353946624
    vertex 29.165586972829075 94.81722915008085 6.368629150103286
    vertex 30.927234359056555 96.5910945583344 6.368629150103264
  endloop
endfacet
facet normal -0.56292081874599 0.5590435353115449 0.6087614290086996
  outer loop
    vertex 29.165586972829075 94.81722915008085 6.368629150103286
    vertex 31.10765051736287 96.41192106961604 6.700000000001754
    vertex 30.927234359056555 96.5910945583344 6.368629150103264
  endloop
endfacet
facet normal -0.56292081874599 0.5590435353115449 0.6087614290086996
  outer loop
    vertex 31.10765051736287 96.41192106961604 6.700000000001754
    vertex 29.165586972829075 94.81722915008085 6.368629150103286
    vertex 29.346003131135422 94.63805566136246 6.700000000001777
  endloop
endfacet
facet normal -0.6555351776460565 0.6510199854550001 0.3826834323650879
  outer loop
    vertex 29.346003131135422 94.63805566136246 6.700000000001777
    vertex 31.221064855763473 96.29928790597555 7.085889527837723
    vertex 31.10765051736287 96.41192106961604 6.700000000001754
  endloop
endfacet
facet normal -0.6555351776460565 0.6510199854550001 0.3826834323650879
  outer loop
    vertex 31.221064855763473 96.29928790597555 7.085889527837723
    vertex 29.346003131135422 94.63805566136246 6.700000000001777
    vertex 29.45941746953599 94.52542249772199 7.085889527837745
  endloop
endfacet
facet normal -0.7034758975126599 0.6986304994511047 0.13052619222002088
  outer loop
    vertex 29.45941746953599 94.52542249772199 7.085889527837745
    vertex 31.25974837452226 96.2608708313799 7.500000000001764
    vertex 31.221064855763473 96.29928790597555 7.085889527837723
  endloop
endfacet
facet normal -0.7034758975126599 0.6986304994511047 0.13052619222002088
  outer loop
    vertex 31.25974837452226 96.2608708313799 7.500000000001764
    vertex 29.45941746953599 94.52542249772199 7.085889527837745
    vertex 29.49810098829478 94.48700542312635 7.500000000001787
  endloop
endfacet
facet normal -0.703475897512655 0.6986304994510967 -0.13052619222008963
  outer loop
    vertex 29.49810098829478 94.48700542312635 7.500000000001787
    vertex 31.221064855763426 96.29928790597559 7.914110472165792
    vertex 31.25974837452226 96.2608708313799 7.500000000001764
  endloop
endfacet
facet normal -0.703475897512655 0.6986304994510967 -0.13052619222008963
  outer loop
    vertex 31.221064855763426 96.29928790597559 7.914110472165792
    vertex 29.49810098829478 94.48700542312635 7.500000000001787
    vertex 29.45941746953598 94.525422497722 7.914110472165815
  endloop
endfacet
facet normal -0.6555351776460538 0.6510199854549892 -0.3826834323651109
  outer loop
    vertex 29.45941746953598 94.525422497722 7.914110472165815
    vertex 31.10765051736287 96.4119210696161 8.300000000001754
    vertex 31.221064855763426 96.29928790597559 7.914110472165792
  endloop
endfacet
facet normal -0.6555351776460538 0.6510199854549892 -0.3826834323651109
  outer loop
    vertex 31.10765051736287 96.4119210696161 8.300000000001754
    vertex 29.45941746953598 94.525422497722 7.914110472165815
    vertex 29.346003131135422 94.63805566136251 8.300000000001777
  endloop
endfacet
facet normal -0.5629208187459676 0.5590435353115096 -0.6087614290087525
  outer loop
    vertex 29.346003131135422 94.63805566136251 8.300000000001777
    vertex 30.927234359056516 96.59109455833446 8.631370849900224
    vertex 31.10765051736287 96.4119210696161 8.300000000001754
  endloop
endfacet
facet normal -0.5629208187459676 0.5590435353115096 -0.6087614290087525
  outer loop
    vertex 30.927234359056516 96.59109455833446 8.631370849900224
    vertex 29.346003131135422 94.63805566136251 8.300000000001777
    vertex 29.165586972829036 94.8172291500809 8.631370849900245
  endloop
endfacet
facet normal -0.704658954490955 -0.7095461633013841 1.407968851619784e-15
  outer loop
    vertex 14.565774613118867 98.04166842054693 15.000000000001602
    vertex 17.04918618467394 95.57536207982835 2.869854758574206
    vertex 17.049186184673722 95.57536207982858 15.000000000001695
  endloop
endfacet
facet normal -0.704658954490955 -0.7095461633013841 1.407968851619784e-15
  outer loop
    vertex 17.04918618467394 95.57536207982835 2.869854758574206
    vertex 14.565774613118867 98.04166842054693 15.000000000001602
    vertex 17.049186184673964 95.57536207982832 1.4698547585742054
  endloop
endfacet
facet normal -0.704658954490955 -0.7095461633013841 1.407968851619784e-15
  outer loop
    vertex 17.049186184673964 95.57536207982832 1.4698547585742054
    vertex 14.565774613118867 98.04166842054693 15.000000000001602
    vertex 17.049186184673992 95.5753620798283 1.5413938050708863e-12
  endloop
endfacet
facet normal -0.704658954490955 -0.7095461633013841 1.407968851619784e-15
  outer loop
    vertex 17.049186184673992 95.5753620798283 1.5413938050708863e-12
    vertex 14.565774613118867 98.04166842054693 15.000000000001602
    vertex 4.632128326899706 107.90689378342006 1.0775685768115104e-12
  endloop
endfacet
facet normal -0.704658954490955 -0.7095461633013841 1.407968851619784e-15
  outer loop
    vertex 4.632128326899706 107.90689378342006 1.0775685768115104e-12
    vertex 14.565774613118867 98.04166842054693 15.000000000001602
    vertex 4.632128326899517 107.90689378342029 15.00000000000112
  endloop
endfacet
facet normal 4.257047025417446e-14 -2.6702449920242814e-15 -1.0
  outer loop
    vertex 4.632128326899706 107.90689378342006 1.0775685768115104e-12
    vertex 11.544094408075185 102.80422537437362 5.342109804224032e-13
    vertex 17.049186184673992 95.5753620798283 1.5413938050708863e-12
  endloop
endfacet
facet normal 4.257047025417446e-14 -2.6702449920242814e-15 -1.0
  outer loop
    vertex 11.544094408075185 102.80422537437362 5.342109804224032e-13
    vertex 4.632128326899706 107.90689378342006 1.0775685768115104e-12
    vertex 15.202012644264078 118.55008623294086 1.0632407733717766e-12
  endloop
endfacet
facet normal 4.257047025417446e-14 -2.6702449920242814e-15 -1.0
  outer loop
    vertex 11.544094408075185 102.80422537437362 5.342109804224032e-13
    vertex 15.202012644264078 118.55008623294086 1.0632407733717766e-12
    vertex 15.067389180529966 106.35195619088054 5.501889191706002e-13
  endloop
endfacet
facet normal 4.257047025417446e-14 -2.6702449920242814e-15 -1.0
  outer loop
    vertex 15.067389180529966 106.35195619088054 5.501889191706002e-13
    vertex 15.202012644264078 118.55008623294086 1.0632407733717766e-12
    vertex 21.453304650242437 100.01002560046192 1.0878502731668898e-12
  endloop
endfacet
facet normal 4.257047025417446e-14 -2.6702449920242814e-15 -1.0
  outer loop
    vertex 21.453304650242437 100.01002560046192 1.0878502731668898e-12
    vertex 15.202012644264078 118.55008623294086 1.0632407733717766e-12
    vertex 22.686457820601614 101.25173138623934 1.6003482407804553e-12
  endloop
endfacet
facet normal 4.257047025417446e-14 -2.6702449920242814e-15 -1.0
  outer loop
    vertex 22.686457820601614 101.25173138623934 1.6003482407804553e-12
    vertex 15.202012644264078 118.55008623294086 1.0632407733717766e-12
    vertex 24.448105206829062 103.02559679449286 1.6105508277285971e-12
  endloop
endfacet
facet normal 4.257047025417446e-14 -2.6702449920242814e-15 -1.0
  outer loop
    vertex 22.686457820601614 101.25173138623934 1.6003482407804553e-12
    vertex 24.448105206829062 103.02559679449286 1.6105508277285971e-12
    vertex 33.68442335177309 90.32951759162957 1.939351633628499e-12
  endloop
endfacet
facet normal 4.257047025417446e-14 -2.6702449920242814e-15 -1.0
  outer loop
    vertex 24.448105206829062 103.02559679449286 1.6105508277285971e-12
    vertex 15.202012644264078 118.55008623294086 1.0632407733717766e-12
    vertex 27.61907050203833 106.21855452934912 1.5275829954862854e-12
  endloop
endfacet
facet normal 4.257047025417446e-14 -2.6702449920242814e-15 -1.0
  outer loop
    vertex 35.44607073800054 92.10338299988308 2.0054365563724654e-12
    vertex 33.68442335177309 90.32951759162957 1.939351633628499e-12
    vertex 24.448105206829062 103.02559679449286 1.6105508277285971e-12
  endloop
endfacet
facet normal 4.257047025417446e-14 -2.6702449920242814e-15 -1.0
  outer loop
    vertex 17.930009877787672 96.462294783955 7.700840396197146e-13
    vertex 17.049186184673992 95.5753620798283 1.5413938050708863e-12
    vertex 11.544094408075185 102.80422537437362 5.342109804224032e-13
  endloop
endfacet
facet normal 1.109741898934219e-13 1.456823874905443e-13 -1.0
  outer loop
    vertex 15.429493075396346 103.87831903694654 8.493923815081127e-13
    vertex 18.98699830952411 97.52661402890709 3.188520927002171e-13
    vertex 14.020175166414422 102.45922671034376 2.935713552698148e-13
  endloop
endfacet
facet normal 1.109741898934219e-13 1.456823874905443e-13 -1.0
  outer loop
    vertex 18.98699830952411 97.52661402890709 3.188520927002171e-13
    vertex 15.429493075396346 103.87831903694654 8.493923815081127e-13
    vertex 20.396316218506023 98.94570635550986 4.893004093830424e-13
  endloop
endfacet
facet normal 4.7669057811466976e-14 2.850327771242719e-14 -1.0
  outer loop
    vertex 11.544094408075035 102.80422537437347 3.9999999999998885
    vertex 15.439267493016995 101.04990880136174 3.999999999999687
    vertex 17.930009877787487 96.4622947839549 4.0000000000001235
  endloop
endfacet
facet normal 4.7669057811466976e-14 2.850327771242719e-14 -1.0
  outer loop
    vertex 15.439267493016995 101.04990880136174 3.999999999999687
    vertex 11.544094408075035 102.80422537437347 3.9999999999998885
    vertex 15.067389180529814 106.3519561908804 3.999999999999903
  endloop
endfacet
facet normal 4.7669057811466976e-14 2.850327771242719e-14 -1.0
  outer loop
    vertex 15.439267493016995 101.04990880136174 3.999999999999687
    vertex 15.067389180529814 106.3519561908804 3.999999999999903
    vertex 16.84858540199892 102.46900112796452 4.000000000000243
  endloop
endfacet
facet normal 4.7669057811466976e-14 2.850327771242719e-14 -1.0
  outer loop
    vertex 16.84858540199892 102.46900112796452 4.000000000000243
    vertex 15.067389180529814 106.3519561908804 3.999999999999903
    vertex 20.396316218505838 98.94570635550976 3.9999999999998423
  endloop
endfacet
facet normal 4.7669057811466976e-14 2.850327771242719e-14 -1.0
  outer loop
    vertex 20.396316218505838 98.94570635550976 3.9999999999998423
    vertex 15.067389180529814 106.3519561908804 3.999999999999903
    vertex 21.453304650242252 100.01002560046182 4.0000000000004405
  endloop
endfacet
facet normal 4.7669057811466976e-14 2.850327771242719e-14 -1.0
  outer loop
    vertex 18.986998309523926 97.52661402890699 3.9999999999996714
    vertex 17.930009877787487 96.4622947839549 4.0000000000001235
    vertex 15.439267493016995 101.04990880136174 3.999999999999687
  endloop
endfacet
facet normal 0.7046589544909556 0.7095461633013834 5.381481978136378e-14
  outer loop
    vertex 15.429493075396346 103.87831903694654 8.493923815081127e-13
    vertex 16.848585401998996 102.46900112796452 2.0000000000002447
    vertex 20.396316218506023 98.94570635550986 4.893004093830424e-13
  endloop
endfacet
facet normal 0.7046589544909556 0.7095461633013834 5.381481978136378e-14
  outer loop
    vertex 16.848585401998996 102.46900112796452 2.0000000000002447
    vertex 15.429493075396346 103.87831903694654 8.493923815081127e-13
    vertex 15.429493075396236 103.87831903694642 2.0000000000002034
  endloop
endfacet
facet normal 0.7046589544909556 0.7095461633013834 5.381481978136378e-14
  outer loop
    vertex 20.396316218506023 98.94570635550986 4.893004093830424e-13
    vertex 16.84858540199892 102.46900112796452 4.000000000000243
    vertex 20.396316218505838 98.94570635550976 3.9999999999998423
  endloop
endfacet
facet normal 0.7046589544909556 0.7095461633013834 5.381481978136378e-14
  outer loop
    vertex 16.84858540199892 102.46900112796452 4.000000000000243
    vertex 20.396316218506023 98.94570635550986 4.893004093830424e-13
    vertex 16.848585401998996 102.46900112796452 2.0000000000002447
  endloop
endfacet
facet normal -0.7046589544909533 -0.7095461633013856 -5.381481978136375e-14
  outer loop
    vertex 15.439267493016995 101.04990880136174 3.999999999999687
    vertex 18.98699830952411 97.52661402890709 3.188520927002171e-13
    vertex 18.986998309523926 97.52661402890699 3.9999999999996714
  endloop
endfacet
facet normal -0.7046589544909533 -0.7095461633013856 -5.381481978136375e-14
  outer loop
    vertex 18.98699830952411 97.52661402890709 3.188520927002171e-13
    vertex 15.439267493016995 101.04990880136174 3.999999999999687
    vertex 15.439267493017109 101.04990880136178 2.0000000000002465
  endloop
endfacet
facet normal -0.7046589544909533 -0.7095461633013856 -5.381481978136375e-14
  outer loop
    vertex 18.98699830952411 97.52661402890709 3.188520927002171e-13
    vertex 15.439267493017109 101.04990880136178 2.0000000000002465
    vertex 14.020175166414422 102.45922671034376 2.935713552698148e-13
  endloop
endfacet
facet normal -0.7046589544909533 -0.7095461633013856 -5.381481978136375e-14
  outer loop
    vertex 14.020175166414422 102.45922671034376 2.935713552698148e-13
    vertex 15.439267493017109 101.04990880136178 2.0000000000002465
    vertex 14.020175166414345 102.45922671034369 2.000000000000205
  endloop
endfacet
facet normal 0.7046589544909538 0.7095461633013852 5.381481978136376e-14
  outer loop
    vertex 17.930009877787672 96.462294783955 7.700840396197146e-13
    vertex 11.544094408075035 102.80422537437347 3.9999999999998885
    vertex 17.930009877787487 96.4622947839549 4.0000000000001235
  endloop
endfacet
facet normal 0.7046589544909538 0.7095461633013852 5.381481978136376e-14
  outer loop
    vertex 11.544094408075035 102.80422537437347 3.9999999999998885
    vertex 17.930009877787672 96.462294783955 7.700840396197146e-13
    vertex 11.544094408075185 102.80422537437362 5.342109804224032e-13
  endloop
endfacet
facet normal 0.7095461633013834 -0.7046589544909556 1.3738307205913936e-14
  outer loop
    vertex 15.067389180529966 106.35195619088054 5.501889191706002e-13
    vertex 11.544094408075035 102.80422537437347 3.9999999999998885
    vertex 11.544094408075185 102.80422537437362 5.342109804224032e-13
  endloop
endfacet
facet normal 0.7095461633013834 -0.7046589544909556 1.3738307205913936e-14
  outer loop
    vertex 11.544094408075035 102.80422537437347 3.9999999999998885
    vertex 15.067389180529966 106.35195619088054 5.501889191706002e-13
    vertex 15.067389180529814 106.3519561908804 3.999999999999903
  endloop
endfacet
facet normal -0.7046589544909556 -0.7095461633013834 -5.381481978136379e-14
  outer loop
    vertex 15.067389180529814 106.3519561908804 3.999999999999903
    vertex 21.453304650242437 100.01002560046192 1.0878502731668898e-12
    vertex 21.453304650242252 100.01002560046182 4.0000000000004405
  endloop
endfacet
facet normal -0.7046589544909556 -0.7095461633013834 -5.381481978136379e-14
  outer loop
    vertex 21.453304650242437 100.01002560046192 1.0878502731668898e-12
    vertex 15.067389180529814 106.3519561908804 3.999999999999903
    vertex 15.067389180529966 106.35195619088054 5.501889191706002e-13
  endloop
endfacet
facet normal -0.7095461633013814 0.7046589544909576 -6.468352310751366e-15
  outer loop
    vertex 14.020175166414345 102.45922671034369 2.000000000000205
    vertex 15.429493075396346 103.87831903694654 8.493923815081127e-13
    vertex 14.020175166414422 102.45922671034376 2.935713552698148e-13
  endloop
endfacet
facet normal -0.7095461633013814 0.7046589544909576 -6.468352310751366e-15
  outer loop
    vertex 15.429493075396346 103.87831903694654 8.493923815081127e-13
    vertex 14.020175166414345 102.45922671034369 2.000000000000205
    vertex 15.429493075396236 103.87831903694642 2.0000000000002034
  endloop
endfacet
facet normal -0.7095461633013814 0.7046589544909576 -2.0568184723494196e-14
  outer loop
    vertex 15.439267493016995 101.04990880136174 3.999999999999687
    vertex 16.848585401998996 102.46900112796452 2.0000000000002447
    vertex 15.439267493017109 101.04990880136178 2.0000000000002465
  endloop
endfacet
facet normal -0.7095461633013814 0.7046589544909576 -2.0568184723494196e-14
  outer loop
    vertex 16.848585401998996 102.46900112796452 2.0000000000002447
    vertex 15.439267493016995 101.04990880136174 3.999999999999687
    vertex 16.84858540199892 102.46900112796452 4.000000000000243
  endloop
endfacet
facet normal -1.3920995557163139e-14 1.5171304740314196e-14 1.0
  outer loop
    vertex 16.848585401998996 102.46900112796452 2.0000000000002447
    vertex 14.020175166414345 102.45922671034369 2.000000000000205
    vertex 15.439267493017109 101.04990880136178 2.0000000000002465
  endloop
endfacet
facet normal -1.3920995557163139e-14 1.5171304740314196e-14 1.0
  outer loop
    vertex 14.020175166414345 102.45922671034369 2.000000000000205
    vertex 16.848585401998996 102.46900112796452 2.0000000000002447
    vertex 15.429493075396236 103.87831903694642 2.0000000000002034
  endloop
endfacet
endsolid palm
