solid palm
facet normal -1.0 1.7353639892602133e-15 1.30497820926261e-29
  outer loop
    vertex 145.29338710098216 215.9301576674691 16.000000000005763
    vertex 145.29338710098216 214.18015766746913 13.500000000005993
    vertex 145.29338710098216 214.18015766746908 16.000000000005763
  endloop
endfacet
facet normal -1.0 1.7353639892602133e-15 1.30497820926261e-29
  outer loop
    vertex 145.29338710098216 214.18015766746913 13.500000000005993
    vertex 145.29338710098216 215.9301576674691 16.000000000005763
    vertex 145.29338710098216 215.9301576674691 13.500000000005993
  endloop
endfacet
facet normal 1.0 -1.7353639892602133e-15 0.0
  outer loop
    vertex 151.7933871009823 215.9301576674691 13.500000000005993
    vertex 151.7933871009823 214.18015766746908 16.000000000005763
    vertex 151.7933871009823 214.18015766746908 13.500000000005993
  endloop
endfacet
facet normal 1.0 -1.7353639892602133e-15 0.0
  outer loop
    vertex 151.7933871009823 214.18015766746908 16.000000000005763
    vertex 151.7933871009823 215.9301576674691 13.500000000005993
    vertex 151.7933871009823 215.9301576674691 16.000000000005763
  endloop
endfacet
facet normal 0.0 -3.759955310064153e-15 1.0
  outer loop
    vertex 151.7933871009823 214.18015766746908 16.000000000005763
    vertex 145.29338710098216 215.9301576674691 16.000000000005763
    vertex 145.29338710098216 214.18015766746908 16.000000000005763
  endloop
endfacet
facet normal 0.0 -3.759955310064153e-15 1.0
  outer loop
    vertex 145.29338710098216 215.9301576674691 16.000000000005763
    vertex 151.7933871009823 214.18015766746908 16.000000000005763
    vertex 151.7933871009823 215.9301576674691 16.000000000005763
  endloop
endfacet
facet normal 1.7353639892602133e-15 1.0 3.759955310064153e-15
  outer loop
    vertex 145.29338710098216 215.9301576674691 16.000000000005763
    vertex 151.7933871009823 215.9301576674691 13.500000000005993
    vertex 145.29338710098216 215.9301576674691 13.500000000005993
  endloop
endfacet
facet normal 1.7353639892602133e-15 1.0 3.759955310064153e-15
  outer loop
    vertex 151.7933871009823 215.9301576674691 13.500000000005993
    vertex 145.29338710098216 215.9301576674691 16.000000000005763
    vertex 151.7933871009823 215.9301576674691 16.000000000005763
  endloop
endfacet
facet normal 1.30497820926261e-29 3.759955310064153e-15 -1.0
  outer loop
    vertex 145.29338710098216 215.9301576674691 13.500000000005993
    vertex 146.79338710098224 214.18015766746913 13.500000000005993
    vertex 145.29338710098216 214.18015766746913 13.500000000005993
  endloop
endfacet
facet normal 1.30497820926261e-29 3.759955310064153e-15 -1.0
  outer loop
    vertex 146.79338710098224 214.18015766746913 13.500000000005993
    vertex 145.29338710098216 215.9301576674691 13.500000000005993
    vertex 151.7933871009823 215.9301576674691 13.500000000005993
  endloop
endfacet
facet normal 1.30497820926261e-29 3.759955310064153e-15 -1.0
  outer loop
    vertex 146.79338710098224 214.18015766746913 13.500000000005993
    vertex 151.7933871009823 215.9301576674691 13.500000000005993
    vertex 148.04338710098222 212.93015766746905 13.500000000005981
  endloop
endfacet
facet normal 1.30497820926261e-29 3.759955310064153e-15 -1.0
  outer loop
    vertex 146.79338710098224 214.18015766746913 13.500000000005993
    vertex 148.04338710098222 212.93015766746905 13.500000000005981
    vertex 148.04338710098222 210.43015766746908 13.50000000000597
  endloop
endfacet
facet normal 1.30497820926261e-29 3.759955310064153e-15 -1.0
  outer loop
    vertex 148.04338710098222 212.93015766746905 13.500000000005981
    vertex 151.7933871009823 215.9301576674691 13.500000000005993
    vertex 149.04338710098224 212.93015766746905 13.500000000005981
  endloop
endfacet
facet normal 1.30497820926261e-29 3.759955310064153e-15 -1.0
  outer loop
    vertex 149.04338710098224 212.93015766746905 13.500000000005981
    vertex 151.7933871009823 215.9301576674691 13.500000000005993
    vertex 150.29338710098222 214.18015766746908 13.500000000005993
  endloop
endfacet
facet normal 1.30497820926261e-29 3.759955310064153e-15 -1.0
  outer loop
    vertex 149.04338710098224 212.93015766746905 13.500000000005981
    vertex 150.29338710098222 214.18015766746908 13.500000000005993
    vertex 150.29338710098222 209.1801576674691 13.50000000000596
  endloop
endfacet
facet normal 1.30497820926261e-29 3.759955310064153e-15 -1.0
  outer loop
    vertex 150.29338710098222 214.18015766746908 13.500000000005993
    vertex 151.7933871009823 215.9301576674691 13.500000000005993
    vertex 151.7933871009823 214.18015766746908 13.500000000005993
  endloop
endfacet
facet normal 1.30497820926261e-29 3.759955310064153e-15 -1.0
  outer loop
    vertex 146.79338710098222 209.1801576674691 13.50000000000596
    vertex 148.04338710098222 210.43015766746908 13.50000000000597
    vertex 150.29338710098222 209.1801576674691 13.50000000000596
  endloop
endfacet
facet normal 1.30497820926261e-29 3.759955310064153e-15 -1.0
  outer loop
    vertex 148.04338710098222 210.43015766746908 13.50000000000597
    vertex 146.79338710098222 209.1801576674691 13.50000000000596
    vertex 146.79338710098224 214.18015766746913 13.500000000005993
  endloop
endfacet
facet normal 1.30497820926261e-29 3.759955310064153e-15 -1.0
  outer loop
    vertex 150.29338710098222 209.1801576674691 13.50000000000596
    vertex 148.04338710098222 210.43015766746908 13.50000000000597
    vertex 149.04338710098222 210.43015766746908 13.50000000000597
  endloop
endfacet
facet normal 1.30497820926261e-29 3.759955310064153e-15 -1.0
  outer loop
    vertex 150.29338710098222 209.1801576674691 13.50000000000596
    vertex 149.04338710098222 210.43015766746908 13.50000000000597
    vertex 149.04338710098224 212.93015766746905 13.500000000005981
  endloop
endfacet
facet normal -2.0697001706773223e-15 -1.0 -4.171629249122096e-15
  outer loop
    vertex 151.7933871009823 214.18015766746908 16.000000000005763
    vertex 150.29338710098222 214.18015766746908 13.500000000005993
    vertex 151.7933871009823 214.18015766746908 13.500000000005993
  endloop
endfacet
facet normal -2.0697001706773223e-15 -1.0 -4.171629249122096e-15
  outer loop
    vertex 150.29338710098222 214.18015766746908 13.500000000005993
    vertex 151.7933871009823 214.18015766746908 16.000000000005763
    vertex 150.29338710098222 214.18015766746908 14.75000000000466
  endloop
endfacet
facet normal -2.0697001706773223e-15 -1.0 -4.171629249122096e-15
  outer loop
    vertex 150.29338710098222 214.18015766746908 14.75000000000466
    vertex 151.7933871009823 214.18015766746908 16.000000000005763
    vertex 146.79338710098224 214.18015766746908 14.75000000000466
  endloop
endfacet
facet normal -2.0697001706773223e-15 -1.0 -4.171629249122096e-15
  outer loop
    vertex 146.79338710098224 214.18015766746908 14.75000000000466
    vertex 145.29338710098216 214.18015766746913 13.500000000005993
    vertex 146.79338710098224 214.18015766746913 13.500000000005993
  endloop
endfacet
facet normal -2.0697001706773223e-15 -1.0 -4.171629249122096e-15
  outer loop
    vertex 145.29338710098216 214.18015766746913 13.500000000005993
    vertex 146.79338710098224 214.18015766746908 14.75000000000466
    vertex 145.29338710098216 214.18015766746908 16.000000000005763
  endloop
endfacet
facet normal -2.0697001706773223e-15 -1.0 -4.171629249122096e-15
  outer loop
    vertex 145.29338710098216 214.18015766746908 16.000000000005763
    vertex 146.79338710098224 214.18015766746908 14.75000000000466
    vertex 151.7933871009823 214.18015766746908 16.000000000005763
  endloop
endfacet
facet normal -1.0 3.2228188371975925e-15 4.1546245029614306e-29
  outer loop
    vertex 146.79338710098224 214.18015766746908 14.75000000000466
    vertex 146.79338710098222 209.1801576674691 13.50000000000596
    vertex 146.79338710098222 209.1801576674691 14.750000000004626
  endloop
endfacet
facet normal -1.0 3.2228188371975925e-15 4.1546245029614306e-29
  outer loop
    vertex 146.79338710098222 209.1801576674691 13.50000000000596
    vertex 146.79338710098224 214.18015766746908 14.75000000000466
    vertex 146.79338710098224 214.18015766746913 13.500000000005993
  endloop
endfacet
facet normal 1.0 -3.2228188371975925e-15 0.0
  outer loop
    vertex 150.29338710098222 214.18015766746908 13.500000000005993
    vertex 150.29338710098222 209.1801576674691 14.750000000004626
    vertex 150.29338710098222 209.1801576674691 13.50000000000596
  endloop
endfacet
facet normal 1.0 -3.2228188371975925e-15 0.0
  outer loop
    vertex 150.29338710098222 209.1801576674691 14.750000000004626
    vertex 150.29338710098222 214.18015766746908 13.500000000005993
    vertex 150.29338710098222 214.18015766746908 14.75000000000466
  endloop
endfacet
facet normal -3.2228188371975925e-15 -1.0 -6.445637674400109e-15
  outer loop
    vertex 150.29338710098222 209.1801576674691 14.750000000004626
    vertex 146.79338710098222 209.1801576674691 13.50000000000596
    vertex 150.29338710098222 209.1801576674691 13.50000000000596
  endloop
endfacet
facet normal -3.2228188371975925e-15 -1.0 -6.445637674400109e-15
  outer loop
    vertex 146.79338710098222 209.1801576674691 13.50000000000596
    vertex 150.29338710098222 209.1801576674691 14.750000000004626
    vertex 146.79338710098222 209.1801576674691 14.750000000004626
  endloop
endfacet
facet normal 0.0 -6.445637674400108e-15 1.0
  outer loop
    vertex 146.79338710098222 209.1801576674691 14.750000000004626
    vertex 148.04338710098222 210.43015766746908 14.750000000004638
    vertex 146.79338710098224 214.18015766746908 14.75000000000466
  endloop
endfacet
facet normal 0.0 -6.445637674400108e-15 1.0
  outer loop
    vertex 148.04338710098222 210.43015766746908 14.750000000004638
    vertex 146.79338710098222 209.1801576674691 14.750000000004626
    vertex 150.29338710098222 209.1801576674691 14.750000000004626
  endloop
endfacet
facet normal 0.0 -6.445637674400108e-15 1.0
  outer loop
    vertex 148.04338710098222 210.43015766746908 14.750000000004638
    vertex 150.29338710098222 209.1801576674691 14.750000000004626
    vertex 149.04338710098222 210.43015766746908 14.750000000004638
  endloop
endfacet
facet normal 0.0 -6.445637674400108e-15 1.0
  outer loop
    vertex 149.04338710098222 210.43015766746908 14.750000000004638
    vertex 150.29338710098222 209.1801576674691 14.750000000004626
    vertex 149.04338710098224 212.93015766746905 14.750000000004649
  endloop
endfacet
facet normal 0.0 -6.445637674400108e-15 1.0
  outer loop
    vertex 146.79338710098224 214.18015766746908 14.75000000000466
    vertex 148.04338710098222 212.93015766746905 14.750000000004649
    vertex 150.29338710098222 214.18015766746908 14.75000000000466
  endloop
endfacet
facet normal 0.0 -6.445637674400108e-15 1.0
  outer loop
    vertex 148.04338710098222 212.93015766746905 14.750000000004649
    vertex 146.79338710098224 214.18015766746908 14.75000000000466
    vertex 148.04338710098222 210.43015766746908 14.750000000004638
  endloop
endfacet
facet normal 0.0 -6.445637674400108e-15 1.0
  outer loop
    vertex 150.29338710098222 214.18015766746908 14.75000000000466
    vertex 148.04338710098222 212.93015766746905 14.750000000004649
    vertex 149.04338710098224 212.93015766746905 14.750000000004649
  endloop
endfacet
facet normal 0.0 -6.445637674400108e-15 1.0
  outer loop
    vertex 150.29338710098222 214.18015766746908 14.75000000000466
    vertex 149.04338710098224 212.93015766746905 14.750000000004649
    vertex 150.29338710098222 209.1801576674691 14.750000000004626
  endloop
endfacet
facet normal 1.0 -2.2559731860383426e-15 -9.997420219662224e-30
  outer loop
    vertex 148.04338710098222 212.93015766746905 13.500000000005981
    vertex 148.04338710098222 210.43015766746908 14.750000000004638
    vertex 148.04338710098222 210.43015766746908 13.50000000000597
  endloop
endfacet
facet normal 1.0 -2.2559731860383426e-15 -9.997420219662224e-30
  outer loop
    vertex 148.04338710098222 210.43015766746908 14.750000000004638
    vertex 148.04338710098222 212.93015766746905 13.500000000005981
    vertex 148.04338710098222 212.93015766746905 14.750000000004649
  endloop
endfacet
facet normal -0.0 -1.0 -4.511946372076685e-15
  outer loop
    vertex 149.04338710098224 212.93015766746905 14.750000000004649
    vertex 148.04338710098222 212.93015766746905 13.500000000005981
    vertex 149.04338710098224 212.93015766746905 13.500000000005981
  endloop
endfacet
facet normal -0.0 -1.0 -4.511946372076685e-15
  outer loop
    vertex 148.04338710098222 212.93015766746905 13.500000000005981
    vertex 149.04338710098224 212.93015766746905 14.750000000004649
    vertex 148.04338710098222 212.93015766746905 14.750000000004649
  endloop
endfacet
facet normal -1.0 2.2559731860383426e-15 9.997420219662224e-30
  outer loop
    vertex 149.04338710098224 212.93015766746905 14.750000000004649
    vertex 149.04338710098222 210.43015766746908 13.50000000000597
    vertex 149.04338710098222 210.43015766746908 14.750000000004638
  endloop
endfacet
facet normal -1.0 2.2559731860383426e-15 9.997420219662224e-30
  outer loop
    vertex 149.04338710098222 210.43015766746908 13.50000000000597
    vertex 149.04338710098224 212.93015766746905 14.750000000004649
    vertex 149.04338710098224 212.93015766746905 13.500000000005981
  endloop
endfacet
facet normal 0.0 1.0 4.511946372076685e-15
  outer loop
    vertex 148.04338710098222 210.43015766746908 14.750000000004638
    vertex 149.04338710098222 210.43015766746908 13.50000000000597
    vertex 148.04338710098222 210.43015766746908 13.50000000000597
  endloop
endfacet
facet normal 0.0 1.0 4.511946372076685e-15
  outer loop
    vertex 149.04338710098222 210.43015766746908 13.50000000000597
    vertex 148.04338710098222 210.43015766746908 14.750000000004638
    vertex 149.04338710098222 210.43015766746908 14.750000000004638
  endloop
endfacet
endsolid palm
